<?xml version="1.0" encoding="iso-8859-1"?><svg version="1.1" xmlns="http://www.w3.org/2000/svg" xmlns:xlink="http://www.w3.org/1999/xlink" height="640" width="1210" viewBox="0 0 640 1210">
<polygon fill="none" stroke="#ff8a65" stroke-width="2" points="365.627619629,70.0 382.478457942,117.414772633 415.784590608,136.528257343 417.817172506,134.985218711 570.0,162.601822147 559.739961571,219.14033391 525.450266553,235.080410299 310.688959264,243.557830324 306.900395202,221.309113592 314.412288265,202.187508088 325.0099974,84.4351843708"/>
<line stroke="#834" stroke-width="2" x1="895.0099974" y1="84.4351843708" x2="1129.73996157" y2="219.14033391"/>
<line stroke="#834" stroke-width="2" x1="938.331144726" y1="176.613806108" x2="986.120262933" y2="239.396068337"/>
<line stroke="#834" stroke-width="2" x1="1018.10473794" y1="189.683905302" x2="1100.1446797" y2="232.898142298"/>
<line stroke="#834" stroke-width="2" x1="935.627619629" y1="70.0" x2="960.844016166" y2="140.953722668"/>
<line stroke="#834" stroke-width="2" x1="891.581047201" y1="186.465525823" x2="923.556744267" y2="225.462082572"/>
<line stroke="#834" stroke-width="2" x1="883.320926121" y1="214.313754131" x2="901.806822811" y2="234.480186883"/>
<line stroke="#834" stroke-width="2" x1="877.692358519" y1="225.959996408" x2="891.451675206" y2="243.132986274"/>
<line stroke="#834" stroke-width="2" x1="876.900395202" y1="221.309113592" x2="895.580968773" y2="242.969987843"/>
<line stroke="#834" stroke-width="2" x1="969.146086324" y1="188.080551674" x2="978.090023291" y2="239.713051481"/>
<line stroke="#834" stroke-width="2" x1="900.054379914" y1="162.370393645" x2="1095.45026655" y2="235.080410299"/>
<line stroke="#834" stroke-width="2" x1="987.817172506" y1="134.985218711" x2="1140.0" y2="162.601822147"/>
<line stroke="#834" stroke-width="2" x1="876.900395202" y1="221.309113592" x2="880.688959264" y2="243.557830324"/>
<line stroke="#834" stroke-width="2" x1="889.691594088" y1="143.528554507" x2="1109.18866667" y2="191.619540159"/>
<line stroke="#834" stroke-width="2" x1="882.324260592" y1="225.387815566" x2="901.806822811" y2="234.480186883"/>
<line stroke="#834" stroke-width="2" x1="895.0099974" y1="84.4351843708" x2="880.688959264" y2="243.557830324"/>
<line stroke="#834" stroke-width="2" x1="987.817172506" y1="134.985218711" x2="978.090023291" y2="239.713051481"/>
<line stroke="#834" stroke-width="2" x1="960.844016166" y1="140.953722668" x2="889.691594088" y2="143.528554507"/>
<line stroke="#834" stroke-width="2" x1="935.627619629" y1="70.0" x2="895.0099974" y2="84.4351843708"/>
<line stroke="#834" stroke-width="2" x1="900.054379914" y1="162.370393645" x2="877.692358519" y2="225.959996408"/>
<line stroke="#834" stroke-width="2" x1="1140.0" y1="162.601822147" x2="1129.73996157" y2="219.14033391"/>
<line stroke="#834" stroke-width="2" x1="900.054379914" y1="162.370393645" x2="876.900395202" y2="221.309113592"/>
<line stroke="#834" stroke-width="2" x1="1109.18866667" y1="191.619540159" x2="1100.1446797" y2="232.898142298"/>
<line stroke="#834" stroke-width="2" x1="938.331144726" y1="176.613806108" x2="891.581047201" y2="186.465525823"/>
<line stroke="#834" stroke-width="2" x1="1095.45026655" y1="235.080410299" x2="880.688959264" y2="243.557830324"/>
<line stroke="#834" stroke-width="2" x1="960.844016166" y1="140.953722668" x2="891.451675206" y2="243.132986274"/>
<line stroke="#834" stroke-width="2" x1="1018.10473794" y1="189.683905302" x2="882.324260592" y2="225.387815566"/>
<line stroke="#834" stroke-width="2" x1="901.806822811" y1="234.480186883" x2="895.580968773" y2="242.969987843"/>
<line stroke="#834" stroke-width="2" x1="987.817172506" y1="134.985218711" x2="883.320926121" y2="214.313754131"/>
<line stroke="#834" stroke-width="2" x1="1018.10473794" y1="189.683905302" x2="986.120262933" y2="239.396068337"/>
<line stroke="#834" stroke-width="2" x1="969.146086324" y1="188.080551674" x2="923.556744267" y2="225.462082572"/>
<line stroke="#834" stroke-width="2" x1="1129.73996157" y1="219.14033391" x2="1095.45026655" y2="235.080410299"/>
</svg>
