<?xml version="1.0" encoding="iso-8859-1"?><svg version="1.1" xmlns="http://www.w3.org/2000/svg" xmlns:xlink="http://www.w3.org/1999/xlink" height="640" width="1210" viewBox="0 0 640 1210">
<polygon fill="none" stroke="#ff8a65" stroke-width="2" points="383.222059183,70.0 411.907433571,73.1345063549 473.1238204,263.00170601 459.043116319,288.988757516 334.049934959,282.799971751 288.920923178,258.347476238 339.037758399,138.692493861 358.445207246,121.232373639"/>
<line stroke="#834" stroke-width="2" x1="953.222059183" y1="70.0" x2="981.907433571" y2="73.1345063549"/>
<line stroke="#834" stroke-width="2" x1="894.616777702" y1="191.181160772" x2="1043.1238204" y2="263.00170601"/>
<line stroke="#834" stroke-width="2" x1="879.200280892" y1="209.930089562" x2="895.040507887" y2="217.398212187"/>
<line stroke="#834" stroke-width="2" x1="879.200280892" y1="209.930089562" x2="912.792237163" y2="222.296144014"/>
<line stroke="#834" stroke-width="2" x1="866.478105843" y1="240.304546059" x2="876.621355142" y2="248.750506856"/>
<line stroke="#834" stroke-width="2" x1="1008.0928541" y1="239.104390221" x2="1029.04311632" y2="288.988757516"/>
<line stroke="#834" stroke-width="2" x1="858.920923178" y1="258.347476238" x2="904.049934959" y2="282.799971751"/>
<line stroke="#834" stroke-width="2" x1="981.907433571" y1="73.1345063549" x2="1043.1238204" y2="263.00170601"/>
<line stroke="#834" stroke-width="2" x1="858.920923178" y1="258.347476238" x2="862.149645319" y2="259.334707218"/>
<line stroke="#834" stroke-width="2" x1="866.478105843" y1="240.304546059" x2="892.510081791" y2="242.888723035"/>
<line stroke="#834" stroke-width="2" x1="869.879387141" y1="232.183916495" x2="876.621355142" y2="248.750506856"/>
<line stroke="#834" stroke-width="2" x1="953.222059183" y1="70.0" x2="979.523015798" y2="180.940417717"/>
<line stroke="#834" stroke-width="2" x1="1014.02841334" y1="172.760126148" x2="979.523015798" y2="180.940417717"/>
<line stroke="#834" stroke-width="2" x1="904.049934959" y1="282.799971751" x2="1029.04311632" y2="288.988757516"/>
<line stroke="#834" stroke-width="2" x1="909.037758399" y1="138.692493861" x2="912.792237163" y2="222.296144014"/>
<line stroke="#834" stroke-width="2" x1="862.248935423" y1="250.401778055" x2="862.149645319" y2="259.334707218"/>
<line stroke="#834" stroke-width="2" x1="1014.02841334" y1="172.760126148" x2="869.879387141" y2="232.183916495"/>
<line stroke="#834" stroke-width="2" x1="895.040507887" y1="217.398212187" x2="892.510081791" y2="242.888723035"/>
<line stroke="#834" stroke-width="2" x1="981.907433571" y1="73.1345063549" x2="909.037758399" y2="138.692493861"/>
<line stroke="#834" stroke-width="2" x1="1008.0928541" y1="239.104390221" x2="904.049934959" y2="282.799971751"/>
<line stroke="#834" stroke-width="2" x1="912.792237163" y1="222.296144014" x2="862.149645319" y2="259.334707218"/>
<line stroke="#834" stroke-width="2" x1="909.037758399" y1="138.692493861" x2="858.920923178" y2="258.347476238"/>
<line stroke="#834" stroke-width="2" x1="953.222059183" y1="70.0" x2="894.616777702" y2="191.181160772"/>
<line stroke="#834" stroke-width="2" x1="895.040507887" y1="217.398212187" x2="862.248935423" y2="250.401778055"/>
<line stroke="#834" stroke-width="2" x1="1043.1238204" y1="263.00170601" x2="1029.04311632" y2="288.988757516"/>
</svg>
