<?xml version="1.0" encoding="iso-8859-1"?><svg version="1.1" xmlns="http://www.w3.org/2000/svg" xmlns:xlink="http://www.w3.org/1999/xlink" height="640" width="1210" viewBox="0 0 640 1210">
<polygon fill="none" stroke="#ff8a65" stroke-width="2" points="288.75,288.75 351.25,288.75 476.25,413.75 476.25,507.5 382.5,507.5 351.25,538.75 288.75,538.75 257.5,507.5 163.75,507.5 163.75,413.75"/>
<line stroke="#834" stroke-width="2" x1="921.25" y1="288.75" x2="1046.25" y2="413.75"/>
<line stroke="#834" stroke-width="2" x1="858.75" y1="288.75" x2="890.0" y2="320.0"/>
<line stroke="#834" stroke-width="2" x1="733.75" y1="413.75" x2="733.75" y2="507.5"/>
<line stroke="#834" stroke-width="2" x1="765.0" y1="445.0" x2="765.0" y2="507.5"/>
<line stroke="#834" stroke-width="2" x1="827.5" y1="320.0" x2="827.5" y2="507.5"/>
<line stroke="#834" stroke-width="2" x1="890.0" y1="320.0" x2="890.0" y2="538.75"/>
<line stroke="#834" stroke-width="2" x1="952.5" y1="320.0" x2="952.5" y2="507.5"/>
<line stroke="#834" stroke-width="2" x1="1015.0" y1="445.0" x2="1015.0" y2="507.5"/>
<line stroke="#834" stroke-width="2" x1="1046.25" y1="413.75" x2="1046.25" y2="507.5"/>
<line stroke="#834" stroke-width="2" x1="890.0" y1="507.5" x2="921.25" y2="538.75"/>
<line stroke="#834" stroke-width="2" x1="733.75" y1="413.75" x2="858.75" y2="538.75"/>
<line stroke="#834" stroke-width="2" x1="858.75" y1="288.75" x2="921.25" y2="288.75"/>
<line stroke="#834" stroke-width="2" x1="858.75" y1="288.75" x2="733.75" y2="413.75"/>
<line stroke="#834" stroke-width="2" x1="827.5" y1="320.0" x2="952.5" y2="320.0"/>
<line stroke="#834" stroke-width="2" x1="921.25" y1="288.75" x2="890.0" y2="320.0"/>
<line stroke="#834" stroke-width="2" x1="890.0" y1="507.5" x2="858.75" y2="538.75"/>
<line stroke="#834" stroke-width="2" x1="733.75" y1="445.0" x2="1046.25" y2="445.0"/>
<line stroke="#834" stroke-width="2" x1="1046.25" y1="413.75" x2="921.25" y2="538.75"/>
<line stroke="#834" stroke-width="2" x1="733.75" y1="507.5" x2="1046.25" y2="507.5"/>
<line stroke="#834" stroke-width="2" x1="858.75" y1="538.75" x2="921.25" y2="538.75"/>
</svg>
