<?xml version="1.0" encoding="iso-8859-1"?><svg version="1.1" xmlns="http://www.w3.org/2000/svg" xmlns:xlink="http://www.w3.org/1999/xlink" height="640" width="1210" viewBox="0 0 640 1210">
<polygon fill="none" stroke="#ff8a65" stroke-width="2" points="143.142922975,211.847744693 281.765113271,258.202730381 306.694000891,255.954577986 316.053756097,241.639658259 547.607634241,342.573400014 549.929128908,347.876245712 570.0,354.587905225 562.580604629,376.775223845 465.676312129,381.135917007 329.191566438,507.945273487 266.699148032,440.684764716 279.386057911,389.518978447 217.543843116,392.301878113 122.849507295,272.534156056"/>
<line stroke="#834" stroke-width="2" x1="1117.60763424" y1="342.573400014" x2="1132.58060463" y2="376.775223845"/>
<line stroke="#834" stroke-width="2" x1="911.659806613" y1="252.801270023" x2="1013.51695358" y2="384.387988477"/>
<line stroke="#834" stroke-width="2" x1="1085.57471938" y1="328.610334563" x2="1090.09078821" y2="378.687265584"/>
<line stroke="#834" stroke-width="2" x1="1090.09078821" y1="330.578877387" x2="1090.09078821" y2="378.687265584"/>
<line stroke="#834" stroke-width="2" x1="713.142922975" y1="211.847744693" x2="692.849507295" y2="272.534156056"/>
<line stroke="#834" stroke-width="2" x1="692.849507295" y1="272.534156056" x2="787.543843116" y2="392.301878113"/>
<line stroke="#834" stroke-width="2" x1="886.053756097" y1="241.639658259" x2="1117.60763424" y2="342.573400014"/>
<line stroke="#834" stroke-width="2" x1="886.053756097" y1="241.639658259" x2="836.699148032" y2="440.684764716"/>
<line stroke="#834" stroke-width="2" x1="836.699148032" y1="440.684764716" x2="899.191566438" y2="507.945273487"/>
<line stroke="#834" stroke-width="2" x1="713.142922975" y1="211.847744693" x2="1140.0" y2="354.587905225"/>
<line stroke="#834" stroke-width="2" x1="886.053756097" y1="241.639658259" x2="787.543843116" y2="392.301878113"/>
<line stroke="#834" stroke-width="2" x1="1140.0" y1="354.587905225" x2="1132.58060463" y2="376.775223845"/>
<line stroke="#834" stroke-width="2" x1="911.659806613" y1="252.801270023" x2="692.849507295" y2="272.534156056"/>
<line stroke="#834" stroke-width="2" x1="1132.58060463" y1="376.775223845" x2="787.543843116" y2="392.301878113"/>
<line stroke="#834" stroke-width="2" x1="1090.09078821" y1="330.578877387" x2="899.191566438" y2="507.945273487"/>
<line stroke="#834" stroke-width="2" x1="1085.57471938" y1="328.610334563" x2="1013.51695358" y2="384.387988477"/>
<line stroke="#834" stroke-width="2" x1="1117.60763424" y1="342.573400014" x2="836.699148032" y2="440.684764716"/>
</svg>
