<?xml version="1.0" encoding="iso-8859-1"?><svg version="1.1" xmlns="http://www.w3.org/2000/svg" xmlns:xlink="http://www.w3.org/1999/xlink" height="640" width="1210" viewBox="0 0 640 1210">
<polygon fill="none" stroke="#ff8a65" stroke-width="2" points="278.955223881,77.8125 358.043478261,77.8125 562.1875,282.871287129 544.025974026,421.19047619 541.014492754,432.31884058 422.564102564,562.1875 346.119402985,562.1875 179.195402299,492.535211268 77.8125,407.34939759 77.8125,173.260869565 129.701492537,127.971014493 225.405405405,86.8539325843"/>
<line stroke="#834" stroke-width="2" x1="928.043478261" y1="77.8125" x2="1132.1875" y2="282.871287129"/>
<line stroke="#834" stroke-width="2" x1="1113.71039461" y1="321.756467007" x2="1122.75024475" y2="354.74594649"/>
<line stroke="#834" stroke-width="2" x1="830.222158648" y1="80.9754191512" x2="834.634534046" y2="85.625"/>
<line stroke="#834" stroke-width="2" x1="823.073653262" y1="82.1823836445" x2="828.425451123" y2="84.9484847344"/>
<line stroke="#834" stroke-width="2" x1="825.620586409" y1="81.7523555884" x2="834.634534046" y2="85.625"/>
<line stroke="#834" stroke-width="2" x1="992.504565746" y1="476.41060773" x2="1026.89982393" y2="524.541916077"/>
<line stroke="#834" stroke-width="2" x1="992.504565746" y1="476.41060773" x2="999.689714528" y2="554.375"/>
<line stroke="#834" stroke-width="2" x1="984.919050937" y1="479.232808039" x2="992.564102564" y2="562.1875"/>
<line stroke="#834" stroke-width="2" x1="984.919050937" y1="479.232808039" x2="1021.5158609" y2="530.44487731"/>
<line stroke="#834" stroke-width="2" x1="1113.71039461" y1="321.756467007" x2="1114.02597403" y2="421.19047619"/>
<line stroke="#834" stroke-width="2" x1="647.8125" y1="173.260869565" x2="647.8125" y2="407.34939759"/>
<line stroke="#834" stroke-width="2" x1="655.625" y1="180.079791565" x2="655.625" y2="400.785034623"/>
<line stroke="#834" stroke-width="2" x1="928.043478261" y1="77.8125" x2="927.095833147" y2="289.766903296"/>
<line stroke="#834" stroke-width="2" x1="935.821126769" y1="85.625" x2="934.908255063" y2="289.801832523"/>
<line stroke="#834" stroke-width="2" x1="795.405405405" y1="86.8539325843" x2="818.252101972" y2="88.4846594937"/>
<line stroke="#834" stroke-width="2" x1="848.955223881" y1="77.8125" x2="928.043478261" y2="77.8125"/>
<line stroke="#834" stroke-width="2" x1="834.634534046" y1="85.625" x2="935.821126769" y2="85.625"/>
<line stroke="#834" stroke-width="2" x1="654.523692884" y1="167.403192663" x2="666.216435463" y2="183.656852981"/>
<line stroke="#834" stroke-width="2" x1="699.701492537" y1="127.971014493" x2="666.216435463" y2="183.656852981"/>
<line stroke="#834" stroke-width="2" x1="848.955223881" y1="77.8125" x2="795.405405405" y2="86.8539325843"/>
<line stroke="#834" stroke-width="2" x1="654.523692884" y1="167.403192663" x2="700.65555723" y2="211.181569671"/>
<line stroke="#834" stroke-width="2" x1="647.8125" y1="173.260869565" x2="655.625" y2="180.079791565"/>
<line stroke="#834" stroke-width="2" x1="699.701492537" y1="127.971014493" x2="647.8125" y2="173.260869565"/>
<line stroke="#834" stroke-width="2" x1="1132.1875" y1="282.871287129" x2="1114.02597403" y2="421.19047619"/>
<line stroke="#834" stroke-width="2" x1="795.405405405" y1="86.8539325843" x2="699.701492537" y2="127.971014493"/>
<line stroke="#834" stroke-width="2" x1="848.955223881" y1="77.8125" x2="818.252101972" y2="88.4846594937"/>
<line stroke="#834" stroke-width="2" x1="685.495269184" y1="392.82564016" x2="749.195402299" y2="492.535211268"/>
<line stroke="#834" stroke-width="2" x1="830.222158648" y1="80.9754191512" x2="828.425451123" y2="84.9484847344"/>
<line stroke="#834" stroke-width="2" x1="823.073653262" y1="82.1823836445" x2="700.65555723" y2="211.181569671"/>
<line stroke="#834" stroke-width="2" x1="825.620586409" y1="81.7523555884" x2="818.252101972" y2="88.4846594937"/>
<line stroke="#834" stroke-width="2" x1="727.446579747" y1="360.431395675" x2="927.110818434" y2="562.1875"/>
<line stroke="#834" stroke-width="2" x1="647.8125" y1="181.145756171" x2="666.216435463" y2="183.656852981"/>
<line stroke="#834" stroke-width="2" x1="655.625" y1="180.079791565" x2="647.8125" y2="181.145756171"/>
<line stroke="#834" stroke-width="2" x1="685.495269184" y1="392.82564016" x2="665.240189229" y2="421.992812346"/>
<line stroke="#834" stroke-width="2" x1="1125.81210098" y1="276.467320071" x2="1113.71039461" y2="321.756467007"/>
<line stroke="#834" stroke-width="2" x1="1114.02597403" y1="421.19047619" x2="1111.01449275" y2="432.31884058"/>
<line stroke="#834" stroke-width="2" x1="1024.43219095" y1="523.10083603" x2="1026.89982393" y2="524.541916077"/>
<line stroke="#834" stroke-width="2" x1="1020.49237928" y1="529.847171349" x2="1021.5158609" y2="530.44487731"/>
<line stroke="#834" stroke-width="2" x1="727.446579747" y1="360.431395675" x2="665.240189229" y2="421.992812346"/>
<line stroke="#834" stroke-width="2" x1="647.8125" y1="407.34939759" x2="749.195402299" y2="492.535211268"/>
<line stroke="#834" stroke-width="2" x1="655.625" y1="400.785034623" x2="647.8125" y2="407.34939759"/>
<line stroke="#834" stroke-width="2" x1="927.095833147" y1="289.766903296" x2="1072.65273218" y2="290.417686115"/>
<line stroke="#834" stroke-width="2" x1="1132.1875" y1="282.871287129" x2="1072.65273218" y2="290.417686115"/>
<line stroke="#834" stroke-width="2" x1="1122.75024475" y1="354.74594649" x2="1020.49237928" y2="529.847171349"/>
<line stroke="#834" stroke-width="2" x1="1125.81210098" y1="276.467320071" x2="1072.65273218" y2="290.417686115"/>
<line stroke="#834" stroke-width="2" x1="647.8125" y1="399.418238243" x2="655.625" y2="400.785034623"/>
<line stroke="#834" stroke-width="2" x1="685.495269184" y1="392.82564016" x2="647.8125" y2="399.418238243"/>
<line stroke="#834" stroke-width="2" x1="749.195402299" y1="492.535211268" x2="916.119402985" y2="562.1875"/>
<line stroke="#834" stroke-width="2" x1="934.842316174" y1="554.375" x2="927.110818434" y2="562.1875"/>
<line stroke="#834" stroke-width="2" x1="1111.01449275" y1="432.31884058" x2="992.564102564" y2="562.1875"/>
<line stroke="#834" stroke-width="2" x1="1111.01449275" y1="432.31884058" x2="984.919050937" y2="479.232808039"/>
<line stroke="#834" stroke-width="2" x1="934.842316174" y1="554.375" x2="999.689714528" y2="554.375"/>
<line stroke="#834" stroke-width="2" x1="916.119402985" y1="562.1875" x2="992.564102564" y2="562.1875"/>
<line stroke="#834" stroke-width="2" x1="934.842316174" y1="554.375" x2="916.119402985" y2="562.1875"/>
</svg>
