<?xml version="1.0" encoding="iso-8859-1"?><svg version="1.1" xmlns="http://www.w3.org/2000/svg" xmlns:xlink="http://www.w3.org/1999/xlink" height="640" width="1210" viewBox="0 0 640 1210">
<polygon fill="none" stroke="#ff8a65" stroke-width="2" points="134.285714286,70.0 212.857142857,84.2857142857 248.571428571,155.714285714 212.857142857,227.142857143 134.285714286,241.428571429 89.6839578385,200.090358136 84.0,203.714285714 82.9731379731,193.870573871 75.7142857143,187.142857143 82.02380248,184.770047419 75.7142857143,124.285714286"/>
<polygon fill="none" stroke="#ff8a65" stroke-width="2" points="170.0,96.7857142857 118.571428571,111.785714286 99.7142857143,161.928571429 108.039547674,174.986348372 109.142857143,174.571428571 111.109969168,179.802158273 114.114285714,184.514285714 113.120364193,185.147981409 118.571428571,199.642857143 170.0,214.642857143 212.857142857,182.5 212.857142857,128.928571429"/>
<line stroke="#834" stroke-width="2" x1="782.857142857" y1="84.2857142857" x2="818.571428571" y2="155.714285714"/>
<line stroke="#834" stroke-width="2" x1="704.285714286" y1="70.0" x2="818.571428571" y2="155.714285714"/>
<line stroke="#834" stroke-width="2" x1="704.285714286" y1="70.0" x2="782.857142857" y2="84.2857142857"/>
<line stroke="#834" stroke-width="2" x1="645.714285714" y1="124.285714286" x2="654.0" y2="203.714285714"/>
<line stroke="#834" stroke-width="2" x1="782.857142857" y1="84.2857142857" x2="782.857142857" y2="227.142857143"/>
<line stroke="#834" stroke-width="2" x1="679.142857143" y1="174.571428571" x2="704.285714286" y2="241.428571429"/>
<line stroke="#834" stroke-width="2" x1="645.714285714" y1="124.285714286" x2="684.114285714" y2="184.514285714"/>
<line stroke="#834" stroke-width="2" x1="704.285714286" y1="70.0" x2="654.0" y2="203.714285714"/>
<line stroke="#834" stroke-width="2" x1="704.285714286" y1="70.0" x2="645.714285714" y2="124.285714286"/>
<line stroke="#834" stroke-width="2" x1="782.857142857" y1="84.2857142857" x2="645.714285714" y2="124.285714286"/>
<line stroke="#834" stroke-width="2" x1="645.714285714" y1="187.142857143" x2="704.285714286" y2="241.428571429"/>
<line stroke="#834" stroke-width="2" x1="818.571428571" y1="155.714285714" x2="782.857142857" y2="227.142857143"/>
<line stroke="#834" stroke-width="2" x1="684.114285714" y1="184.514285714" x2="654.0" y2="203.714285714"/>
<line stroke="#834" stroke-width="2" x1="679.142857143" y1="174.571428571" x2="645.714285714" y2="187.142857143"/>
<line stroke="#834" stroke-width="2" x1="645.714285714" y1="187.142857143" x2="782.857142857" y2="227.142857143"/>
<line stroke="#834" stroke-width="2" x1="818.571428571" y1="155.714285714" x2="704.285714286" y2="241.428571429"/>
<line stroke="#834" stroke-width="2" x1="782.857142857" y1="227.142857143" x2="704.285714286" y2="241.428571429"/>
</svg>
