<?xml version="1.0" encoding="iso-8859-1"?><svg version="1.1" xmlns="http://www.w3.org/2000/svg" xmlns:xlink="http://www.w3.org/1999/xlink" height="640" width="1210" viewBox="0 0 640 1210">
<polygon fill="none" stroke="#ff8a65" stroke-width="2" points="460.886609075,70.0 538.226358274,70.0 538.226358274,378.095017238 556.056464903,449.124042624 538.226358274,453.59985657 538.226358274,538.226358274 201.103419925,538.226358274 178.802984776,543.824339302 180.313038808,546.883027623 169.152526469,570.0 136.782909392,554.372455662 144.887559653,475.126986438"/>
<line stroke="#834" stroke-width="2" x1="1030.88660908" y1="70.0" x2="1126.0564649" y2="449.124042624"/>
<line stroke="#834" stroke-width="2" x1="1030.88660908" y1="70.0" x2="1108.22635827" y2="70.0"/>
<line stroke="#834" stroke-width="2" x1="1108.22635827" y1="70.0" x2="1108.22635827" y2="538.226358274"/>
<line stroke="#834" stroke-width="2" x1="714.887559653" y1="475.126986438" x2="706.782909392" y2="554.372455662"/>
<line stroke="#834" stroke-width="2" x1="714.887559653" y1="475.126986438" x2="750.313038808" y2="546.883027623"/>
<line stroke="#834" stroke-width="2" x1="750.313038808" y1="546.883027623" x2="739.152526469" y2="570.0"/>
<line stroke="#834" stroke-width="2" x1="1030.88660908" y1="70.0" x2="714.887559653" y2="475.126986438"/>
<line stroke="#834" stroke-width="2" x1="706.782909392" y1="554.372455662" x2="739.152526469" y2="570.0"/>
<line stroke="#834" stroke-width="2" x1="708.434214806" y1="538.226358274" x2="750.313038808" y2="546.883027623"/>
<line stroke="#834" stroke-width="2" x1="708.434214806" y1="538.226358274" x2="1108.22635827" y2="538.226358274"/>
<line stroke="#834" stroke-width="2" x1="1126.0564649" y1="449.124042624" x2="706.782909392" y2="554.372455662"/>
</svg>
