<?xml version="1.0" encoding="iso-8859-1"?><svg version="1.1" xmlns="http://www.w3.org/2000/svg" xmlns:xlink="http://www.w3.org/1999/xlink" height="640" width="1210" viewBox="0 0 640 1210">
<polygon fill="none" stroke="#ff8a65" stroke-width="2" points="86.1901023389,70.0 112.230271133,72.6048872154 160.75257922,153.645081601 193.017520689,133.749058847 202.921628992,137.293398052 227.224245346,233.063708426 234.188887318,235.382330965 229.872599619,248.347528171 111.740784209,239.159498084 70.0,174.729610142 77.5368807811,156.503303731"/>
<line stroke="#834" stroke-width="2" x1="682.230271133" y1="72.6048872154" x2="640.0" y2="174.729610142"/>
<line stroke="#834" stroke-width="2" x1="656.190102339" y1="70.0" x2="682.230271133" y2="72.6048872154"/>
<line stroke="#834" stroke-width="2" x1="763.017520689" y1="133.749058847" x2="677.35221694" y2="186.574161111"/>
<line stroke="#834" stroke-width="2" x1="772.921628992" y1="137.293398052" x2="681.740784209" y2="239.159498084"/>
<line stroke="#834" stroke-width="2" x1="696.30346811" y1="177.075100374" x2="678.182447839" y2="186.904832932"/>
<line stroke="#834" stroke-width="2" x1="656.190102339" y1="70.0" x2="644.94940893" y2="182.36937707"/>
<line stroke="#834" stroke-width="2" x1="774.829420756" y1="144.81151078" x2="674.17090079" y2="174.623304517"/>
<line stroke="#834" stroke-width="2" x1="732.649417804" y1="175.985131604" x2="726.999508703" y2="242.6796211"/>
<line stroke="#834" stroke-width="2" x1="764.16696904" y1="147.073994718" x2="754.507601571" y2="244.819139434"/>
<line stroke="#834" stroke-width="2" x1="731.160606" y1="183.948290927" x2="726.999508703" y2="242.6796211"/>
<line stroke="#834" stroke-width="2" x1="774.829420756" y1="144.81151078" x2="764.16696904" y2="147.073994718"/>
<line stroke="#834" stroke-width="2" x1="804.188887318" y1="235.382330965" x2="799.872599619" y2="248.347528171"/>
<line stroke="#834" stroke-width="2" x1="758.294101062" y1="178.157576891" x2="754.507601571" y2="244.819139434"/>
<line stroke="#834" stroke-width="2" x1="797.578282917" y1="234.458878706" x2="786.848559135" y2="247.334547245"/>
<line stroke="#834" stroke-width="2" x1="782.377983225" y1="174.558438435" x2="708.09914718" y2="198.820324698"/>
<line stroke="#834" stroke-width="2" x1="797.476696805" y1="234.058554173" x2="799.872599619" y2="248.347528171"/>
<line stroke="#834" stroke-width="2" x1="772.921628992" y1="137.293398052" x2="797.578282917" y2="234.458878706"/>
<line stroke="#834" stroke-width="2" x1="782.377983225" y1="174.558438435" x2="731.160606" y2="183.948290927"/>
<line stroke="#834" stroke-width="2" x1="763.017520689" y1="133.749058847" x2="772.921628992" y2="137.293398052"/>
<line stroke="#834" stroke-width="2" x1="763.017520689" y1="133.749058847" x2="797.476696805" y2="234.058554173"/>
<line stroke="#834" stroke-width="2" x1="640.0" y1="174.729610142" x2="758.294101062" y2="178.157576891"/>
<line stroke="#834" stroke-width="2" x1="674.17090079" y1="174.623304517" x2="677.35221694" y2="186.574161111"/>
<line stroke="#834" stroke-width="2" x1="732.649417804" y1="175.985131604" x2="758.294101062" y2="178.157576891"/>
<line stroke="#834" stroke-width="2" x1="674.17090079" y1="174.623304517" x2="678.182447839" y2="186.904832932"/>
<line stroke="#834" stroke-width="2" x1="682.230271133" y1="72.6048872154" x2="786.848559135" y2="247.334547245"/>
<line stroke="#834" stroke-width="2" x1="696.30346811" y1="177.075100374" x2="708.09914718" y2="198.820324698"/>
<line stroke="#834" stroke-width="2" x1="644.94940893" y1="182.36937707" x2="804.188887318" y2="235.382330965"/>
<line stroke="#834" stroke-width="2" x1="677.35221694" y1="186.574161111" x2="797.578282917" y2="234.458878706"/>
<line stroke="#834" stroke-width="2" x1="640.0" y1="174.729610142" x2="681.740784209" y2="239.159498084"/>
<line stroke="#834" stroke-width="2" x1="681.740784209" y1="239.159498084" x2="799.872599619" y2="248.347528171"/>
</svg>
