<?xml version="1.0" encoding="iso-8859-1"?><svg version="1.1" xmlns="http://www.w3.org/2000/svg" xmlns:xlink="http://www.w3.org/1999/xlink" height="640" width="1210" viewBox="0 0 640 1210">
<polygon fill="none" stroke="#ff8a65" stroke-width="2" points="534.738897001,317.854248829 539.904329019,322.569495276 537.02742131,334.351511751 544.052591572,384.993788294 523.98184751,387.778031103 497.743392151,495.234350357 550.018671862,546.286593393 536.493725086,560.135551514 367.327639071,570.0 355.455011162,412.192987381"/>
<line stroke="#834" stroke-width="2" x1="1104.738897" y1="317.854248829" x2="1109.90432902" y2="322.569495276"/>
<line stroke="#834" stroke-width="2" x1="1104.738897" y1="317.854248829" x2="1114.05259157" y2="384.993788294"/>
<line stroke="#834" stroke-width="2" x1="985.664333004" y1="433.09900191" x2="998.626894429" y2="503.816217768"/>
<line stroke="#834" stroke-width="2" x1="933.855865328" y1="523.854340669" x2="934.372161187" y2="526.576144974"/>
<line stroke="#834" stroke-width="2" x1="925.455011162" y1="412.192987381" x2="937.327639071" y2="570.0"/>
<line stroke="#834" stroke-width="2" x1="1029.9816884" y1="357.937354521" x2="1090.40439987" y2="402.429021426"/>
<line stroke="#834" stroke-width="2" x1="1064.22706125" y1="491.80028782" x2="1120.01867186" y2="546.286593393"/>
<line stroke="#834" stroke-width="2" x1="938.271387401" y1="405.449041814" x2="933.855865328" y2="523.854340669"/>
<line stroke="#834" stroke-width="2" x1="972.094671957" y1="428.387314046" x2="986.922620129" y2="439.963583634"/>
<line stroke="#834" stroke-width="2" x1="931.44137951" y1="491.761800006" x2="1005.62157072" y2="566.017629854"/>
<line stroke="#834" stroke-width="2" x1="925.560874124" y1="413.600082586" x2="1106.49372509" y2="560.135551514"/>
<line stroke="#834" stroke-width="2" x1="938.271387401" y1="405.449041814" x2="1069.38293912" y2="488.519790373"/>
<line stroke="#834" stroke-width="2" x1="1109.90432902" y1="322.569495276" x2="1052.07053169" y2="559.420594333"/>
<line stroke="#834" stroke-width="2" x1="934.372161187" y1="526.576144974" x2="964.092969439" y2="549.194412713"/>
<line stroke="#834" stroke-width="2" x1="929.084838932" y1="460.439448163" x2="998.626894429" y2="503.816217768"/>
<line stroke="#834" stroke-width="2" x1="930.665210467" y1="481.445219806" x2="1052.07053169" y2="559.420594333"/>
<line stroke="#834" stroke-width="2" x1="925.455011162" y1="412.192987381" x2="985.664333004" y2="433.09900191"/>
<line stroke="#834" stroke-width="2" x1="986.922620129" y1="439.963583634" x2="934.372161187" y2="526.576144974"/>
<line stroke="#834" stroke-width="2" x1="1029.9816884" y1="357.937354521" x2="931.44137951" y2="491.761800006"/>
<line stroke="#834" stroke-width="2" x1="928.130449646" y1="410.78517825" x2="925.560874124" y2="413.600082586"/>
<line stroke="#834" stroke-width="2" x1="998.626894429" y1="503.816217768" x2="964.092969439" y2="549.194412713"/>
<line stroke="#834" stroke-width="2" x1="1109.90432902" y1="322.569495276" x2="1081.22972722" y2="330.224715984"/>
<line stroke="#834" stroke-width="2" x1="926.654484311" y1="428.135984654" x2="972.094671957" y2="428.387314046"/>
<line stroke="#834" stroke-width="2" x1="1081.22972722" y1="330.224715984" x2="929.084838932" y2="460.439448163"/>
<line stroke="#834" stroke-width="2" x1="1064.22706125" y1="491.80028782" x2="1005.62157072" y2="566.017629854"/>
<line stroke="#834" stroke-width="2" x1="1114.05259157" y1="384.993788294" x2="928.130449646" y2="410.78517825"/>
<line stroke="#834" stroke-width="2" x1="985.664333004" y1="433.09900191" x2="930.665210467" y2="481.445219806"/>
<line stroke="#834" stroke-width="2" x1="1104.738897" y1="317.854248829" x2="925.455011162" y2="412.192987381"/>
<line stroke="#834" stroke-width="2" x1="1090.40439987" y1="402.429021426" x2="926.654484311" y2="428.135984654"/>
<line stroke="#834" stroke-width="2" x1="1064.22706125" y1="491.80028782" x2="932.085595575" y2="500.324505205"/>
<line stroke="#834" stroke-width="2" x1="1069.38293912" y1="488.519790373" x2="932.085595575" y2="500.324505205"/>
<line stroke="#834" stroke-width="2" x1="1120.01867186" y1="546.286593393" x2="1106.49372509" y2="560.135551514"/>
<line stroke="#834" stroke-width="2" x1="1106.49372509" y1="560.135551514" x2="937.327639071" y2="570.0"/>
<line stroke="#834" stroke-width="2" x1="1052.07053169" y1="559.420594333" x2="937.327639071" y2="570.0"/>
</svg>
