<?xml version="1.0" encoding="iso-8859-1"?><svg version="1.1" xmlns="http://www.w3.org/2000/svg" xmlns:xlink="http://www.w3.org/1999/xlink" height="640" width="1210" viewBox="0 0 640 1210">
<polygon fill="none" stroke="#ff8a65" stroke-width="2" points="320.0,195.0 507.5,195.0 507.5,257.5 538.75,288.75 538.75,351.25 476.25,413.75 413.75,413.75 382.5,382.5 351.25,413.75 195.0,257.5 257.5,257.5"/>
<line stroke="#834" stroke-width="2" x1="1077.5" y1="257.5" x2="1108.75" y2="288.75"/>
<line stroke="#834" stroke-width="2" x1="890.0" y1="195.0" x2="921.25" y2="226.25"/>
<line stroke="#834" stroke-width="2" x1="827.5" y1="257.5" x2="983.75" y2="413.75"/>
<line stroke="#834" stroke-width="2" x1="827.5" y1="257.5" x2="827.5" y2="320.0"/>
<line stroke="#834" stroke-width="2" x1="890.0" y1="320.0" x2="890.0" y2="382.5"/>
<line stroke="#834" stroke-width="2" x1="952.5" y1="195.0" x2="952.5" y2="382.5"/>
<line stroke="#834" stroke-width="2" x1="1015.0" y1="257.5" x2="1015.0" y2="413.75"/>
<line stroke="#834" stroke-width="2" x1="1046.25" y1="351.25" x2="1046.25" y2="413.75"/>
<line stroke="#834" stroke-width="2" x1="1077.5" y1="195.0" x2="1077.5" y2="257.5"/>
<line stroke="#834" stroke-width="2" x1="1077.5" y1="320.0" x2="1077.5" y2="382.5"/>
<line stroke="#834" stroke-width="2" x1="1108.75" y1="288.75" x2="1108.75" y2="351.25"/>
<line stroke="#834" stroke-width="2" x1="765.0" y1="257.5" x2="921.25" y2="413.75"/>
<line stroke="#834" stroke-width="2" x1="890.0" y1="195.0" x2="1077.5" y2="195.0"/>
<line stroke="#834" stroke-width="2" x1="921.25" y1="226.25" x2="1077.5" y2="226.25"/>
<line stroke="#834" stroke-width="2" x1="765.0" y1="257.5" x2="1077.5" y2="257.5"/>
<line stroke="#834" stroke-width="2" x1="890.0" y1="195.0" x2="796.25" y2="288.75"/>
<line stroke="#834" stroke-width="2" x1="952.5" y1="195.0" x2="921.25" y2="226.25"/>
<line stroke="#834" stroke-width="2" x1="827.5" y1="320.0" x2="1108.75" y2="320.0"/>
<line stroke="#834" stroke-width="2" x1="1046.25" y1="351.25" x2="1108.75" y2="351.25"/>
<line stroke="#834" stroke-width="2" x1="890.0" y1="382.5" x2="952.5" y2="382.5"/>
<line stroke="#834" stroke-width="2" x1="1015.0" y1="382.5" x2="1077.5" y2="382.5"/>
<line stroke="#834" stroke-width="2" x1="1077.5" y1="257.5" x2="921.25" y2="413.75"/>
<line stroke="#834" stroke-width="2" x1="983.75" y1="413.75" x2="1046.25" y2="413.75"/>
<line stroke="#834" stroke-width="2" x1="1108.75" y1="288.75" x2="1077.5" y2="320.0"/>
<line stroke="#834" stroke-width="2" x1="1015.0" y1="382.5" x2="983.75" y2="413.75"/>
<line stroke="#834" stroke-width="2" x1="1108.75" y1="351.25" x2="1046.25" y2="413.75"/>
</svg>
