<?xml version="1.0" encoding="iso-8859-1"?><svg version="1.1" xmlns="http://www.w3.org/2000/svg" xmlns:xlink="http://www.w3.org/1999/xlink" height="640" width="1210" viewBox="0 0 640 1210">
<polygon fill="none" stroke="#ff8a65" stroke-width="2" points="94.1255841138,311.410795197 489.096612621,447.957922195 489.096612621,457.31810985 481.746202416,457.31810985 458.69575229,486.671102768 454.586666431,512.877642771 439.921837682,510.578253366 393.258861576,570.0 262.342385172,482.734470213 160.575492324,466.777808243 83.5646376488,378.7654029 85.7223522568,365.004134302 70.0,354.524021815"/>
<line stroke="#834" stroke-width="2" x1="728.566628548" y1="377.085561136" x2="730.575492324" y2="466.777808243"/>
<line stroke="#834" stroke-width="2" x1="671.778502771" y1="314.056518504" x2="671.778502771" y2="399.581248755"/>
<line stroke="#834" stroke-width="2" x1="1059.09661262" y1="447.957922195" x2="1059.09661262" y2="457.31810985"/>
<line stroke="#834" stroke-width="2" x1="664.125584114" y1="311.410795197" x2="653.564637649" y2="378.7654029"/>
<line stroke="#834" stroke-width="2" x1="729.004418193" y1="407.245433856" x2="722.29825623" y2="457.31810985"/>
<line stroke="#834" stroke-width="2" x1="664.125584114" y1="311.410795197" x2="640.0" y2="354.524021815"/>
<line stroke="#834" stroke-width="2" x1="1036.01690624" y1="439.978937991" x2="1024.58666643" y2="512.877642771"/>
<line stroke="#834" stroke-width="2" x1="671.778502771" y1="314.056518504" x2="640.0" y2="354.524021815"/>
<line stroke="#834" stroke-width="2" x1="653.564637649" y1="378.7654029" x2="730.575492324" y2="466.777808243"/>
<line stroke="#834" stroke-width="2" x1="640.0" y1="354.524021815" x2="963.258861576" y2="570.0"/>
<line stroke="#834" stroke-width="2" x1="664.125584114" y1="311.410795197" x2="1059.09661262" y2="447.957922195"/>
<line stroke="#834" stroke-width="2" x1="1036.01690624" y1="439.978937991" x2="963.258861576" y2="570.0"/>
<line stroke="#834" stroke-width="2" x1="728.566628548" y1="377.085561136" x2="653.564637649" y2="378.7654029"/>
<line stroke="#834" stroke-width="2" x1="671.778502771" y1="399.581248755" x2="729.004418193" y2="407.245433856"/>
<line stroke="#834" stroke-width="2" x1="1059.09661262" y1="447.957922195" x2="963.258861576" y2="570.0"/>
<line stroke="#834" stroke-width="2" x1="730.575492324" y1="466.777808243" x2="1024.58666643" y2="512.877642771"/>
<line stroke="#834" stroke-width="2" x1="722.29825623" y1="457.31810985" x2="1059.09661262" y2="457.31810985"/>
</svg>
