<?xml version="1.0" encoding="iso-8859-1"?><svg version="1.1" xmlns="http://www.w3.org/2000/svg" xmlns:xlink="http://www.w3.org/1999/xlink" height="640" width="1210" viewBox="0 0 640 1210">
<polygon fill="none" stroke="#ff8a65" stroke-width="2" points="168.847390695,70.0 183.133605056,70.0 220.836152389,122.203527076 316.168441428,486.199539769 176.993651451,564.469476433 171.957287272,570.0 170.125596775,568.331973402 179.461431281,486.199539769 70.0,486.199539769 70.0,179.830434106"/>
<line stroke="#834" stroke-width="2" x1="753.133605056" y1="70.0" x2="790.836152389" y2="122.203527076"/>
<line stroke="#834" stroke-width="2" x1="790.836152389" y1="122.203527076" x2="886.168441428" y2="486.199539769"/>
<line stroke="#834" stroke-width="2" x1="738.847390695" y1="70.0" x2="749.223636127" y2="168.301272515"/>
<line stroke="#834" stroke-width="2" x1="738.847390695" y1="70.0" x2="753.133605056" y2="70.0"/>
<line stroke="#834" stroke-width="2" x1="640.0" y1="179.830434106" x2="640.0" y2="486.199539769"/>
<line stroke="#834" stroke-width="2" x1="790.836152389" y1="122.203527076" x2="740.125596775" y2="568.331973402"/>
<line stroke="#834" stroke-width="2" x1="753.133605056" y1="70.0" x2="657.849183392" y2="357.697479606"/>
<line stroke="#834" stroke-width="2" x1="738.847390695" y1="70.0" x2="640.0" y2="179.830434106"/>
<line stroke="#834" stroke-width="2" x1="749.223636127" y1="168.301272515" x2="640.0" y2="179.830434106"/>
<line stroke="#834" stroke-width="2" x1="740.125596775" y1="568.331973402" x2="741.957287272" y2="570.0"/>
<line stroke="#834" stroke-width="2" x1="657.849183392" y1="357.697479606" x2="871.002474586" y2="428.29312092"/>
<line stroke="#834" stroke-width="2" x1="871.002474586" y1="428.29312092" x2="741.957287272" y2="570.0"/>
<line stroke="#834" stroke-width="2" x1="640.0" y1="486.199539769" x2="886.168441428" y2="486.199539769"/>
<line stroke="#834" stroke-width="2" x1="886.168441428" y1="486.199539769" x2="740.125596775" y2="568.331973402"/>
</svg>
