<?xml version="1.0" encoding="iso-8859-1"?><svg version="1.1" xmlns="http://www.w3.org/2000/svg" xmlns:xlink="http://www.w3.org/1999/xlink" height="640" width="1210" viewBox="0 0 640 1210">
<polygon fill="none" stroke="#ff8a65" stroke-width="2" points="347.777777778,70.0 403.333333333,70.0 403.333333333,125.555555556 375.555555556,153.333333333 403.333333333,181.111111111 403.333333333,292.222222222 375.555555556,320.0 403.333333333,347.777777778 403.333333333,458.888888889 375.555555556,486.666666667 403.333333333,514.444444444 403.333333333,570.0 347.777777778,570.0 320.0,542.222222222 320.0,431.111111111 347.777777778,403.333333333 320.0,375.555555556 320.0,264.444444444 347.777777778,236.666666667 320.0,208.888888889 320.0,97.7777777778"/>
<line stroke="#834" stroke-width="2" x1="890.0" y1="97.7777777778" x2="973.333333333" y2="181.111111111"/>
<line stroke="#834" stroke-width="2" x1="890.0" y1="208.888888889" x2="973.333333333" y2="292.222222222"/>
<line stroke="#834" stroke-width="2" x1="890.0" y1="264.444444444" x2="973.333333333" y2="347.777777778"/>
<line stroke="#834" stroke-width="2" x1="917.777777778" y1="70.0" x2="973.333333333" y2="70.0"/>
<line stroke="#834" stroke-width="2" x1="890.0" y1="97.7777777778" x2="890.0" y2="208.888888889"/>
<line stroke="#834" stroke-width="2" x1="890.0" y1="264.444444444" x2="890.0" y2="375.555555556"/>
<line stroke="#834" stroke-width="2" x1="890.0" y1="431.111111111" x2="890.0" y2="542.222222222"/>
<line stroke="#834" stroke-width="2" x1="917.777777778" y1="70.0" x2="917.777777778" y2="570.0"/>
<line stroke="#834" stroke-width="2" x1="973.333333333" y1="70.0" x2="973.333333333" y2="125.555555556"/>
<line stroke="#834" stroke-width="2" x1="973.333333333" y1="181.111111111" x2="973.333333333" y2="292.222222222"/>
<line stroke="#834" stroke-width="2" x1="973.333333333" y1="347.777777778" x2="973.333333333" y2="458.888888889"/>
<line stroke="#834" stroke-width="2" x1="973.333333333" y1="514.444444444" x2="973.333333333" y2="570.0"/>
<line stroke="#834" stroke-width="2" x1="890.0" y1="375.555555556" x2="973.333333333" y2="458.888888889"/>
<line stroke="#834" stroke-width="2" x1="890.0" y1="431.111111111" x2="973.333333333" y2="514.444444444"/>
<line stroke="#834" stroke-width="2" x1="890.0" y1="125.555555556" x2="973.333333333" y2="125.555555556"/>
<line stroke="#834" stroke-width="2" x1="890.0" y1="542.222222222" x2="917.777777778" y2="570.0"/>
<line stroke="#834" stroke-width="2" x1="890.0" y1="181.111111111" x2="973.333333333" y2="181.111111111"/>
<line stroke="#834" stroke-width="2" x1="917.777777778" y1="70.0" x2="890.0" y2="97.7777777778"/>
<line stroke="#834" stroke-width="2" x1="917.777777778" y1="236.666666667" x2="973.333333333" y2="236.666666667"/>
<line stroke="#834" stroke-width="2" x1="973.333333333" y1="125.555555556" x2="890.0" y2="208.888888889"/>
<line stroke="#834" stroke-width="2" x1="890.0" y1="292.222222222" x2="973.333333333" y2="292.222222222"/>
<line stroke="#834" stroke-width="2" x1="973.333333333" y1="181.111111111" x2="890.0" y2="264.444444444"/>
<line stroke="#834" stroke-width="2" x1="890.0" y1="347.777777778" x2="973.333333333" y2="347.777777778"/>
<line stroke="#834" stroke-width="2" x1="973.333333333" y1="292.222222222" x2="890.0" y2="375.555555556"/>
<line stroke="#834" stroke-width="2" x1="973.333333333" y1="347.777777778" x2="890.0" y2="431.111111111"/>
<line stroke="#834" stroke-width="2" x1="917.777777778" y1="403.333333333" x2="973.333333333" y2="403.333333333"/>
<line stroke="#834" stroke-width="2" x1="973.333333333" y1="458.888888889" x2="890.0" y2="542.222222222"/>
<line stroke="#834" stroke-width="2" x1="890.0" y1="458.888888889" x2="973.333333333" y2="458.888888889"/>
<line stroke="#834" stroke-width="2" x1="890.0" y1="514.444444444" x2="973.333333333" y2="514.444444444"/>
<line stroke="#834" stroke-width="2" x1="917.777777778" y1="570.0" x2="973.333333333" y2="570.0"/>
</svg>
