<?xml version="1.0" encoding="iso-8859-1"?><svg version="1.1" xmlns="http://www.w3.org/2000/svg" xmlns:xlink="http://www.w3.org/1999/xlink" height="640" width="1210" viewBox="0 0 640 1210">
<polygon fill="none" stroke="#ff8a65" stroke-width="2" points="217.496896224,153.301041781 570.0,236.619957219 566.716276223,266.247540169 555.225560365,276.619081714 467.870222423,513.117867719 403.038165534,530.0332575 308.829649447,353.753898418 343.92724526,334.99678223 326.616211184,310.11872741 258.23552662,328.534834602 211.867618531,156.36656561"/>
<line stroke="#834" stroke-width="2" x1="1110.88361879" y1="229.737903478" x2="1136.71627622" y2="266.247540169"/>
<line stroke="#834" stroke-width="2" x1="1015.1525005" y1="237.36956816" x2="1076.12474001" y2="400.388459331"/>
<line stroke="#834" stroke-width="2" x1="1037.46846451" y1="212.385230648" x2="1052.5825871" y2="268.114270806"/>
<line stroke="#834" stroke-width="2" x1="987.643281137" y1="430.26115203" x2="997.25919783" y2="454.754901549"/>
<line stroke="#834" stroke-width="2" x1="787.496896224" y1="153.301041781" x2="1037.87022242" y2="513.117867719"/>
<line stroke="#834" stroke-width="2" x1="878.829649447" y1="353.753898418" x2="973.038165534" y2="530.0332575"/>
<line stroke="#834" stroke-width="2" x1="781.867618531" y1="156.36656561" x2="995.827271557" y2="393.414218306"/>
<line stroke="#834" stroke-width="2" x1="781.867618531" y1="156.36656561" x2="828.23552662" y2="328.534834602"/>
<line stroke="#834" stroke-width="2" x1="1078.96329793" y1="222.193100366" x2="1087.8755195" y2="377.737565491"/>
<line stroke="#834" stroke-width="2" x1="972.409953987" y1="498.040384815" x2="973.038165534" y2="530.0332575"/>
<line stroke="#834" stroke-width="2" x1="997.25919783" y1="454.754901549" x2="1044.00525022" y2="496.508388992"/>
<line stroke="#834" stroke-width="2" x1="787.496896224" y1="153.301041781" x2="1140.0" y2="236.619957219"/>
<line stroke="#834" stroke-width="2" x1="1140.0" y1="236.619957219" x2="1136.71627622" y2="266.247540169"/>
<line stroke="#834" stroke-width="2" x1="1015.1525005" y1="237.36956816" x2="979.212291904" y2="428.819309659"/>
<line stroke="#834" stroke-width="2" x1="787.496896224" y1="153.301041781" x2="781.867618531" y2="156.36656561"/>
<line stroke="#834" stroke-width="2" x1="1140.0" y1="236.619957219" x2="1037.87022242" y2="513.117867719"/>
<line stroke="#834" stroke-width="2" x1="1078.96329793" y1="222.193100366" x2="1052.5825871" y2="268.114270806"/>
<line stroke="#834" stroke-width="2" x1="1037.46846451" y1="212.385230648" x2="1015.1525005" y2="237.36956816"/>
<line stroke="#834" stroke-width="2" x1="1052.5825871" y1="268.114270806" x2="828.23552662" y2="328.534834602"/>
<line stroke="#834" stroke-width="2" x1="979.212291904" y1="428.819309659" x2="987.643281137" y2="430.26115203"/>
<line stroke="#834" stroke-width="2" x1="1110.88361879" y1="229.737903478" x2="878.829649447" y2="353.753898418"/>
<line stroke="#834" stroke-width="2" x1="987.643281137" y1="430.26115203" x2="983.527965569" y2="435.021455965"/>
<line stroke="#834" stroke-width="2" x1="1136.71627622" y1="266.247540169" x2="995.827271557" y2="393.414218306"/>
<line stroke="#834" stroke-width="2" x1="1087.8755195" y1="377.737565491" x2="972.409953987" y2="498.040384815"/>
<line stroke="#834" stroke-width="2" x1="1076.12474001" y1="400.388459331" x2="983.527965569" y2="435.021455965"/>
<line stroke="#834" stroke-width="2" x1="1044.00525022" y1="496.508388992" x2="972.409953987" y2="498.040384815"/>
<line stroke="#834" stroke-width="2" x1="1037.87022242" y1="513.117867719" x2="973.038165534" y2="530.0332575"/>
</svg>
