<?xml version="1.0" encoding="iso-8859-1"?><svg version="1.1" xmlns="http://www.w3.org/2000/svg" xmlns:xlink="http://www.w3.org/1999/xlink" height="640" width="1210" viewBox="0 0 640 1210">
<polygon fill="none" stroke="#ff8a65" stroke-width="2" points="501.783363399,253.821587634 570.0,356.549830872 472.163577868,421.518056207 471.962483246,422.656580925 74.8956450336,414.885468527 70.0,379.026642517 81.5067709489,377.455674577 87.0683413281,345.968082901 147.436056784,327.749968772 212.122201563,314.254333625 249.218799537,262.872610745 296.114949277,296.730712731"/>
<line stroke="#834" stroke-width="2" x1="1071.7833634" y1="253.821587634" x2="1140.0" y2="356.549830872"/>
<line stroke="#834" stroke-width="2" x1="1028.75970577" y1="325.951019732" x2="1041.96248325" y2="422.656580925"/>
<line stroke="#834" stroke-width="2" x1="661.157287572" y1="344.734097338" x2="661.157287572" y2="350.261476457"/>
<line stroke="#834" stroke-width="2" x1="657.068341328" y1="345.968082901" x2="644.895645034" y2="414.885468527"/>
<line stroke="#834" stroke-width="2" x1="640.0" y1="379.026642517" x2="644.895645034" y2="414.885468527"/>
<line stroke="#834" stroke-width="2" x1="819.218799537" y1="262.872610745" x2="1040.49238758" y2="422.627809248"/>
<line stroke="#834" stroke-width="2" x1="1071.7833634" y1="253.821587634" x2="1041.96248325" y2="422.656580925"/>
<line stroke="#834" stroke-width="2" x1="661.157287572" y1="344.734097338" x2="708.568784973" y2="416.13163436"/>
<line stroke="#834" stroke-width="2" x1="657.068341328" y1="345.968082901" x2="661.157287572" y2="350.261476457"/>
<line stroke="#834" stroke-width="2" x1="819.218799537" y1="262.872610745" x2="708.568784973" y2="416.13163436"/>
<line stroke="#834" stroke-width="2" x1="717.436056784" y1="327.749968772" x2="661.157287572" y2="350.261476457"/>
<line stroke="#834" stroke-width="2" x1="717.436056784" y1="327.749968772" x2="657.068341328" y2="345.968082901"/>
<line stroke="#834" stroke-width="2" x1="1071.7833634" y1="253.821587634" x2="717.436056784" y2="327.749968772"/>
<line stroke="#834" stroke-width="2" x1="1028.75970577" y1="325.951019732" x2="640.0" y2="379.026642517"/>
<line stroke="#834" stroke-width="2" x1="644.895645034" y1="414.885468527" x2="1041.96248325" y2="422.656580925"/>
<line stroke="#834" stroke-width="2" x1="1140.0" y1="356.549830872" x2="1040.49238758" y2="422.627809248"/>
</svg>
