<?xml version="1.0" encoding="iso-8859-1"?><svg version="1.1" xmlns="http://www.w3.org/2000/svg" xmlns:xlink="http://www.w3.org/1999/xlink" height="640" width="1210" viewBox="0 0 640 1210">
<polygon fill="none" stroke="#ff8a65" stroke-width="2" points="92.7219094495,107.869849082 524.982327605,251.956655134 570.0,326.042881704 490.355324815,374.43808364 419.661471927,334.67279139 388.106732293,376.745777568 327.357182723,331.183615391 236.368877052,367.660384991 176.338536224,217.919630516 70.0,138.165728348"/>
<line stroke="#834" stroke-width="2" x1="1094.9823276" y1="251.956655134" x2="1140.0" y2="326.042881704"/>
<line stroke="#834" stroke-width="2" x1="708.312456546" y1="123.066698115" x2="806.368877052" y2="367.660384991"/>
<line stroke="#834" stroke-width="2" x1="662.721909449" y1="107.869849082" x2="662.721909449" y2="150.769287496"/>
<line stroke="#834" stroke-width="2" x1="1060.35532482" y1="240.414320871" x2="1060.35532482" y2="374.43808364"/>
<line stroke="#834" stroke-width="2" x1="662.721909449" y1="107.869849082" x2="640.0" y2="138.165728348"/>
<line stroke="#834" stroke-width="2" x1="662.721909449" y1="107.869849082" x2="1094.9823276" y2="251.956655134"/>
<line stroke="#834" stroke-width="2" x1="640.0" y1="138.165728348" x2="958.106732293" y2="376.745777568"/>
<line stroke="#834" stroke-width="2" x1="708.312456546" y1="123.066698115" x2="662.721909449" y2="150.769287496"/>
<line stroke="#834" stroke-width="2" x1="662.721909449" y1="150.769287496" x2="1060.35532482" y2="374.43808364"/>
<line stroke="#834" stroke-width="2" x1="1060.35532482" y1="240.414320871" x2="958.106732293" y2="376.745777568"/>
<line stroke="#834" stroke-width="2" x1="1094.9823276" y1="251.956655134" x2="806.368877052" y2="367.660384991"/>
<line stroke="#834" stroke-width="2" x1="1140.0" y1="326.042881704" x2="1060.35532482" y2="374.43808364"/>
</svg>
