<?xml version="1.0" encoding="iso-8859-1"?><svg version="1.1" xmlns="http://www.w3.org/2000/svg" xmlns:xlink="http://www.w3.org/1999/xlink" height="640" width="1210" viewBox="0 0 640 1210">
<polygon fill="none" stroke="#ff8a65" stroke-width="2" points="180.294117647,77.8125 418.684210526,77.8125 562.1875,139.230769231 562.1875,299.591836735 559.247311828,324.62962963 485.384615385,520.704225352 353.950617284,562.1875 216.666666667,562.1875 77.8125,496.136363636 77.8125,134.285714286"/>
<line stroke="#834" stroke-width="2" x1="1124.375" y1="142.57445724" x2="1132.1875" y2="150.029534777"/>
<line stroke="#834" stroke-width="2" x1="977.88544498" y1="77.8125" x2="1087.49511463" y2="192.677240155"/>
<line stroke="#834" stroke-width="2" x1="1125.39977722" y1="294.371231266" x2="1131.45657772" y2="305.816159663"/>
<line stroke="#834" stroke-width="2" x1="988.684210526" y1="77.8125" x2="1132.1875" y2="139.230769231"/>
<line stroke="#834" stroke-width="2" x1="1124.375" y1="233.062844185" x2="1132.1875" y2="265.868629499"/>
<line stroke="#834" stroke-width="2" x1="1018.77522327" y1="495.707845246" x2="1020.85023836" y2="503.794306842"/>
<line stroke="#834" stroke-width="2" x1="1125.39977722" y1="294.371231266" x2="1129.24731183" y2="324.62962963"/>
<line stroke="#834" stroke-width="2" x1="1124.375" y1="233.062844185" x2="1132.1875" y2="299.591836735"/>
<line stroke="#834" stroke-width="2" x1="647.8125" y1="134.285714286" x2="647.8125" y2="496.136363636"/>
<line stroke="#834" stroke-width="2" x1="655.625" y1="129.980581358" x2="655.625" y2="492.42005814"/>
<line stroke="#834" stroke-width="2" x1="1124.375" y1="142.57445724" x2="1124.375" y2="233.062844185"/>
<line stroke="#834" stroke-width="2" x1="1132.1875" y1="139.230769231" x2="1132.1875" y2="299.591836735"/>
<line stroke="#834" stroke-width="2" x1="750.294117647" y1="77.8125" x2="988.684210526" y2="77.8125"/>
<line stroke="#834" stroke-width="2" x1="736.116818763" y1="85.625" x2="970.430367443" y2="85.625"/>
<line stroke="#834" stroke-width="2" x1="655.625" y1="129.980581358" x2="699.72776091" y2="157.845526948"/>
<line stroke="#834" stroke-width="2" x1="647.8125" y1="134.285714286" x2="695.55480914" y2="164.45019422"/>
<line stroke="#834" stroke-width="2" x1="736.116818763" y1="85.625" x2="688.950141868" y2="160.27724245"/>
<line stroke="#834" stroke-width="2" x1="750.294117647" y1="77.8125" x2="695.55480914" y2="164.45019422"/>
<line stroke="#834" stroke-width="2" x1="750.294117647" y1="77.8125" x2="647.8125" y2="134.285714286"/>
<line stroke="#834" stroke-width="2" x1="1132.1875" y1="299.591836735" x2="1129.24731183" y2="324.62962963"/>
<line stroke="#834" stroke-width="2" x1="959.275404116" y1="501.919757802" x2="1000.4258741" y2="538.050335126"/>
<line stroke="#834" stroke-width="2" x1="1009.0796425" y1="502.505225057" x2="1000.4258741" y2="538.050335126"/>
<line stroke="#834" stroke-width="2" x1="1018.77522327" y1="495.707845246" x2="1055.38461538" y2="520.704225352"/>
<line stroke="#834" stroke-width="2" x1="700.188262701" y1="443.470896634" x2="796.736624971" y2="562.1875"/>
<line stroke="#834" stroke-width="2" x1="1132.1875" y1="265.868629499" x2="1125.39977722" y2="294.371231266"/>
<line stroke="#834" stroke-width="2" x1="988.684210526" y1="77.8125" x2="970.430367443" y2="85.625"/>
<line stroke="#834" stroke-width="2" x1="977.88544498" y1="77.8125" x2="970.430367443" y2="85.625"/>
<line stroke="#834" stroke-width="2" x1="1129.24731183" y1="324.62962963" x2="1055.38461538" y2="520.704225352"/>
<line stroke="#834" stroke-width="2" x1="1132.1875" y1="139.230769231" x2="1124.375" y2="142.57445724"/>
<line stroke="#834" stroke-width="2" x1="647.8125" y1="486.066405332" x2="655.625" y2="492.42005814"/>
<line stroke="#834" stroke-width="2" x1="700.188262701" y1="443.470896634" x2="647.8125" y2="486.066405332"/>
<line stroke="#834" stroke-width="2" x1="803.090277778" y1="554.375" x2="796.736624971" y2="562.1875"/>
<line stroke="#834" stroke-width="2" x1="1132.1875" y1="150.029534777" x2="1087.49511463" y2="192.677240155"/>
<line stroke="#834" stroke-width="2" x1="647.8125" y1="496.136363636" x2="786.666666667" y2="562.1875"/>
<line stroke="#834" stroke-width="2" x1="1131.45657772" y1="305.816159663" x2="959.275404116" y2="501.919757802"/>
<line stroke="#834" stroke-width="2" x1="655.625" y1="492.42005814" x2="647.8125" y2="496.136363636"/>
<line stroke="#834" stroke-width="2" x1="1009.0796425" y1="502.505225057" x2="1020.85023836" y2="503.794306842"/>
<line stroke="#834" stroke-width="2" x1="803.090277778" y1="554.375" x2="786.666666667" y2="562.1875"/>
<line stroke="#834" stroke-width="2" x1="1018.77522327" y1="495.707845246" x2="923.950617284" y2="562.1875"/>
<line stroke="#834" stroke-width="2" x1="1020.85023836" y1="503.794306842" x2="948.703439207" y2="554.375"/>
<line stroke="#834" stroke-width="2" x1="803.090277778" y1="554.375" x2="948.703439207" y2="554.375"/>
<line stroke="#834" stroke-width="2" x1="786.666666667" y1="562.1875" x2="923.950617284" y2="562.1875"/>
<line stroke="#834" stroke-width="2" x1="1055.38461538" y1="520.704225352" x2="923.950617284" y2="562.1875"/>
</svg>
