<?xml version="1.0" encoding="iso-8859-1"?><svg version="1.1" xmlns="http://www.w3.org/2000/svg" xmlns:xlink="http://www.w3.org/1999/xlink" height="640" width="1210" viewBox="0 0 640 1210">
<polygon fill="none" stroke="#ff8a65" stroke-width="2" points="129.39521408,308.290818753 262.367892915,314.939452695 366.203570549,373.345473192 288.414921415,511.640070669 304.259202726,522.705711602 303.788571352,538.139756563 321.780965973,567.062869869 320.682489117,570.0 309.550809529,565.836789023 302.964138989,565.176471174 204.676186035,453.156965016 156.844404015,361.112378579 115.204156496,379.332512148 102.268734982,349.769932295"/>
<line stroke="#834" stroke-width="2" x1="858.918517877" y1="511.991782274" x2="870.609366018" y2="562.492719022"/>
<line stroke="#834" stroke-width="2" x1="692.81719766" y1="318.349267141" x2="701.107643106" y2="349.769932295"/>
<line stroke="#834" stroke-width="2" x1="874.259202726" y1="522.705711602" x2="872.964138989" y2="565.176471174"/>
<line stroke="#834" stroke-width="2" x1="731.813229251" y1="309.911719511" x2="891.780965973" y2="567.062869869"/>
<line stroke="#834" stroke-width="2" x1="699.39521408" y1="308.290818753" x2="774.676186035" y2="453.156965016"/>
<line stroke="#834" stroke-width="2" x1="672.268734982" y1="349.769932295" x2="685.204156496" y2="379.332512148"/>
<line stroke="#834" stroke-width="2" x1="874.02757928" y1="344.478627015" x2="829.514657941" y2="515.656776608"/>
<line stroke="#834" stroke-width="2" x1="699.39521408" y1="308.290818753" x2="672.268734982" y2="349.769932295"/>
<line stroke="#834" stroke-width="2" x1="774.676186035" y1="453.156965016" x2="872.964138989" y2="565.176471174"/>
<line stroke="#834" stroke-width="2" x1="832.367892915" y1="314.939452695" x2="936.203570549" y2="373.345473192"/>
<line stroke="#834" stroke-width="2" x1="731.813229251" y1="309.911719511" x2="701.107643106" y2="349.769932295"/>
<line stroke="#834" stroke-width="2" x1="891.780965973" y1="567.062869869" x2="890.682489117" y2="570.0"/>
<line stroke="#834" stroke-width="2" x1="774.676186035" y1="453.156965016" x2="874.259202726" y2="522.705711602"/>
<line stroke="#834" stroke-width="2" x1="936.203570549" y1="373.345473192" x2="845.748549265" y2="534.158662489"/>
<line stroke="#834" stroke-width="2" x1="743.3078266" y1="310.486449379" x2="874.02757928" y2="344.478627015"/>
<line stroke="#834" stroke-width="2" x1="699.39521408" y1="308.290818753" x2="832.367892915" y2="314.939452695"/>
<line stroke="#834" stroke-width="2" x1="743.3078266" y1="310.486449379" x2="692.81719766" y2="318.349267141"/>
<line stroke="#834" stroke-width="2" x1="832.367892915" y1="314.939452695" x2="685.204156496" y2="379.332512148"/>
<line stroke="#834" stroke-width="2" x1="672.268734982" y1="349.769932295" x2="701.107643106" y2="349.769932295"/>
<line stroke="#834" stroke-width="2" x1="870.609366018" y1="562.492719022" x2="890.682489117" y2="570.0"/>
<line stroke="#834" stroke-width="2" x1="858.918517877" y1="511.991782274" x2="829.514657941" y2="515.656776608"/>
<line stroke="#834" stroke-width="2" x1="872.964138989" y1="565.176471174" x2="891.780965973" y2="567.062869869"/>
<line stroke="#834" stroke-width="2" x1="874.259202726" y1="522.705711602" x2="845.748549265" y2="534.158662489"/>
</svg>
