<?xml version="1.0" encoding="iso-8859-1"?><svg version="1.1" xmlns="http://www.w3.org/2000/svg" xmlns:xlink="http://www.w3.org/1999/xlink" height="640" width="1210" viewBox="0 0 640 1210">
<polygon fill="none" stroke="#ff8a65" stroke-width="2" points="427.142857143,420.0 345.510204082,505.714285714 371.428571429,538.571428571 320.0,532.5 284.285714286,570.0 246.785714286,534.285714286 195.714285714,542.857142857 220.0,508.775510204 134.285714286,427.142857143"/>
<line stroke="#834" stroke-width="2" x1="850.714285714" y1="423.571428571" x2="890.0" y2="532.5"/>
<line stroke="#834" stroke-width="2" x1="850.714285714" y1="423.571428571" x2="854.285714286" y2="570.0"/>
<line stroke="#834" stroke-width="2" x1="850.714285714" y1="423.571428571" x2="941.428571429" y2="538.571428571"/>
<line stroke="#834" stroke-width="2" x1="923.928571429" y1="421.785714286" x2="961.428571429" y2="457.5"/>
<line stroke="#834" stroke-width="2" x1="850.714285714" y1="423.571428571" x2="816.785714286" y2="534.285714286"/>
<line stroke="#834" stroke-width="2" x1="777.5" y1="425.357142857" x2="852.5" y2="496.785714286"/>
<line stroke="#834" stroke-width="2" x1="704.285714286" y1="427.142857143" x2="854.285714286" y2="570.0"/>
<line stroke="#834" stroke-width="2" x1="850.714285714" y1="423.571428571" x2="765.714285714" y2="542.857142857"/>
<line stroke="#834" stroke-width="2" x1="777.5" y1="425.357142857" x2="741.785714286" y2="462.857142857"/>
<line stroke="#834" stroke-width="2" x1="923.928571429" y1="421.785714286" x2="852.5" y2="496.785714286"/>
<line stroke="#834" stroke-width="2" x1="997.142857143" y1="420.0" x2="854.285714286" y2="570.0"/>
<line stroke="#834" stroke-width="2" x1="997.142857143" y1="420.0" x2="704.285714286" y2="427.142857143"/>
<line stroke="#834" stroke-width="2" x1="961.428571429" y1="457.5" x2="741.785714286" y2="462.857142857"/>
<line stroke="#834" stroke-width="2" x1="890.0" y1="532.5" x2="941.428571429" y2="538.571428571"/>
<line stroke="#834" stroke-width="2" x1="816.785714286" y1="534.285714286" x2="765.714285714" y2="542.857142857"/>
</svg>
