<?xml version="1.0" encoding="iso-8859-1"?><svg version="1.1" xmlns="http://www.w3.org/2000/svg" xmlns:xlink="http://www.w3.org/1999/xlink" height="640" width="1210" viewBox="0 0 640 1210">
<polygon fill="none" stroke="#ff8a65" stroke-width="2" points="247.48245351,215.232648691 535.226089774,266.219215904 570.0,292.51180778 530.722362833,407.959811391 426.270190631,372.423168117 416.609646653,379.418923062 417.590700001,380.891729704 379.978409347,405.945706664 327.101706925,329.835628053 108.234652668,396.735702609 70.0,340.035884909"/>
<line stroke="#834" stroke-width="2" x1="1105.22608977" y1="266.219215904" x2="1140.0" y2="292.51180778"/>
<line stroke="#834" stroke-width="2" x1="1037.88868577" y1="254.287403546" x2="1112.11394972" y2="311.751520262"/>
<line stroke="#834" stroke-width="2" x1="885.240904992" y1="227.239068313" x2="987.590700001" y2="380.891729704"/>
<line stroke="#834" stroke-width="2" x1="817.48245351" y1="215.232648691" x2="949.978409347" y2="405.945706664"/>
<line stroke="#834" stroke-width="2" x1="678.234652668" y1="368.722777716" x2="678.234652668" y2="396.735702609"/>
<line stroke="#834" stroke-width="2" x1="696.628759927" y1="300.215314694" x2="694.540168261" y2="391.751671492"/>
<line stroke="#834" stroke-width="2" x1="908.289204683" y1="231.323098447" x2="905.151891815" y2="341.422965703"/>
<line stroke="#834" stroke-width="2" x1="856.490101389" y1="324.591233182" x2="872.928704316" y2="337.224477335"/>
<line stroke="#834" stroke-width="2" x1="908.289204683" y1="231.323098447" x2="872.928704316" y2="337.224477335"/>
<line stroke="#834" stroke-width="2" x1="678.234652668" y1="368.722777716" x2="694.540168261" y2="391.751671492"/>
<line stroke="#834" stroke-width="2" x1="640.0" y1="340.035884909" x2="678.234652668" y2="396.735702609"/>
<line stroke="#834" stroke-width="2" x1="640.0" y1="340.035884909" x2="671.909309664" y2="383.577680708"/>
<line stroke="#834" stroke-width="2" x1="817.48245351" y1="215.232648691" x2="1105.22608977" y2="266.219215904"/>
<line stroke="#834" stroke-width="2" x1="817.48245351" y1="215.232648691" x2="640.0" y2="340.035884909"/>
<line stroke="#834" stroke-width="2" x1="1140.0" y1="292.51180778" x2="1100.72236283" y2="407.959811391"/>
<line stroke="#834" stroke-width="2" x1="1123.67065499" y1="280.165172008" x2="1112.11394972" y2="311.751520262"/>
<line stroke="#834" stroke-width="2" x1="905.151891815" y1="341.422965703" x2="1100.72236283" y2="407.959811391"/>
<line stroke="#834" stroke-width="2" x1="856.490101389" y1="324.591233182" x2="838.753261537" y2="347.670725985"/>
<line stroke="#834" stroke-width="2" x1="885.240904992" y1="227.239068313" x2="671.909309664" y2="383.577680708"/>
<line stroke="#834" stroke-width="2" x1="696.628759927" y1="300.215314694" x2="838.753261537" y2="347.670725985"/>
<line stroke="#834" stroke-width="2" x1="1037.88868577" y1="254.287403546" x2="678.234652668" y2="368.722777716"/>
<line stroke="#834" stroke-width="2" x1="1105.22608977" y1="266.219215904" x2="678.234652668" y2="396.735702609"/>
<line stroke="#834" stroke-width="2" x1="1123.67065499" y1="280.165172008" x2="949.978409347" y2="405.945706664"/>
<line stroke="#834" stroke-width="2" x1="987.590700001" y1="380.891729704" x2="949.978409347" y2="405.945706664"/>
<line stroke="#834" stroke-width="2" x1="1140.0" y1="292.51180778" x2="1112.11394972" y2="311.751520262"/>
</svg>
