<?xml version="1.0" encoding="iso-8859-1"?><svg version="1.1" xmlns="http://www.w3.org/2000/svg" xmlns:xlink="http://www.w3.org/1999/xlink" height="640" width="1210" viewBox="0 0 640 1210">
<polygon fill="none" stroke="#ff8a65" stroke-width="2" points="201.428571429,70.0 218.571428571,70.0 227.647058824,88.1512605042 350.0,172.857142857 315.6,290.8 284.725274725,281.794871795 259.714285714,315.142857143 210.0,277.857142857 160.285714286,315.142857143 135.274725275,281.794871795 104.4,290.8 70.0,172.857142857 192.352941176,88.1512605042"/>
<line stroke="#834" stroke-width="2" x1="771.428571429" y1="70.0" x2="681.428571429" y2="250.0"/>
<line stroke="#834" stroke-width="2" x1="788.571428571" y1="70.0" x2="878.571428571" y2="250.0"/>
<line stroke="#834" stroke-width="2" x1="771.428571429" y1="70.0" x2="745.714285714" y2="250.0"/>
<line stroke="#834" stroke-width="2" x1="788.571428571" y1="70.0" x2="814.285714286" y2="250.0"/>
<line stroke="#834" stroke-width="2" x1="771.428571429" y1="70.0" x2="788.571428571" y2="70.0"/>
<line stroke="#834" stroke-width="2" x1="771.428571429" y1="70.0" x2="920.0" y2="172.857142857"/>
<line stroke="#834" stroke-width="2" x1="788.571428571" y1="70.0" x2="640.0" y2="172.857142857"/>
<line stroke="#834" stroke-width="2" x1="640.0" y1="172.857142857" x2="674.4" y2="290.8"/>
<line stroke="#834" stroke-width="2" x1="920.0" y1="172.857142857" x2="885.6" y2="290.8"/>
<line stroke="#834" stroke-width="2" x1="681.428571429" y1="250.0" x2="730.285714286" y2="315.142857143"/>
<line stroke="#834" stroke-width="2" x1="878.571428571" y1="250.0" x2="829.714285714" y2="315.142857143"/>
<line stroke="#834" stroke-width="2" x1="640.0" y1="172.857142857" x2="829.714285714" y2="315.142857143"/>
<line stroke="#834" stroke-width="2" x1="920.0" y1="172.857142857" x2="730.285714286" y2="315.142857143"/>
<line stroke="#834" stroke-width="2" x1="745.714285714" y1="250.0" x2="885.6" y2="290.8"/>
<line stroke="#834" stroke-width="2" x1="814.285714286" y1="250.0" x2="674.4" y2="290.8"/>
<line stroke="#834" stroke-width="2" x1="681.428571429" y1="250.0" x2="878.571428571" y2="250.0"/>
</svg>
