<?xml version="1.0" encoding="iso-8859-1"?><svg version="1.1" xmlns="http://www.w3.org/2000/svg" xmlns:xlink="http://www.w3.org/1999/xlink" height="640" width="1210" viewBox="0 0 640 1210">
<polygon fill="none" stroke="#ff8a65" stroke-width="2" points="309.209090815,70.0 381.518507856,166.412556054 263.705481612,402.03860854 162.178093576,435.35228274 70.0,249.406818111 98.4467589767,228.071748879 98.4467589767,166.412556054 180.659016077,166.412556054"/>
<line stroke="#834" stroke-width="2" x1="879.209090815" y1="70.0" x2="951.518507856" y2="166.412556054"/>
<line stroke="#834" stroke-width="2" x1="740.591236877" y1="220.8138179" x2="790.206804674" y2="395.363228461"/>
<line stroke="#834" stroke-width="2" x1="755.285041676" y1="288.186526795" x2="787.408350936" y2="397.291713797"/>
<line stroke="#834" stroke-width="2" x1="668.446758977" y1="166.412556054" x2="951.518507856" y2="166.412556054"/>
<line stroke="#834" stroke-width="2" x1="668.446758977" y1="166.412556054" x2="668.446758977" y2="306.790797426"/>
<line stroke="#834" stroke-width="2" x1="677.316199626" y1="311.142513533" x2="675.534081974" y2="321.087638644"/>
<line stroke="#834" stroke-width="2" x1="640.0" y1="249.406818111" x2="732.178093576" y2="435.35228274"/>
<line stroke="#834" stroke-width="2" x1="879.209090815" y1="70.0" x2="640.0" y2="249.406818111"/>
<line stroke="#834" stroke-width="2" x1="740.591236877" y1="220.8138179" x2="640.0" y2="249.406818111"/>
<line stroke="#834" stroke-width="2" x1="677.316199626" y1="311.142513533" x2="790.206804674" y2="395.363228461"/>
<line stroke="#834" stroke-width="2" x1="668.446758977" y1="306.790797426" x2="787.408350936" y2="397.291713797"/>
<line stroke="#834" stroke-width="2" x1="951.518507856" y1="166.412556054" x2="833.705481612" y2="402.03860854"/>
<line stroke="#834" stroke-width="2" x1="675.534081974" y1="321.087638644" x2="833.705481612" y2="402.03860854"/>
<line stroke="#834" stroke-width="2" x1="755.285041676" y1="288.186526795" x2="677.316199626" y2="311.142513533"/>
<line stroke="#834" stroke-width="2" x1="790.206804674" y1="395.363228461" x2="732.178093576" y2="435.35228274"/>
<line stroke="#834" stroke-width="2" x1="833.705481612" y1="402.03860854" x2="732.178093576" y2="435.35228274"/>
</svg>
