<?xml version="1.0" encoding="iso-8859-1"?><svg version="1.1" xmlns="http://www.w3.org/2000/svg" xmlns:xlink="http://www.w3.org/1999/xlink" height="640" width="1210" viewBox="0 0 640 1210">
<polygon fill="none" stroke="#ff8a65" stroke-width="2" points="206.336154776,70.0 326.192470162,311.982462464 290.044378698,416.410282248 231.141986792,416.410282248 231.141986792,408.514801922 93.2606319331,410.647900775 90.9268323877,259.793455906 70.0,243.333359171 90.273432929,217.558374998 88.0189431145,71.830431016"/>
<line stroke="#834" stroke-width="2" x1="776.336154776" y1="70.0" x2="640.0" y2="243.333359171"/>
<line stroke="#834" stroke-width="2" x1="776.336154776" y1="70.0" x2="658.018943115" y2="71.830431016"/>
<line stroke="#834" stroke-width="2" x1="801.141986792" y1="357.244597402" x2="801.141986792" y2="416.410282248"/>
<line stroke="#834" stroke-width="2" x1="658.018943115" y1="71.830431016" x2="663.260631933" y2="410.647900775"/>
<line stroke="#834" stroke-width="2" x1="776.336154776" y1="70.0" x2="896.192470162" y2="311.982462464"/>
<line stroke="#834" stroke-width="2" x1="896.192470162" y1="311.982462464" x2="860.044378698" y2="416.410282248"/>
<line stroke="#834" stroke-width="2" x1="801.141986792" y1="357.244597402" x2="863.109275972" y2="407.556134569"/>
<line stroke="#834" stroke-width="2" x1="640.0" y1="243.333359171" x2="860.044378698" y2="416.410282248"/>
<line stroke="#834" stroke-width="2" x1="896.192470162" y1="311.982462464" x2="801.141986792" y2="357.244597402"/>
<line stroke="#834" stroke-width="2" x1="863.109275972" y1="407.556134569" x2="663.260631933" y2="410.647900775"/>
<line stroke="#834" stroke-width="2" x1="801.141986792" y1="416.410282248" x2="860.044378698" y2="416.410282248"/>
</svg>
