<?xml version="1.0" encoding="iso-8859-1"?><svg version="1.1" xmlns="http://www.w3.org/2000/svg" xmlns:xlink="http://www.w3.org/1999/xlink" height="640" width="1210" viewBox="0 0 640 1210">
<polygon fill="none" stroke="#ff8a65" stroke-width="2" points="399.411764706,214.927536232 562.1875,393.076923077 512.028985507,418.684210526 198.378378378,457.85046729 77.8125,395.757575758 185.942028986,304.567901235"/>
<line stroke="#834" stroke-width="2" x1="1106.14145656" y1="364.570913509" x2="1121.10193621" y2="389.722196944"/>
<line stroke="#834" stroke-width="2" x1="969.411764706" y1="214.927536232" x2="1132.1875" y2="393.076923077"/>
<line stroke="#834" stroke-width="2" x1="861.194366564" y1="375.778177654" x2="882.519246691" y2="423.027906857"/>
<line stroke="#834" stroke-width="2" x1="993.470577145" y1="282.984118508" x2="1106.14145656" y2="364.570913509"/>
<line stroke="#834" stroke-width="2" x1="869.701877367" y1="406.772559984" x2="875.31058819" y2="444.497601743"/>
<line stroke="#834" stroke-width="2" x1="867.767285454" y1="369.966091682" x2="875.31058819" y2="444.497601743"/>
<line stroke="#834" stroke-width="2" x1="787.378094366" y1="291.367246044" x2="788.055323035" y2="295.186510257"/>
<line stroke="#834" stroke-width="2" x1="969.411764706" y1="214.927536232" x2="980.161738088" y2="410.947178106"/>
<line stroke="#834" stroke-width="2" x1="787.378094366" y1="291.367246044" x2="869.701877367" y2="406.772559984"/>
<line stroke="#834" stroke-width="2" x1="656.17160367" y1="393.046606399" x2="655.114138867" y2="399.518008446"/>
<line stroke="#834" stroke-width="2" x1="828.814318438" y1="404.41014872" x2="856.211858567" y2="446.882503067"/>
<line stroke="#834" stroke-width="2" x1="818.153532625" y1="278.444001869" x2="809.718677093" y2="371.779232262"/>
<line stroke="#834" stroke-width="2" x1="818.153532625" y1="278.444001869" x2="980.161738088" y2="410.947178106"/>
<line stroke="#834" stroke-width="2" x1="666.913206673" y1="379.649235686" x2="688.387687798" y2="410.630790509"/>
<line stroke="#834" stroke-width="2" x1="869.701877367" y1="406.772559984" x2="856.211858567" y2="446.882503067"/>
<line stroke="#834" stroke-width="2" x1="828.814318438" y1="404.41014872" x2="876.635905402" y2="444.332106401"/>
<line stroke="#834" stroke-width="2" x1="755.942028986" y1="304.567901235" x2="688.387687798" y2="410.630790509"/>
<line stroke="#834" stroke-width="2" x1="861.194366564" y1="375.778177654" x2="957.298286457" y2="434.259613456"/>
<line stroke="#834" stroke-width="2" x1="666.913206673" y1="379.649235686" x2="722.622571488" y2="434.285671077"/>
<line stroke="#834" stroke-width="2" x1="656.17160367" y1="393.046606399" x2="670.86724198" y2="407.631047857"/>
<line stroke="#834" stroke-width="2" x1="1121.10193621" y1="389.722196944" x2="1132.1875" y2="393.076923077"/>
<line stroke="#834" stroke-width="2" x1="721.636250182" y1="333.499247118" x2="655.114138867" y2="399.518008446"/>
<line stroke="#834" stroke-width="2" x1="755.942028986" y1="304.567901235" x2="647.8125" y2="395.757575758"/>
<line stroke="#834" stroke-width="2" x1="771.140154247" y1="298.185893541" x2="721.636250182" y2="333.499247118"/>
<line stroke="#834" stroke-width="2" x1="867.767285454" y1="369.966091682" x2="1082.02898551" y2="418.684210526"/>
<line stroke="#834" stroke-width="2" x1="969.411764706" y1="214.927536232" x2="755.942028986" y2="304.567901235"/>
<line stroke="#834" stroke-width="2" x1="993.470577145" y1="282.984118508" x2="876.635905402" y2="444.332106401"/>
<line stroke="#834" stroke-width="2" x1="788.055323035" y1="295.186510257" x2="771.140154247" y2="298.185893541"/>
<line stroke="#834" stroke-width="2" x1="647.8125" y1="395.757575758" x2="768.378378378" y2="457.85046729"/>
<line stroke="#834" stroke-width="2" x1="867.767285454" y1="369.966091682" x2="768.378378378" y2="457.85046729"/>
<line stroke="#834" stroke-width="2" x1="809.718677093" y1="371.779232262" x2="1119.13316041" y2="399.741518906"/>
<line stroke="#834" stroke-width="2" x1="1126.68167663" y1="387.05109216" x2="1119.13316041" y2="399.741518906"/>
<line stroke="#834" stroke-width="2" x1="656.17160367" y1="393.046606399" x2="647.8125" y2="395.757575758"/>
<line stroke="#834" stroke-width="2" x1="670.86724198" y1="407.631047857" x2="688.387687798" y2="410.630790509"/>
<line stroke="#834" stroke-width="2" x1="980.161738088" y1="410.947178106" x2="957.298286457" y2="434.259613456"/>
<line stroke="#834" stroke-width="2" x1="722.622571488" y1="434.285671077" x2="819.509601361" y2="451.465596473"/>
<line stroke="#834" stroke-width="2" x1="882.519246691" y1="423.027906857" x2="819.509601361" y2="451.465596473"/>
<line stroke="#834" stroke-width="2" x1="1082.02898551" y1="418.684210526" x2="768.378378378" y2="457.85046729"/>
<line stroke="#834" stroke-width="2" x1="1126.68167663" y1="387.05109216" x2="1121.10193621" y2="389.722196944"/>
<line stroke="#834" stroke-width="2" x1="1132.1875" y1="393.076923077" x2="1082.02898551" y2="418.684210526"/>
</svg>
