<?xml version="1.0" encoding="iso-8859-1"?><svg version="1.1" xmlns="http://www.w3.org/2000/svg" xmlns:xlink="http://www.w3.org/1999/xlink" height="640" width="1210" viewBox="0 0 640 1210">
<polygon fill="none" stroke="#ff8a65" stroke-width="2" points="271.044406973,70.0 296.562977617,114.350654613 359.452084221,140.827726193 344.992442845,212.437378722 94.3244316435,227.952613458 70.0,185.67734336 125.588819697,153.692534233 145.321594558,106.822676362 228.469285954,94.4969604821"/>
<line stroke="#834" stroke-width="2" x1="841.044406973" y1="70.0" x2="640.0" y2="185.67734336"/>
<line stroke="#834" stroke-width="2" x1="813.953795362" y1="92.2015550379" x2="748.373188018" y2="146.639473678"/>
<line stroke="#834" stroke-width="2" x1="715.321594558" y1="106.822676362" x2="664.324431644" y2="227.952613458"/>
<line stroke="#834" stroke-width="2" x1="813.953795362" y1="92.2015550379" x2="715.321594558" y2="106.822676362"/>
<line stroke="#834" stroke-width="2" x1="813.953795362" y1="92.2015550379" x2="929.452084221" y2="140.827726193"/>
<line stroke="#834" stroke-width="2" x1="908.051511447" y1="140.827726193" x2="929.452084221" y2="140.827726193"/>
<line stroke="#834" stroke-width="2" x1="908.051511447" y1="140.827726193" x2="908.051511447" y2="212.866991497"/>
<line stroke="#834" stroke-width="2" x1="903.865518225" y1="179.18156218" x2="908.051511447" y2="212.866991497"/>
<line stroke="#834" stroke-width="2" x1="929.452084221" y1="140.827726193" x2="914.992442845" y2="212.437378722"/>
<line stroke="#834" stroke-width="2" x1="903.865518225" y1="179.18156218" x2="914.992442845" y2="212.437378722"/>
<line stroke="#834" stroke-width="2" x1="841.044406973" y1="70.0" x2="903.865518225" y2="179.18156218"/>
<line stroke="#834" stroke-width="2" x1="914.992442845" y1="212.437378722" x2="664.324431644" y2="227.952613458"/>
<line stroke="#834" stroke-width="2" x1="715.321594558" y1="106.822676362" x2="748.373188018" y2="146.639473678"/>
<line stroke="#834" stroke-width="2" x1="640.0" y1="185.67734336" x2="664.324431644" y2="227.952613458"/>
</svg>
