<?xml version="1.0" encoding="iso-8859-1"?><svg version="1.1" xmlns="http://www.w3.org/2000/svg" xmlns:xlink="http://www.w3.org/1999/xlink" height="640" width="1210" viewBox="0 0 640 1210">
<polygon fill="none" stroke="#ff8a65" stroke-width="2" points="348.571428571,209.705882353 362.307692308,562.1875 77.8125,265.3125 77.8125,213.939393939"/>
<line stroke="#834" stroke-width="2" x1="930.147655237" y1="554.673374066" x2="932.307692308" y2="562.1875"/>
<line stroke="#834" stroke-width="2" x1="883.715380506" y1="360.108512808" x2="922.223471789" y2="551.664464647"/>
<line stroke="#834" stroke-width="2" x1="890.357906303" y1="280.693690021" x2="923.300153306" y2="552.787997957"/>
<line stroke="#834" stroke-width="2" x1="918.571428571" y1="209.705882353" x2="932.307692308" y2="562.1875"/>
<line stroke="#834" stroke-width="2" x1="696.740025685" y1="213.174376704" x2="705.509621089" y2="325.520311192"/>
<line stroke="#834" stroke-width="2" x1="719.538272529" y1="311.466300551" x2="719.654974938" y2="340.281200083"/>
<line stroke="#834" stroke-width="2" x1="647.8125" y1="213.939393939" x2="647.8125" y2="265.3125"/>
<line stroke="#834" stroke-width="2" x1="655.625" y1="214.061548025" x2="655.625" y2="273.464960921"/>
<line stroke="#834" stroke-width="2" x1="655.625" y1="214.061548025" x2="653.825646399" y2="271.587308452"/>
<line stroke="#834" stroke-width="2" x1="740.365211742" y1="269.255958303" x2="740.327764018" y2="272.565952812"/>
<line stroke="#834" stroke-width="2" x1="918.571428571" y1="209.705882353" x2="917.497467006" y2="349.513683377"/>
<line stroke="#834" stroke-width="2" x1="696.740025685" y1="213.174376704" x2="692.147975113" y2="311.577233219"/>
<line stroke="#834" stroke-width="2" x1="740.365211742" y1="269.255958303" x2="734.002669164" y2="355.253234193"/>
<line stroke="#834" stroke-width="2" x1="647.8125" y1="265.3125" x2="932.307692308" y2="562.1875"/>
<line stroke="#834" stroke-width="2" x1="647.8125" y1="213.939393939" x2="655.625" y2="214.061548025"/>
<line stroke="#834" stroke-width="2" x1="918.571428571" y1="209.705882353" x2="647.8125" y2="213.939393939"/>
<line stroke="#834" stroke-width="2" x1="647.8125" y1="265.3125" x2="921.192354933" y2="276.96058722"/>
<line stroke="#834" stroke-width="2" x1="653.825646399" y1="271.587308452" x2="740.327764018" y2="272.565952812"/>
<line stroke="#834" stroke-width="2" x1="655.625" y1="273.464960921" x2="921.497592334" y2="284.793180938"/>
<line stroke="#834" stroke-width="2" x1="921.192354933" y1="276.96058722" x2="890.357906303" y2="280.693690021"/>
<line stroke="#834" stroke-width="2" x1="719.538272529" y1="311.466300551" x2="692.147975113" y2="311.577233219"/>
<line stroke="#834" stroke-width="2" x1="705.509621089" y1="325.520311192" x2="924.116139457" y2="351.986832961"/>
<line stroke="#834" stroke-width="2" x1="921.497592334" y1="284.793180938" x2="891.296902867" y2="288.449555008"/>
<line stroke="#834" stroke-width="2" x1="719.654974938" y1="340.281200083" x2="917.497467006" y2="349.513683377"/>
<line stroke="#834" stroke-width="2" x1="917.497467006" y1="349.513683377" x2="734.002669164" y2="355.253234193"/>
<line stroke="#834" stroke-width="2" x1="924.116139457" y1="351.986832961" x2="883.715380506" y2="360.108512808"/>
<line stroke="#834" stroke-width="2" x1="922.223471789" y1="551.664464647" x2="931.991148561" y2="554.064777971"/>
<line stroke="#834" stroke-width="2" x1="923.300153306" y1="552.787997957" x2="931.997153841" y2="554.218877439"/>
<line stroke="#834" stroke-width="2" x1="931.991148561" y1="554.064777971" x2="930.147655237" y2="554.673374066"/>
<line stroke="#834" stroke-width="2" x1="931.997153841" y1="554.218877439" x2="930.147655237" y2="554.673374066"/>
</svg>
