<?xml version="1.0" encoding="iso-8859-1"?><svg version="1.1" xmlns="http://www.w3.org/2000/svg" xmlns:xlink="http://www.w3.org/1999/xlink" height="640" width="1210" viewBox="0 0 640 1210">
<polygon fill="none" stroke="#ff8a65" stroke-width="2" points="101.25,288.75 476.25,288.75 538.75,351.25 538.75,413.75 382.5,570.0 288.75,476.25 257.5,507.5 70.0,320.0"/>
<line stroke="#834" stroke-width="2" x1="1046.25" y1="288.75" x2="1108.75" y2="351.25"/>
<line stroke="#834" stroke-width="2" x1="1077.5" y1="382.5" x2="1108.75" y2="413.75"/>
<line stroke="#834" stroke-width="2" x1="827.5" y1="288.75" x2="827.5" y2="507.5"/>
<line stroke="#834" stroke-width="2" x1="952.5" y1="288.75" x2="952.5" y2="570.0"/>
<line stroke="#834" stroke-width="2" x1="1108.75" y1="351.25" x2="1108.75" y2="413.75"/>
<line stroke="#834" stroke-width="2" x1="671.25" y1="288.75" x2="952.5" y2="570.0"/>
<line stroke="#834" stroke-width="2" x1="640.0" y1="320.0" x2="827.5" y2="507.5"/>
<line stroke="#834" stroke-width="2" x1="671.25" y1="288.75" x2="640.0" y2="320.0"/>
<line stroke="#834" stroke-width="2" x1="671.25" y1="288.75" x2="1046.25" y2="288.75"/>
<line stroke="#834" stroke-width="2" x1="640.0" y1="320.0" x2="952.5" y2="320.0"/>
<line stroke="#834" stroke-width="2" x1="827.5" y1="382.5" x2="1108.75" y2="382.5"/>
<line stroke="#834" stroke-width="2" x1="1046.25" y1="288.75" x2="827.5" y2="507.5"/>
<line stroke="#834" stroke-width="2" x1="1108.75" y1="351.25" x2="1077.5" y2="382.5"/>
<line stroke="#834" stroke-width="2" x1="1108.75" y1="413.75" x2="952.5" y2="570.0"/>
</svg>
