<?xml version="1.0" encoding="iso-8859-1"?><svg version="1.1" xmlns="http://www.w3.org/2000/svg" xmlns:xlink="http://www.w3.org/1999/xlink" height="640" width="1210" viewBox="0 0 640 1210">
<polygon fill="none" stroke="#ff8a65" stroke-width="2" points="70.0,70.0 446.766497038,70.0 446.766497038,84.7902194726 485.037742802,83.5393875578 570.0,188.562967024 446.766497038,288.256737006 70.0,108.43636342"/>
<line stroke="#834" stroke-width="2" x1="1055.0377428" y1="83.5393875578" x2="1140.0" y2="188.562967024"/>
<line stroke="#834" stroke-width="2" x1="640.0" y1="70.0" x2="1016.76649704" y2="70.0"/>
<line stroke="#834" stroke-width="2" x1="640.0" y1="70.0" x2="640.0" y2="108.43636342"/>
<line stroke="#834" stroke-width="2" x1="1016.76649704" y1="70.0" x2="1016.76649704" y2="288.256737006"/>
<line stroke="#834" stroke-width="2" x1="654.59766599" y1="96.6271044072" x2="736.629349498" y2="154.554916589"/>
<line stroke="#834" stroke-width="2" x1="654.59766599" y1="96.6271044072" x2="640.0" y2="108.43636342"/>
<line stroke="#834" stroke-width="2" x1="1055.0377428" y1="83.5393875578" x2="654.59766599" y2="96.6271044072"/>
<line stroke="#834" stroke-width="2" x1="640.0" y1="108.43636342" x2="1016.76649704" y2="288.256737006"/>
<line stroke="#834" stroke-width="2" x1="736.629349498" y1="154.554916589" x2="947.481359352" y2="214.217569798"/>
<line stroke="#834" stroke-width="2" x1="947.481359352" y1="214.217569798" x2="937.267508166" y2="250.314037772"/>
<line stroke="#834" stroke-width="2" x1="1055.0377428" y1="83.5393875578" x2="937.267508166" y2="250.314037772"/>
<line stroke="#834" stroke-width="2" x1="1140.0" y1="188.562967024" x2="1016.76649704" y2="288.256737006"/>
</svg>
