<?xml version="1.0" encoding="iso-8859-1"?><svg version="1.1" xmlns="http://www.w3.org/2000/svg" xmlns:xlink="http://www.w3.org/1999/xlink" height="640" width="1210" viewBox="0 0 640 1210">
<polygon fill="none" stroke="#ff8a65" stroke-width="2" points="77.8125,94.5098039216 562.1875,159.04109589 385.068493151,490.731707317"/>
<line stroke="#834" stroke-width="2" x1="1120.47388838" y1="157.480539521" x2="1128.24906751" y2="166.416595015"/>
<line stroke="#834" stroke-width="2" x1="1105.91914654" y1="202.989291304" x2="1107.81492349" y2="204.683598901"/>
<line stroke="#834" stroke-width="2" x1="1067.84670754" y1="221.086356299" x2="1089.1555532" y2="239.626985568"/>
<line stroke="#834" stroke-width="2" x1="924.171481324" y1="406.348489966" x2="955.068493151" y2="490.731707317"/>
<line stroke="#834" stroke-width="2" x1="890.938094609" y1="300.021412804" x2="994.831106294" y2="416.268295964"/>
<line stroke="#834" stroke-width="2" x1="672.367969706" y1="97.7812283035" x2="672.752104185" y2="126.67066542"/>
<line stroke="#834" stroke-width="2" x1="655.655555355" y1="95.5547019759" x2="655.905344391" y2="104.945929758"/>
<line stroke="#834" stroke-width="2" x1="655.600166972" y1="95.5473228091" x2="655.594563684" y2="95.7579876088"/>
<line stroke="#834" stroke-width="2" x1="655.600166972" y1="95.5473228091" x2="653.934475876" y2="102.404396666"/>
<line stroke="#834" stroke-width="2" x1="647.8125" y1="94.5098039216" x2="955.068493151" y2="490.731707317"/>
<line stroke="#834" stroke-width="2" x1="655.655555355" y1="95.5547019759" x2="655.594563684" y2="95.7579876088"/>
<line stroke="#834" stroke-width="2" x1="672.367969706" y1="97.7812283035" x2="669.234597064" y2="108.75267589"/>
<line stroke="#834" stroke-width="2" x1="712.960868644" y1="103.189253518" x2="1107.81492349" y2="204.683598901"/>
<line stroke="#834" stroke-width="2" x1="647.8125" y1="94.5098039216" x2="655.594563684" y2="95.7579876088"/>
<line stroke="#834" stroke-width="2" x1="647.8125" y1="94.5098039216" x2="1132.1875" y2="159.04109589"/>
<line stroke="#834" stroke-width="2" x1="655.905344391" y1="104.945929758" x2="669.234597064" y2="108.75267589"/>
<line stroke="#834" stroke-width="2" x1="653.934475876" y1="102.404396666" x2="712.960868644" y2="103.189253518"/>
<line stroke="#834" stroke-width="2" x1="1116.69017805" y1="164.950291043" x2="1128.24906751" y2="166.416595015"/>
<line stroke="#834" stroke-width="2" x1="672.752104185" y1="126.67066542" x2="1089.1555532" y2="239.626985568"/>
<line stroke="#834" stroke-width="2" x1="1132.1875" y1="159.04109589" x2="955.068493151" y2="490.731707317"/>
<line stroke="#834" stroke-width="2" x1="1132.1875" y1="159.04109589" x2="1116.69017805" y2="164.950291043"/>
<line stroke="#834" stroke-width="2" x1="890.938094609" y1="300.021412804" x2="841.466154981" y2="344.235835265"/>
<line stroke="#834" stroke-width="2" x1="1116.69017805" y1="164.950291043" x2="1067.84670754" y2="221.086356299"/>
<line stroke="#834" stroke-width="2" x1="1120.47388838" y1="157.480539521" x2="841.466154981" y2="344.235835265"/>
<line stroke="#834" stroke-width="2" x1="1105.91914654" y1="202.989291304" x2="924.171481324" y2="406.348489966"/>
<line stroke="#834" stroke-width="2" x1="924.171481324" y1="406.348489966" x2="994.831106294" y2="416.268295964"/>
</svg>
