<?xml version="1.0" encoding="iso-8859-1"?><svg version="1.1" xmlns="http://www.w3.org/2000/svg" xmlns:xlink="http://www.w3.org/1999/xlink" height="640" width="1210" viewBox="0 0 640 1210">
<polygon fill="none" stroke="#ff8a65" stroke-width="2" points="290.0,130.0 320.0,170.0 350.0,130.0 390.0,160.0 351.25,211.666666667 395.0,270.0 370.0,320.0 270.0,320.0 245.0,270.0 288.75,211.666666667 250.0,160.0"/>
<polygon fill="none" stroke="#ff8a65" stroke-width="2" points="320.0,253.333333333 307.5,270.0 332.5,270.0"/>
<line stroke="#834" stroke-width="2" x1="920.0" y1="130.0" x2="960.0" y2="160.0"/>
<line stroke="#834" stroke-width="2" x1="860.0" y1="130.0" x2="965.0" y2="270.0"/>
<line stroke="#834" stroke-width="2" x1="820.0" y1="160.0" x2="940.0" y2="320.0"/>
<line stroke="#834" stroke-width="2" x1="815.0" y1="270.0" x2="840.0" y2="320.0"/>
<line stroke="#834" stroke-width="2" x1="860.0" y1="130.0" x2="820.0" y2="160.0"/>
<line stroke="#834" stroke-width="2" x1="920.0" y1="130.0" x2="815.0" y2="270.0"/>
<line stroke="#834" stroke-width="2" x1="965.0" y1="270.0" x2="940.0" y2="320.0"/>
<line stroke="#834" stroke-width="2" x1="960.0" y1="160.0" x2="840.0" y2="320.0"/>
<line stroke="#834" stroke-width="2" x1="815.0" y1="270.0" x2="965.0" y2="270.0"/>
<line stroke="#834" stroke-width="2" x1="840.0" y1="320.0" x2="940.0" y2="320.0"/>
</svg>
