<?xml version="1.0" encoding="iso-8859-1"?><svg version="1.1" xmlns="http://www.w3.org/2000/svg" xmlns:xlink="http://www.w3.org/1999/xlink" height="640" width="1210" viewBox="0 0 640 1210">
<polygon fill="none" stroke="#ff8a65" stroke-width="2" points="371.470588235,77.8125 562.1875,208.461538462 423.846153846,348.761061947 258.405797101,400.769230769 77.8125,158.607594937"/>
<line stroke="#834" stroke-width="2" x1="1121.0112756" y1="200.805358637" x2="1123.00070096" y2="206.163585406"/>
<line stroke="#834" stroke-width="2" x1="941.470588235" y1="77.8125" x2="1132.1875" y2="208.461538462"/>
<line stroke="#834" stroke-width="2" x1="933.899349422" y1="79.8955993021" x2="1005.89615081" y2="265.760124032"/>
<line stroke="#834" stroke-width="2" x1="870.393867308" y1="151.023761148" x2="938.910761107" y2="237.082610492"/>
<line stroke="#834" stroke-width="2" x1="933.899349422" y1="79.8955993021" x2="935.667693522" y2="90.3593025425"/>
<line stroke="#834" stroke-width="2" x1="770.574946573" y1="205.731056496" x2="772.258119233" y2="325.47953985"/>
<line stroke="#834" stroke-width="2" x1="764.235423047" y1="235.543213904" x2="860.575045231" y2="353.118199427"/>
<line stroke="#834" stroke-width="2" x1="656.287569938" y1="156.275821668" x2="655.014228917" y2="162.321153026"/>
<line stroke="#834" stroke-width="2" x1="1123.00070096" y1="206.163585406" x2="1132.1875" y2="208.461538462"/>
<line stroke="#834" stroke-width="2" x1="764.235423047" y1="235.543213904" x2="756.864415605" y2="304.837774559"/>
<line stroke="#834" stroke-width="2" x1="647.8125" y1="158.607594937" x2="828.405797101" y2="400.769230769"/>
<line stroke="#834" stroke-width="2" x1="656.287569938" y1="156.275821668" x2="713.603548391" y2="218.473102438"/>
<line stroke="#834" stroke-width="2" x1="662.044810516" y1="154.691813539" x2="655.014228917" y2="162.321153026"/>
<line stroke="#834" stroke-width="2" x1="647.8125" y1="158.607594937" x2="655.014228917" y2="162.321153026"/>
<line stroke="#834" stroke-width="2" x1="662.044810516" y1="154.691813539" x2="938.910761107" y2="237.082610492"/>
<line stroke="#834" stroke-width="2" x1="941.470588235" y1="77.8125" x2="647.8125" y2="158.607594937"/>
<line stroke="#834" stroke-width="2" x1="941.470588235" y1="77.8125" x2="935.667693522" y2="90.3593025425"/>
<line stroke="#834" stroke-width="2" x1="713.603548391" y1="218.473102438" x2="701.070541415" y2="230.022506992"/>
<line stroke="#834" stroke-width="2" x1="1121.0112756" y1="200.805358637" x2="770.574946573" y2="205.731056496"/>
<line stroke="#834" stroke-width="2" x1="935.667693522" y1="90.3593025425" x2="701.070541415" y2="230.022506992"/>
<line stroke="#834" stroke-width="2" x1="870.393867308" y1="151.023761148" x2="764.235423047" y2="235.543213904"/>
<line stroke="#834" stroke-width="2" x1="1125.5437108" y1="203.910265779" x2="1118.8208028" y2="222.017436973"/>
<line stroke="#834" stroke-width="2" x1="938.910761107" y1="237.082610492" x2="828.405797101" y2="400.769230769"/>
<line stroke="#834" stroke-width="2" x1="772.258119233" y1="325.47953985" x2="860.575045231" y2="353.118199427"/>
<line stroke="#834" stroke-width="2" x1="756.864415605" y1="304.837774559" x2="993.846153846" y2="348.761061947"/>
<line stroke="#834" stroke-width="2" x1="1118.8208028" y1="222.017436973" x2="1005.89615081" y2="265.760124032"/>
<line stroke="#834" stroke-width="2" x1="1132.1875" y1="208.461538462" x2="993.846153846" y2="348.761061947"/>
<line stroke="#834" stroke-width="2" x1="1125.5437108" y1="203.910265779" x2="1123.00070096" y2="206.163585406"/>
<line stroke="#834" stroke-width="2" x1="993.846153846" y1="348.761061947" x2="828.405797101" y2="400.769230769"/>
</svg>
