<?xml version="1.0" encoding="iso-8859-1"?><svg version="1.1" xmlns="http://www.w3.org/2000/svg" xmlns:xlink="http://www.w3.org/1999/xlink" height="640" width="1210" viewBox="0 0 640 1210">
<polygon fill="none" stroke="#ff8a65" stroke-width="2" points="320.0,257.5 382.5,257.5 476.25,320.0 570.0,320.0 570.0,382.5 507.5,476.25 507.5,570.0 445.0,570.0 351.25,507.5 257.5,507.5 257.5,445.0 320.0,351.25"/>
<line stroke="#834" stroke-width="2" x1="952.5" y1="257.5" x2="1140.0" y2="382.5"/>
<line stroke="#834" stroke-width="2" x1="827.5" y1="445.0" x2="827.5" y2="507.5"/>
<line stroke="#834" stroke-width="2" x1="890.0" y1="257.5" x2="890.0" y2="507.5"/>
<line stroke="#834" stroke-width="2" x1="952.5" y1="257.5" x2="952.5" y2="507.5"/>
<line stroke="#834" stroke-width="2" x1="1015.0" y1="320.0" x2="1015.0" y2="570.0"/>
<line stroke="#834" stroke-width="2" x1="1077.5" y1="320.0" x2="1077.5" y2="570.0"/>
<line stroke="#834" stroke-width="2" x1="1140.0" y1="320.0" x2="1140.0" y2="382.5"/>
<line stroke="#834" stroke-width="2" x1="827.5" y1="445.0" x2="1015.0" y2="570.0"/>
<line stroke="#834" stroke-width="2" x1="890.0" y1="257.5" x2="952.5" y2="257.5"/>
<line stroke="#834" stroke-width="2" x1="952.5" y1="257.5" x2="827.5" y2="445.0"/>
<line stroke="#834" stroke-width="2" x1="890.0" y1="320.0" x2="1140.0" y2="320.0"/>
<line stroke="#834" stroke-width="2" x1="890.0" y1="382.5" x2="1140.0" y2="382.5"/>
<line stroke="#834" stroke-width="2" x1="1140.0" y1="382.5" x2="1015.0" y2="570.0"/>
<line stroke="#834" stroke-width="2" x1="827.5" y1="445.0" x2="1077.5" y2="445.0"/>
<line stroke="#834" stroke-width="2" x1="827.5" y1="507.5" x2="1077.5" y2="507.5"/>
<line stroke="#834" stroke-width="2" x1="1015.0" y1="570.0" x2="1077.5" y2="570.0"/>
</svg>
