<?xml version="1.0" encoding="iso-8859-1"?><svg version="1.1" xmlns="http://www.w3.org/2000/svg" xmlns:xlink="http://www.w3.org/1999/xlink" height="640" width="1210" viewBox="0 0 640 1210">
<polygon fill="none" stroke="#ff8a65" stroke-width="2" points="236.666666667,236.666666667 320.0,320.0 320.0,403.333333333 403.333333333,403.333333333 320.0,486.666666667 236.666666667,486.666666667 236.666666667,570.0 153.333333333,486.666666667 153.333333333,403.333333333 70.0,403.333333333 153.333333333,320.0 236.666666667,320.0"/>
<line stroke="#834" stroke-width="2" x1="806.666666667" y1="236.666666667" x2="890.0" y2="320.0"/>
<line stroke="#834" stroke-width="2" x1="723.333333333" y1="320.0" x2="723.333333333" y2="486.666666667"/>
<line stroke="#834" stroke-width="2" x1="806.666666667" y1="236.666666667" x2="806.666666667" y2="570.0"/>
<line stroke="#834" stroke-width="2" x1="890.0" y1="320.0" x2="890.0" y2="486.666666667"/>
<line stroke="#834" stroke-width="2" x1="723.333333333" y1="320.0" x2="890.0" y2="486.666666667"/>
<line stroke="#834" stroke-width="2" x1="723.333333333" y1="486.666666667" x2="806.666666667" y2="570.0"/>
<line stroke="#834" stroke-width="2" x1="723.333333333" y1="320.0" x2="640.0" y2="403.333333333"/>
<line stroke="#834" stroke-width="2" x1="723.333333333" y1="320.0" x2="890.0" y2="320.0"/>
<line stroke="#834" stroke-width="2" x1="890.0" y1="320.0" x2="723.333333333" y2="486.666666667"/>
<line stroke="#834" stroke-width="2" x1="640.0" y1="403.333333333" x2="973.333333333" y2="403.333333333"/>
<line stroke="#834" stroke-width="2" x1="973.333333333" y1="403.333333333" x2="890.0" y2="486.666666667"/>
<line stroke="#834" stroke-width="2" x1="723.333333333" y1="486.666666667" x2="890.0" y2="486.666666667"/>
</svg>
