<?xml version="1.0" encoding="iso-8859-1"?><svg version="1.1" xmlns="http://www.w3.org/2000/svg" xmlns:xlink="http://www.w3.org/1999/xlink" height="640" width="1210" viewBox="0 0 640 1210">
<polygon fill="none" stroke="#ff8a65" stroke-width="2" points="236.666666667,70.0 292.222222222,125.555555556 310.740740741,125.555555556 320.0,97.7777777778 347.777777778,70.0 570.0,70.0 514.444444444,125.555555556 514.444444444,144.074074074 542.222222222,153.333333333 570.0,181.111111111 570.0,403.333333333 514.444444444,347.777777778 495.925925926,347.777777778 486.666666667,375.555555556 458.888888889,403.333333333 236.666666667,403.333333333 292.222222222,347.777777778 292.222222222,329.259259259 264.444444444,320.0 236.666666667,292.222222222"/>
<line stroke="#834" stroke-width="2" x1="1112.22222222" y1="153.333333333" x2="1140.0" y2="181.111111111"/>
<line stroke="#834" stroke-width="2" x1="1028.88888889" y1="125.555555556" x2="1084.44444444" y2="181.111111111"/>
<line stroke="#834" stroke-width="2" x1="973.333333333" y1="125.555555556" x2="1084.44444444" y2="236.666666667"/>
<line stroke="#834" stroke-width="2" x1="890.0" y1="97.7777777778" x2="1001.11111111" y2="208.888888889"/>
<line stroke="#834" stroke-width="2" x1="1084.44444444" y1="292.222222222" x2="1140.0" y2="347.777777778"/>
<line stroke="#834" stroke-width="2" x1="1028.88888889" y1="125.555555556" x2="1112.22222222" y2="153.333333333"/>
<line stroke="#834" stroke-width="2" x1="806.666666667" y1="70.0" x2="945.555555556" y2="208.888888889"/>
<line stroke="#834" stroke-width="2" x1="1001.11111111" y1="264.444444444" x2="1140.0" y2="403.333333333"/>
<line stroke="#834" stroke-width="2" x1="890.0" y1="97.7777777778" x2="973.333333333" y2="125.555555556"/>
<line stroke="#834" stroke-width="2" x1="806.666666667" y1="125.555555556" x2="862.222222222" y2="181.111111111"/>
<line stroke="#834" stroke-width="2" x1="945.555555556" y1="264.444444444" x2="1056.66666667" y2="375.555555556"/>
<line stroke="#834" stroke-width="2" x1="917.777777778" y1="70.0" x2="1140.0" y2="70.0"/>
<line stroke="#834" stroke-width="2" x1="862.222222222" y1="236.666666667" x2="973.333333333" y2="347.777777778"/>
<line stroke="#834" stroke-width="2" x1="1001.11111111" y1="208.888888889" x2="1084.44444444" y2="236.666666667"/>
<line stroke="#834" stroke-width="2" x1="862.222222222" y1="292.222222222" x2="917.777777778" y2="347.777777778"/>
<line stroke="#834" stroke-width="2" x1="862.222222222" y1="181.111111111" x2="945.555555556" y2="208.888888889"/>
<line stroke="#834" stroke-width="2" x1="806.666666667" y1="125.555555556" x2="917.777777778" y2="125.555555556"/>
<line stroke="#834" stroke-width="2" x1="806.666666667" y1="292.222222222" x2="834.444444444" y2="320.0"/>
<line stroke="#834" stroke-width="2" x1="806.666666667" y1="70.0" x2="806.666666667" y2="292.222222222"/>
<line stroke="#834" stroke-width="2" x1="862.222222222" y1="292.222222222" x2="862.222222222" y2="403.333333333"/>
<line stroke="#834" stroke-width="2" x1="917.777777778" y1="70.0" x2="917.777777778" y2="125.555555556"/>
<line stroke="#834" stroke-width="2" x1="1028.88888889" y1="347.777777778" x2="1028.88888889" y2="403.333333333"/>
<line stroke="#834" stroke-width="2" x1="1084.44444444" y1="70.0" x2="1084.44444444" y2="181.111111111"/>
<line stroke="#834" stroke-width="2" x1="1140.0" y1="181.111111111" x2="1140.0" y2="403.333333333"/>
<line stroke="#834" stroke-width="2" x1="1001.11111111" y1="264.444444444" x2="1084.44444444" y2="292.222222222"/>
<line stroke="#834" stroke-width="2" x1="862.222222222" y1="236.666666667" x2="945.555555556" y2="264.444444444"/>
<line stroke="#834" stroke-width="2" x1="1084.44444444" y1="181.111111111" x2="1140.0" y2="181.111111111"/>
<line stroke="#834" stroke-width="2" x1="890.0" y1="97.7777777778" x2="862.222222222" y2="181.111111111"/>
<line stroke="#834" stroke-width="2" x1="862.222222222" y1="236.666666667" x2="834.444444444" y2="320.0"/>
<line stroke="#834" stroke-width="2" x1="973.333333333" y1="347.777777778" x2="1056.66666667" y2="375.555555556"/>
<line stroke="#834" stroke-width="2" x1="973.333333333" y1="125.555555556" x2="945.555555556" y2="208.888888889"/>
<line stroke="#834" stroke-width="2" x1="945.555555556" y1="264.444444444" x2="917.777777778" y2="347.777777778"/>
<line stroke="#834" stroke-width="2" x1="917.777777778" y1="70.0" x2="890.0" y2="97.7777777778"/>
<line stroke="#834" stroke-width="2" x1="834.444444444" y1="320.0" x2="917.777777778" y2="347.777777778"/>
<line stroke="#834" stroke-width="2" x1="1028.88888889" y1="125.555555556" x2="1001.11111111" y2="208.888888889"/>
<line stroke="#834" stroke-width="2" x1="1001.11111111" y1="264.444444444" x2="973.333333333" y2="347.777777778"/>
<line stroke="#834" stroke-width="2" x1="917.777777778" y1="125.555555556" x2="862.222222222" y2="181.111111111"/>
<line stroke="#834" stroke-width="2" x1="1112.22222222" y1="153.333333333" x2="1084.44444444" y2="236.666666667"/>
<line stroke="#834" stroke-width="2" x1="1084.44444444" y1="292.222222222" x2="1056.66666667" y2="375.555555556"/>
<line stroke="#834" stroke-width="2" x1="806.666666667" y1="292.222222222" x2="862.222222222" y2="292.222222222"/>
<line stroke="#834" stroke-width="2" x1="973.333333333" y1="125.555555556" x2="862.222222222" y2="236.666666667"/>
<line stroke="#834" stroke-width="2" x1="1084.44444444" y1="70.0" x2="1028.88888889" y2="125.555555556"/>
<line stroke="#834" stroke-width="2" x1="945.555555556" y1="208.888888889" x2="834.444444444" y2="320.0"/>
<line stroke="#834" stroke-width="2" x1="1028.88888889" y1="347.777777778" x2="1140.0" y2="347.777777778"/>
<line stroke="#834" stroke-width="2" x1="1140.0" y1="70.0" x2="1001.11111111" y2="208.888888889"/>
<line stroke="#834" stroke-width="2" x1="945.555555556" y1="264.444444444" x2="806.666666667" y2="403.333333333"/>
<line stroke="#834" stroke-width="2" x1="1112.22222222" y1="153.333333333" x2="1001.11111111" y2="264.444444444"/>
<line stroke="#834" stroke-width="2" x1="917.777777778" y1="347.777777778" x2="862.222222222" y2="403.333333333"/>
<line stroke="#834" stroke-width="2" x1="806.666666667" y1="403.333333333" x2="1028.88888889" y2="403.333333333"/>
<line stroke="#834" stroke-width="2" x1="1084.44444444" y1="236.666666667" x2="973.333333333" y2="347.777777778"/>
<line stroke="#834" stroke-width="2" x1="1084.44444444" y1="292.222222222" x2="1028.88888889" y2="347.777777778"/>
<line stroke="#834" stroke-width="2" x1="1056.66666667" y1="375.555555556" x2="1028.88888889" y2="403.333333333"/>
</svg>
