<?xml version="1.0" encoding="iso-8859-1"?><svg version="1.1" xmlns="http://www.w3.org/2000/svg" xmlns:xlink="http://www.w3.org/1999/xlink" height="640" width="1210" viewBox="0 0 640 1210">
<polygon fill="none" stroke="#ff8a65" stroke-width="2" points="347.777777778,292.222222222 403.333333333,292.222222222 477.407407407,403.333333333 514.444444444,403.333333333 514.444444444,458.888888889 403.333333333,532.962962963 403.333333333,570.0 347.777777778,570.0 273.703703704,458.888888889 236.666666667,458.888888889 236.666666667,403.333333333 347.777777778,329.259259259"/>
<line stroke="#834" stroke-width="2" x1="973.333333333" y1="292.222222222" x2="1084.44444444" y2="458.888888889"/>
<line stroke="#834" stroke-width="2" x1="806.666666667" y1="403.333333333" x2="806.666666667" y2="458.888888889"/>
<line stroke="#834" stroke-width="2" x1="917.777777778" y1="292.222222222" x2="917.777777778" y2="570.0"/>
<line stroke="#834" stroke-width="2" x1="973.333333333" y1="292.222222222" x2="973.333333333" y2="570.0"/>
<line stroke="#834" stroke-width="2" x1="1084.44444444" y1="403.333333333" x2="1084.44444444" y2="458.888888889"/>
<line stroke="#834" stroke-width="2" x1="806.666666667" y1="403.333333333" x2="917.777777778" y2="570.0"/>
<line stroke="#834" stroke-width="2" x1="917.777777778" y1="292.222222222" x2="973.333333333" y2="292.222222222"/>
<line stroke="#834" stroke-width="2" x1="973.333333333" y1="292.222222222" x2="806.666666667" y2="403.333333333"/>
<line stroke="#834" stroke-width="2" x1="806.666666667" y1="403.333333333" x2="1084.44444444" y2="403.333333333"/>
<line stroke="#834" stroke-width="2" x1="806.666666667" y1="458.888888889" x2="1084.44444444" y2="458.888888889"/>
<line stroke="#834" stroke-width="2" x1="1084.44444444" y1="458.888888889" x2="917.777777778" y2="570.0"/>
<line stroke="#834" stroke-width="2" x1="917.777777778" y1="570.0" x2="973.333333333" y2="570.0"/>
</svg>
