<?xml version="1.0" encoding="iso-8859-1"?><svg version="1.1" xmlns="http://www.w3.org/2000/svg" xmlns:xlink="http://www.w3.org/1999/xlink" height="640" width="1210" viewBox="0 0 640 1210">
<polygon fill="none" stroke="#ff8a65" stroke-width="2" points="195.0,70.0 320.0,195.0 195.0,320.0 70.0,195.0 101.25,163.75 132.5,195.0 163.75,195.0 163.75,163.75 195.0,163.75 195.0,132.5 163.75,101.25"/>
<line stroke="#834" stroke-width="2" x1="765.0" y1="70.0" x2="890.0" y2="195.0"/>
<line stroke="#834" stroke-width="2" x1="733.75" y1="101.25" x2="858.75" y2="226.25"/>
<line stroke="#834" stroke-width="2" x1="733.75" y1="163.75" x2="733.75" y2="288.75"/>
<line stroke="#834" stroke-width="2" x1="765.0" y1="70.0" x2="765.0" y2="320.0"/>
<line stroke="#834" stroke-width="2" x1="858.75" y1="163.75" x2="858.75" y2="226.25"/>
<line stroke="#834" stroke-width="2" x1="671.25" y1="163.75" x2="796.25" y2="288.75"/>
<line stroke="#834" stroke-width="2" x1="640.0" y1="195.0" x2="765.0" y2="320.0"/>
<line stroke="#834" stroke-width="2" x1="765.0" y1="70.0" x2="733.75" y2="101.25"/>
<line stroke="#834" stroke-width="2" x1="671.25" y1="163.75" x2="640.0" y2="195.0"/>
<line stroke="#834" stroke-width="2" x1="733.75" y1="163.75" x2="858.75" y2="163.75"/>
<line stroke="#834" stroke-width="2" x1="640.0" y1="195.0" x2="890.0" y2="195.0"/>
<line stroke="#834" stroke-width="2" x1="890.0" y1="195.0" x2="765.0" y2="320.0"/>
<line stroke="#834" stroke-width="2" x1="733.75" y1="288.75" x2="796.25" y2="288.75"/>
</svg>
