<?xml version="1.0" encoding="iso-8859-1"?><svg version="1.1" xmlns="http://www.w3.org/2000/svg" xmlns:xlink="http://www.w3.org/1999/xlink" height="640" width="1210" viewBox="0 0 640 1210">
<polygon fill="none" stroke="#ff8a65" stroke-width="2" points="128.954113986,290.663013174 365.317112647,308.652457086 378.579789187,381.597178057 300.92506419,405.132212347 161.032125324,467.646419964 70.0,416.531475558 123.964198558,320.42502874 106.831239742,320.599370046 106.698451249,307.549910715"/>
<line stroke="#834" stroke-width="2" x1="935.317112647" y1="308.652457086" x2="948.579789187" y2="381.597178057"/>
<line stroke="#834" stroke-width="2" x1="862.434883175" y1="303.105434977" x2="907.747398396" y2="388.677350049"/>
<line stroke="#834" stroke-width="2" x1="769.173343494" y1="296.007355977" x2="778.342443368" y2="433.191485698"/>
<line stroke="#834" stroke-width="2" x1="676.698451249" y1="307.549910715" x2="676.831239742" y2="320.599370046"/>
<line stroke="#834" stroke-width="2" x1="731.431055184" y1="293.134813394" x2="764.995263813" y2="437.236652667"/>
<line stroke="#834" stroke-width="2" x1="710.195302293" y1="291.518573171" x2="764.995263813" y2="437.236652667"/>
<line stroke="#834" stroke-width="2" x1="769.173343494" y1="296.007355977" x2="731.032125324" y2="467.646419964"/>
<line stroke="#834" stroke-width="2" x1="918.811708398" y1="307.396240819" x2="932.096113912" y2="318.001849563"/>
<line stroke="#834" stroke-width="2" x1="731.431055184" y1="293.134813394" x2="727.810751965" y2="302.178765593"/>
<line stroke="#834" stroke-width="2" x1="758.884201748" y1="399.349032204" x2="778.342443368" y2="433.191485698"/>
<line stroke="#834" stroke-width="2" x1="710.195302293" y1="291.518573171" x2="640.0" y2="416.531475558"/>
<line stroke="#834" stroke-width="2" x1="698.954113986" y1="290.663013174" x2="796.735362242" y2="391.547097772"/>
<line stroke="#834" stroke-width="2" x1="935.317112647" y1="308.652457086" x2="907.747398396" y2="388.677350049"/>
<line stroke="#834" stroke-width="2" x1="698.954113986" y1="290.663013174" x2="676.698451249" y2="307.549910715"/>
<line stroke="#834" stroke-width="2" x1="862.434883175" y1="303.105434977" x2="796.735362242" y2="391.547097772"/>
<line stroke="#834" stroke-width="2" x1="727.810751965" y1="302.178765593" x2="912.128273692" y2="375.961256099"/>
<line stroke="#834" stroke-width="2" x1="698.954113986" y1="290.663013174" x2="935.317112647" y2="308.652457086"/>
<line stroke="#834" stroke-width="2" x1="676.698451249" y1="307.549910715" x2="912.128273692" y2="375.961256099"/>
<line stroke="#834" stroke-width="2" x1="932.096113912" y1="318.001849563" x2="676.831239742" y2="320.599370046"/>
<line stroke="#834" stroke-width="2" x1="918.811708398" y1="307.396240819" x2="758.884201748" y2="399.349032204"/>
<line stroke="#834" stroke-width="2" x1="640.0" y1="416.531475558" x2="731.032125324" y2="467.646419964"/>
<line stroke="#834" stroke-width="2" x1="948.579789187" y1="381.597178057" x2="796.735362242" y2="391.547097772"/>
<line stroke="#834" stroke-width="2" x1="907.747398396" y1="388.677350049" x2="731.032125324" y2="467.646419964"/>
<line stroke="#834" stroke-width="2" x1="948.579789187" y1="381.597178057" x2="764.995263813" y2="437.236652667"/>
</svg>
