<?xml version="1.0" encoding="iso-8859-1"?><svg version="1.1" xmlns="http://www.w3.org/2000/svg" xmlns:xlink="http://www.w3.org/1999/xlink" height="640" width="1210" viewBox="0 0 640 1210">
<polygon fill="none" stroke="#ff8a65" stroke-width="2" points="320.0,320.0 355.714285714,355.714285714 355.714285714,427.142857143 427.142857143,498.571428571 355.714285714,498.571428571 427.142857143,570.0 284.285714286,570.0 284.285714286,355.714285714"/>
<line stroke="#834" stroke-width="2" x1="890.0" y1="320.0" x2="925.714285714" y2="355.714285714"/>
<line stroke="#834" stroke-width="2" x1="854.285714286" y1="355.714285714" x2="854.285714286" y2="570.0"/>
<line stroke="#834" stroke-width="2" x1="890.0" y1="391.428571429" x2="890.0" y2="498.571428571"/>
<line stroke="#834" stroke-width="2" x1="925.714285714" y1="355.714285714" x2="925.714285714" y2="570.0"/>
<line stroke="#834" stroke-width="2" x1="854.285714286" y1="355.714285714" x2="997.142857143" y2="498.571428571"/>
<line stroke="#834" stroke-width="2" x1="854.285714286" y1="427.142857143" x2="997.142857143" y2="570.0"/>
<line stroke="#834" stroke-width="2" x1="890.0" y1="320.0" x2="854.285714286" y2="355.714285714"/>
<line stroke="#834" stroke-width="2" x1="925.714285714" y1="355.714285714" x2="854.285714286" y2="427.142857143"/>
<line stroke="#834" stroke-width="2" x1="925.714285714" y1="427.142857143" x2="854.285714286" y2="498.571428571"/>
<line stroke="#834" stroke-width="2" x1="854.285714286" y1="498.571428571" x2="997.142857143" y2="498.571428571"/>
<line stroke="#834" stroke-width="2" x1="854.285714286" y1="570.0" x2="997.142857143" y2="570.0"/>
</svg>
