<?xml version="1.0" encoding="iso-8859-1"?><svg version="1.1" xmlns="http://www.w3.org/2000/svg" xmlns:xlink="http://www.w3.org/1999/xlink" height="640" width="1210" viewBox="0 0 640 1210">
<polygon fill="none" stroke="#ff8a65" stroke-width="2" points="523.846153846,97.397260274 336.233766234,562.1875 120.724637681,201.944444444"/>
<line stroke="#834" stroke-width="2" x1="1058.41352885" y1="106.586502283" x2="1069.38119255" y2="113.961518432"/>
<line stroke="#834" stroke-width="2" x1="1048.47970467" y1="126.079531365" x2="1076.50389367" y2="140.360911905"/>
<line stroke="#834" stroke-width="2" x1="1067.3025631" y1="104.281183753" x2="1077.52992822" y2="137.819017679"/>
<line stroke="#834" stroke-width="2" x1="1067.3025631" y1="104.281183753" x2="1069.38119255" y2="113.961518432"/>
<line stroke="#834" stroke-width="2" x1="1008.33725164" y1="119.573489" x2="1076.50389367" y2="140.360911905"/>
<line stroke="#834" stroke-width="2" x1="850.333553203" y1="335.068911178" x2="911.013215804" y2="550.346909196"/>
<line stroke="#834" stroke-width="2" x1="904.843061238" y1="553.878123595" x2="906.233766234" y2="562.1875"/>
<line stroke="#834" stroke-width="2" x1="779.217744273" y1="245.892644273" x2="804.692342971" y2="285.572713819"/>
<line stroke="#834" stroke-width="2" x1="690.724637681" y1="201.944444444" x2="906.233766234" y2="562.1875"/>
<line stroke="#834" stroke-width="2" x1="763.044118314" y1="183.188814299" x2="1006.48069431" y2="313.836128711"/>
<line stroke="#834" stroke-width="2" x1="690.724637681" y1="201.944444444" x2="779.217744273" y2="245.892644273"/>
<line stroke="#834" stroke-width="2" x1="763.044118314" y1="183.188814299" x2="719.800222967" y2="250.546922472"/>
<line stroke="#834" stroke-width="2" x1="970.942272872" y1="303.819037126" x2="900.716429144" y2="552.964770619"/>
<line stroke="#834" stroke-width="2" x1="970.942272872" y1="303.819037126" x2="1006.48069431" y2="313.836128711"/>
<line stroke="#834" stroke-width="2" x1="1093.84615385" y1="97.397260274" x2="690.724637681" y2="201.944444444"/>
<line stroke="#834" stroke-width="2" x1="1093.84615385" y1="97.397260274" x2="906.233766234" y2="562.1875"/>
<line stroke="#834" stroke-width="2" x1="1058.41352885" y1="106.586502283" x2="1048.47970467" y2="126.079531365"/>
<line stroke="#834" stroke-width="2" x1="779.217744273" y1="245.892644273" x2="719.800222967" y2="250.546922472"/>
<line stroke="#834" stroke-width="2" x1="1008.33725164" y1="119.573489" x2="781.902921526" y2="354.357215974"/>
<line stroke="#834" stroke-width="2" x1="804.692342971" y1="285.572713819" x2="758.496145012" y2="315.230665982"/>
<line stroke="#834" stroke-width="2" x1="1093.84615385" y1="97.397260274" x2="1069.38119255" y2="113.961518432"/>
<line stroke="#834" stroke-width="2" x1="1077.52992822" y1="137.819017679" x2="758.496145012" y2="315.230665982"/>
<line stroke="#834" stroke-width="2" x1="850.333553203" y1="335.068911178" x2="781.902921526" y2="354.357215974"/>
<line stroke="#834" stroke-width="2" x1="900.716429144" y1="552.964770619" x2="904.843061238" y2="553.878123595"/>
<line stroke="#834" stroke-width="2" x1="904.843061238" y1="553.878123595" x2="902.222769256" y2="555.482754745"/>
<line stroke="#834" stroke-width="2" x1="911.013215804" y1="550.346909196" x2="902.222769256" y2="555.482754745"/>
</svg>
