<?xml version="1.0" encoding="iso-8859-1"?><svg version="1.1" xmlns="http://www.w3.org/2000/svg" xmlns:xlink="http://www.w3.org/1999/xlink" height="640" width="1210" viewBox="0 0 640 1210">
<polygon fill="none" stroke="#ff8a65" stroke-width="2" points="186.362585908,70.0 309.370231792,179.678644008 311.217694759,214.752729397 241.569389658,236.087876451 215.231683382,185.505401356 97.0241885197,192.821919414 70.0,142.06552091 128.348665357,110.998987843 140.874930083,78.2790255336"/>
<line stroke="#834" stroke-width="2" x1="763.462435092" y1="76.3305156812" x2="640.0" y2="142.06552091"/>
<line stroke="#834" stroke-width="2" x1="777.208482602" y1="88.5870533989" x2="745.207789992" y2="116.977624066"/>
<line stroke="#834" stroke-width="2" x1="710.874930083" y1="78.2790255336" x2="667.02418852" y2="192.821919414"/>
<line stroke="#834" stroke-width="2" x1="777.208482602" y1="88.5870533989" x2="752.859232299" y2="123.332990307"/>
<line stroke="#834" stroke-width="2" x1="756.362585908" y1="70.0" x2="710.874930083" y2="78.2790255336"/>
<line stroke="#834" stroke-width="2" x1="763.462435092" y1="76.3305156812" x2="729.776440086" y2="161.956320587"/>
<line stroke="#834" stroke-width="2" x1="756.362585908" y1="70.0" x2="752.859232299" y2="123.332990307"/>
<line stroke="#834" stroke-width="2" x1="879.370231792" y1="179.678644008" x2="881.217694759" y2="214.752729397"/>
<line stroke="#834" stroke-width="2" x1="809.336543472" y1="216.662271252" x2="811.569389658" y2="236.087876451"/>
<line stroke="#834" stroke-width="2" x1="756.362585908" y1="70.0" x2="879.370231792" y2="179.678644008"/>
<line stroke="#834" stroke-width="2" x1="752.859232299" y1="123.332990307" x2="811.569389658" y2="236.087876451"/>
<line stroke="#834" stroke-width="2" x1="879.370231792" y1="179.678644008" x2="667.02418852" y2="192.821919414"/>
<line stroke="#834" stroke-width="2" x1="710.874930083" y1="78.2790255336" x2="745.207789992" y2="116.977624066"/>
<line stroke="#834" stroke-width="2" x1="881.217694759" y1="214.752729397" x2="811.569389658" y2="236.087876451"/>
<line stroke="#834" stroke-width="2" x1="880.885090325" y1="208.438234044" x2="809.336543472" y2="216.662271252"/>
<line stroke="#834" stroke-width="2" x1="847.139450343" y1="208.128029941" x2="880.885090325" y2="208.438234044"/>
<line stroke="#834" stroke-width="2" x1="729.776440086" y1="161.956320587" x2="847.139450343" y2="208.128029941"/>
<line stroke="#834" stroke-width="2" x1="847.139450343" y1="208.128029941" x2="881.217694759" y2="214.752729397"/>
<line stroke="#834" stroke-width="2" x1="640.0" y1="142.06552091" x2="667.02418852" y2="192.821919414"/>
</svg>
