<?xml version="1.0" encoding="iso-8859-1"?><svg version="1.1" xmlns="http://www.w3.org/2000/svg" xmlns:xlink="http://www.w3.org/1999/xlink" height="640" width="1210" viewBox="0 0 640 1210">
<polygon fill="none" stroke="#ff8a65" stroke-width="2" points="194.121549846,70.0 227.058440509,83.6865065622 222.73589593,109.609445532 238.116451046,130.899998822 231.712983175,144.893255919 216.96934291,144.192316631 204.252282769,220.458406637 92.8297369456,275.459183195 70.0,265.108952942 101.160166655,196.378268648 97.964546607,191.494303897 110.628864769,175.492947079 110.842461993,175.02181085 110.996384349,175.028586356 114.168260185,171.020923536 117.591795505,168.780874997 118.276798762,165.829788022"/>
<line stroke="#834" stroke-width="2" x1="775.964479235" y1="74.9211788829" x2="758.532370999" y2="77.0619234224"/>
<line stroke="#834" stroke-width="2" x1="764.121549846" y1="70.0" x2="688.276798762" y2="165.829788022"/>
<line stroke="#834" stroke-width="2" x1="684.168260185" y1="171.020923536" x2="667.964546607" y2="191.494303897"/>
<line stroke="#834" stroke-width="2" x1="794.537420781" y1="98.8054346266" x2="684.168260185" y2="171.020923536"/>
<line stroke="#834" stroke-width="2" x1="795.121730853" y1="112.912040606" x2="688.276798762" y2="165.829788022"/>
<line stroke="#834" stroke-width="2" x1="680.842461993" y1="175.02181085" x2="640.0" y2="265.108952942"/>
<line stroke="#834" stroke-width="2" x1="795.121730853" y1="112.912040606" x2="790.497230782" y2="117.591997599"/>
<line stroke="#834" stroke-width="2" x1="797.058440509" y1="83.6865065622" x2="784.675039063" y2="100.943546417"/>
<line stroke="#834" stroke-width="2" x1="684.168260185" y1="171.020923536" x2="675.730591164" y2="194.308174602"/>
<line stroke="#834" stroke-width="2" x1="808.116451046" y1="130.899998822" x2="764.978391306" y2="135.646453378"/>
<line stroke="#834" stroke-width="2" x1="764.121549846" y1="70.0" x2="797.058440509" y2="83.6865065622"/>
<line stroke="#834" stroke-width="2" x1="688.276798762" y1="165.829788022" x2="662.829736946" y2="275.459183195"/>
<line stroke="#834" stroke-width="2" x1="808.116451046" y1="130.899998822" x2="801.712983175" y2="144.893255919"/>
<line stroke="#834" stroke-width="2" x1="708.359688285" y1="140.455071666" x2="801.712983175" y2="144.893255919"/>
<line stroke="#834" stroke-width="2" x1="797.058440509" y1="83.6865065622" x2="774.252282769" y2="220.458406637"/>
<line stroke="#834" stroke-width="2" x1="754.560174392" y1="82.080790956" x2="784.675039063" y2="100.943546417"/>
<line stroke="#834" stroke-width="2" x1="774.252282769" y1="220.458406637" x2="662.829736946" y2="275.459183195"/>
<line stroke="#834" stroke-width="2" x1="757.325440175" y1="78.5868796438" x2="786.435764518" y2="100.888480486"/>
<line stroke="#834" stroke-width="2" x1="757.325440175" y1="78.5868796438" x2="784.675039063" y2="100.943546417"/>
<line stroke="#834" stroke-width="2" x1="680.842461993" y1="175.02181085" x2="689.474595539" y2="175.401788611"/>
<line stroke="#834" stroke-width="2" x1="775.964479235" y1="74.9211788829" x2="794.537420781" y2="98.8054346266"/>
<line stroke="#834" stroke-width="2" x1="758.532370999" y1="77.0619234224" x2="764.978391306" y2="135.646453378"/>
<line stroke="#834" stroke-width="2" x1="754.560174392" y1="82.080790956" x2="790.497230782" y2="117.591997599"/>
<line stroke="#834" stroke-width="2" x1="764.121549846" y1="70.0" x2="808.116451046" y2="130.899998822"/>
<line stroke="#834" stroke-width="2" x1="786.435764518" y1="100.888480486" x2="801.712983175" y2="144.893255919"/>
<line stroke="#834" stroke-width="2" x1="708.359688285" y1="140.455071666" x2="736.629303361" y2="239.029989871"/>
<line stroke="#834" stroke-width="2" x1="680.842461993" y1="175.02181085" x2="708.237572688" y2="253.044812664"/>
<line stroke="#834" stroke-width="2" x1="689.474595539" y1="175.401788611" x2="774.252282769" y2="220.458406637"/>
<line stroke="#834" stroke-width="2" x1="667.964546607" y1="191.494303897" x2="675.730591164" y2="194.308174602"/>
<line stroke="#834" stroke-width="2" x1="689.474595539" y1="175.401788611" x2="736.629303361" y2="239.029989871"/>
<line stroke="#834" stroke-width="2" x1="667.964546607" y1="191.494303897" x2="708.237572688" y2="253.044812664"/>
<line stroke="#834" stroke-width="2" x1="640.0" y1="265.108952942" x2="662.829736946" y2="275.459183195"/>
</svg>
