<?xml version="1.0" encoding="iso-8859-1"?><svg version="1.1" xmlns="http://www.w3.org/2000/svg" xmlns:xlink="http://www.w3.org/1999/xlink" height="640" width="1210" viewBox="0 0 640 1210">
<polygon fill="none" stroke="#ff8a65" stroke-width="2" points="518.417168843,124.800377072 570.0,188.562967024 446.766497038,288.256737006 268.655435161,203.249184747 80.1211912043,225.367042484 77.5158083894,208.17740392 78.626029961,207.424810731 78.3730792839,204.389352388 83.76700197,203.939866267 160.755222108,151.751355789"/>
<line stroke="#834" stroke-width="2" x1="1088.41716884" y1="124.800377072" x2="1140.0" y2="188.562967024"/>
<line stroke="#834" stroke-width="2" x1="1046.2739674" y1="127.976002926" x2="1074.31262822" y2="148.885552029"/>
<line stroke="#834" stroke-width="2" x1="1016.76649704" y1="130.199485779" x2="1024.53331888" y2="181.442957388"/>
<line stroke="#834" stroke-width="2" x1="1023.83817659" y1="173.101111913" x2="1024.53331888" y2="181.442957388"/>
<line stroke="#834" stroke-width="2" x1="739.814966907" y1="151.068674863" x2="749.608735627" y2="160.749623605"/>
<line stroke="#834" stroke-width="2" x1="1016.76649704" y1="130.199485779" x2="1016.76649704" y2="288.256737006"/>
<line stroke="#834" stroke-width="2" x1="648.373079284" y1="204.389352388" x2="650.121191204" y2="225.367042484"/>
<line stroke="#834" stroke-width="2" x1="647.515808389" y1="208.17740392" x2="650.121191204" y2="225.367042484"/>
<line stroke="#834" stroke-width="2" x1="730.755222108" y1="151.751355789" x2="1016.76649704" y2="288.256737006"/>
<line stroke="#834" stroke-width="2" x1="936.398044928" y1="181.568246314" x2="929.16688382" y2="246.447830697"/>
<line stroke="#834" stroke-width="2" x1="680.536341387" y1="214.972654367" x2="687.694892406" y2="220.95909112"/>
<line stroke="#834" stroke-width="2" x1="739.814966907" y1="151.068674863" x2="687.694892406" y2="220.95909112"/>
<line stroke="#834" stroke-width="2" x1="749.608735627" y1="160.749623605" x2="936.398044928" y2="181.568246314"/>
<line stroke="#834" stroke-width="2" x1="1088.41716884" y1="124.800377072" x2="730.755222108" y2="151.751355789"/>
<line stroke="#834" stroke-width="2" x1="680.536341387" y1="214.972654367" x2="672.405051772" y2="222.752815766"/>
<line stroke="#834" stroke-width="2" x1="730.755222108" y1="151.751355789" x2="647.515808389" y2="208.17740392"/>
<line stroke="#834" stroke-width="2" x1="647.515808389" y1="208.17740392" x2="672.405051772" y2="222.752815766"/>
<line stroke="#834" stroke-width="2" x1="1023.83817659" y1="173.101111913" x2="648.373079284" y2="204.389352388"/>
<line stroke="#834" stroke-width="2" x1="761.92911629" y1="212.25031775" x2="680.536341387" y2="214.972654367"/>
<line stroke="#834" stroke-width="2" x1="1024.53331888" y1="181.442957388" x2="650.121191204" y2="225.367042484"/>
<line stroke="#834" stroke-width="2" x1="1074.31262822" y1="148.885552029" x2="761.92911629" y2="212.25031775"/>
<line stroke="#834" stroke-width="2" x1="1088.41716884" y1="124.800377072" x2="1074.31262822" y2="148.885552029"/>
<line stroke="#834" stroke-width="2" x1="1046.2739674" y1="127.976002926" x2="929.16688382" y2="246.447830697"/>
<line stroke="#834" stroke-width="2" x1="1140.0" y1="188.562967024" x2="1016.76649704" y2="288.256737006"/>
</svg>
