<?xml version="1.0" encoding="iso-8859-1"?><svg version="1.1" xmlns="http://www.w3.org/2000/svg" xmlns:xlink="http://www.w3.org/1999/xlink" height="640" width="1210" viewBox="0 0 640 1210">
<polygon fill="none" stroke="#ff8a65" stroke-width="2" points="505.005468004,70.0 508.400410851,71.2712998782 506.569845024,76.1597345144 506.580766232,76.2027367724 506.528650298,76.2697429742 494.557834781,108.237208083 488.840493651,160.196166749 457.330734125,176.185114565 551.312691715,390.971244503 142.160823346,570.0 121.511601258,522.808319681 293.992605548,259.067524761"/>
<line stroke="#834" stroke-width="2" x1="1075.005468" y1="70.0" x2="1078.40041085" y2="71.2712998782"/>
<line stroke="#834" stroke-width="2" x1="1007.38083688" y1="130.591669487" x2="1121.31269171" y2="390.971244503"/>
<line stroke="#834" stroke-width="2" x1="1007.38083688" y1="130.591669487" x2="1058.84049365" y2="160.196166749"/>
<line stroke="#834" stroke-width="2" x1="1075.005468" y1="70.0" x2="1076.58076623" y2="76.2027367724"/>
<line stroke="#834" stroke-width="2" x1="983.11938713" y1="152.329928464" x2="1028.99912287" y2="430.00042699"/>
<line stroke="#834" stroke-width="2" x1="983.11938713" y1="152.329928464" x2="1041.87760987" y2="168.80361624"/>
<line stroke="#834" stroke-width="2" x1="1068.08277071" y1="76.2027367724" x2="1076.58076623" y2="76.2027367724"/>
<line stroke="#834" stroke-width="2" x1="718.672949273" y1="481.27588806" x2="729.220868415" y2="522.808319681"/>
<line stroke="#834" stroke-width="2" x1="1068.08277071" y1="76.2027367724" x2="1058.84049365" y2="160.196166749"/>
<line stroke="#834" stroke-width="2" x1="691.511601258" y1="522.808319681" x2="712.160823346" y2="570.0"/>
<line stroke="#834" stroke-width="2" x1="1078.40041085" y1="71.2712998782" x2="1041.87760987" y2="168.80361624"/>
<line stroke="#834" stroke-width="2" x1="863.992605548" y1="259.067524761" x2="691.511601258" y2="522.808319681"/>
<line stroke="#834" stroke-width="2" x1="1076.58076623" y1="76.2027367724" x2="729.220868415" y2="522.808319681"/>
<line stroke="#834" stroke-width="2" x1="1075.005468" y1="70.0" x2="863.992605548" y2="259.067524761"/>
<line stroke="#834" stroke-width="2" x1="1058.84049365" y1="160.196166749" x2="863.992605548" y2="259.067524761"/>
<line stroke="#834" stroke-width="2" x1="1028.99912287" y1="430.00042699" x2="718.672949273" y2="481.27588806"/>
<line stroke="#834" stroke-width="2" x1="1121.31269171" y1="390.971244503" x2="712.160823346" y2="570.0"/>
<line stroke="#834" stroke-width="2" x1="691.511601258" y1="522.808319681" x2="729.220868415" y2="522.808319681"/>
</svg>
