<?xml version="1.0" encoding="iso-8859-1"?><svg version="1.1" xmlns="http://www.w3.org/2000/svg" xmlns:xlink="http://www.w3.org/1999/xlink" height="640" width="1210" viewBox="0 0 640 1210">
<polygon fill="none" stroke="#ff8a65" stroke-width="2" points="410.189873418,117.46835443 475.063291139,119.050632911 570.0,218.734177215 407.816455696,214.778481013 406.234177215,279.651898734 568.417721519,283.607594937 468.734177215,378.544303797 403.860759494,376.962025316 308.924050633,277.278481013 310.506329114,212.405063291"/>
<line stroke="#834" stroke-width="2" x1="1045.06329114" y1="119.050632911" x2="1140.0" y2="218.734177215"/>
<line stroke="#834" stroke-width="2" x1="913.734177215" y1="180.759493671" x2="977.025316456" y2="247.215189873"/>
<line stroke="#834" stroke-width="2" x1="943.797468354" y1="278.860759494" x2="1038.73417722" y2="378.544303797"/>
<line stroke="#834" stroke-width="2" x1="878.924050633" y1="277.278481013" x2="973.860759494" y2="376.962025316"/>
<line stroke="#834" stroke-width="2" x1="880.506329114" y1="212.405063291" x2="878.924050633" y2="277.278481013"/>
<line stroke="#834" stroke-width="2" x1="980.189873418" y1="117.46835443" x2="973.860759494" y2="376.962025316"/>
<line stroke="#834" stroke-width="2" x1="980.189873418" y1="117.46835443" x2="1045.06329114" y2="119.050632911"/>
<line stroke="#834" stroke-width="2" x1="880.506329114" y1="212.405063291" x2="1140.0" y2="218.734177215"/>
<line stroke="#834" stroke-width="2" x1="980.189873418" y1="117.46835443" x2="880.506329114" y2="212.405063291"/>
<line stroke="#834" stroke-width="2" x1="878.924050633" y1="277.278481013" x2="1138.41772152" y2="283.607594937"/>
<line stroke="#834" stroke-width="2" x1="1045.06329114" y1="119.050632911" x2="945.379746835" y2="213.987341772"/>
<line stroke="#834" stroke-width="2" x1="977.025316456" y1="247.215189873" x2="910.569620253" y2="310.506329114"/>
<line stroke="#834" stroke-width="2" x1="973.860759494" y1="376.962025316" x2="1038.73417722" y2="378.544303797"/>
<line stroke="#834" stroke-width="2" x1="1138.41772152" y1="283.607594937" x2="1038.73417722" y2="378.544303797"/>
</svg>
