<?xml version="1.0" encoding="iso-8859-1"?><svg version="1.1" xmlns="http://www.w3.org/2000/svg" xmlns:xlink="http://www.w3.org/1999/xlink" height="640" width="1210" viewBox="0 0 640 1210">
<polygon fill="none" stroke="#ff8a65" stroke-width="2" points="268.529411765,161.549295775 371.470588235,161.549295775 455.135135135,221.898734177 485.384615385,320.0 455.135135135,418.101265823 371.470588235,478.450704225 268.529411765,478.450704225 184.864864865,418.101265823 154.615384615,320.0 184.864864865,221.898734177"/>
<line stroke="#834" stroke-width="2" x1="1025.13513514" y1="221.898734177" x2="1055.38461538" y2="320.0"/>
<line stroke="#834" stroke-width="2" x1="1004.34227168" y1="360.729990033" x2="1025.13513514" y2="418.101265823"/>
<line stroke="#834" stroke-width="2" x1="941.470588235" y1="161.549295775" x2="1025.13513514" y2="221.898734177"/>
<line stroke="#834" stroke-width="2" x1="1009.04957138" y1="360.626859517" x2="1026.59059283" y2="413.381110598"/>
<line stroke="#834" stroke-width="2" x1="901.643257382" y1="161.549295775" x2="917.837115246" y2="213.186976315"/>
<line stroke="#834" stroke-width="2" x1="845.00485401" y1="161.549295775" x2="1021.58767165" y2="420.660144546"/>
<line stroke="#834" stroke-width="2" x1="884.378408269" y1="161.549295775" x2="894.100263503" y2="195.71875704"/>
<line stroke="#834" stroke-width="2" x1="964.397249387" y1="345.67813762" x2="1021.58767165" y2="420.660144546"/>
<line stroke="#834" stroke-width="2" x1="844.993127944" y1="161.549295775" x2="866.217254685" y2="225.380408152"/>
<line stroke="#834" stroke-width="2" x1="848.772377495" y1="161.549295775" x2="917.837115246" y2="213.186976315"/>
<line stroke="#834" stroke-width="2" x1="838.529411765" y1="161.549295775" x2="890.0" y2="198.676384958"/>
<line stroke="#834" stroke-width="2" x1="844.673900395" y1="162.034924407" x2="894.100263503" y2="195.71875704"/>
<line stroke="#834" stroke-width="2" x1="754.864864865" y1="221.898734177" x2="775.65772832" y2="279.270009967"/>
<line stroke="#834" stroke-width="2" x1="818.003013377" y1="416.717995118" x2="838.529411765" y2="478.450704225"/>
<line stroke="#834" stroke-width="2" x1="758.412328347" y1="219.339855454" x2="934.99514599" y2="478.450704225"/>
<line stroke="#834" stroke-width="2" x1="758.412328347" y1="219.339855454" x2="871.123209572" y2="367.114390801"/>
<line stroke="#834" stroke-width="2" x1="724.615384615" y1="320.0" x2="754.864864865" y2="418.101265823"/>
<line stroke="#834" stroke-width="2" x1="992.828442878" y1="323.993042382" x2="1043.08728429" y2="359.88113966"/>
<line stroke="#834" stroke-width="2" x1="1006.96291872" y1="367.960829804" x2="1034.75559682" y2="386.901408451"/>
<line stroke="#834" stroke-width="2" x1="754.864864865" y1="221.898734177" x2="724.615384615" y2="320.0"/>
<line stroke="#834" stroke-width="2" x1="844.993127944" y1="161.549295775" x2="843.74274121" y2="165.309807436"/>
<line stroke="#834" stroke-width="2" x1="884.378408269" y1="161.549295775" x2="866.217254685" y2="225.380408152"/>
<line stroke="#834" stroke-width="2" x1="801.702769767" y1="386.901408451" x2="785.31055775" y2="440.062544949"/>
<line stroke="#834" stroke-width="2" x1="901.643257382" y1="161.549295775" x2="890.0" y2="198.676384958"/>
<line stroke="#834" stroke-width="2" x1="838.529411765" y1="161.549295775" x2="941.470588235" y2="161.549295775"/>
<line stroke="#834" stroke-width="2" x1="736.912715708" y1="280.11886034" x2="865.137558779" y2="371.679778024"/>
<line stroke="#834" stroke-width="2" x1="917.837115246" y1="213.186976315" x2="865.137558779" y2="371.679778024"/>
<line stroke="#834" stroke-width="2" x1="1009.04957138" y1="360.626859517" x2="1006.96291872" y2="367.960829804"/>
<line stroke="#834" stroke-width="2" x1="845.00485401" y1="161.549295775" x2="844.673900395" y2="162.034924407"/>
<line stroke="#834" stroke-width="2" x1="992.828442878" y1="323.993042382" x2="941.470588235" y2="478.450704225"/>
<line stroke="#834" stroke-width="2" x1="1055.38461538" y1="320.0" x2="1025.13513514" y2="418.101265823"/>
<line stroke="#834" stroke-width="2" x1="801.702769767" y1="386.901408451" x2="935.326099605" y2="477.965075593"/>
<line stroke="#834" stroke-width="2" x1="838.529411765" y1="161.549295775" x2="754.864864865" y2="221.898734177"/>
<line stroke="#834" stroke-width="2" x1="848.772377495" y1="161.549295775" x2="843.74274121" y2="165.309807436"/>
<line stroke="#834" stroke-width="2" x1="1025.13513514" y1="221.898734177" x2="866.217254685" y2="225.380408152"/>
<line stroke="#834" stroke-width="2" x1="754.864864865" y1="418.101265823" x2="838.529411765" y2="478.450704225"/>
<line stroke="#834" stroke-width="2" x1="775.65772832" y1="279.270009967" x2="724.615384615" y2="320.0"/>
<line stroke="#834" stroke-width="2" x1="941.470588235" y1="161.549295775" x2="890.0" y2="198.676384958"/>
<line stroke="#834" stroke-width="2" x1="775.65772832" y1="279.270009967" x2="736.912715708" y2="280.11886034"/>
<line stroke="#834" stroke-width="2" x1="935.326099605" y1="477.965075593" x2="934.99514599" y2="478.450704225"/>
<line stroke="#834" stroke-width="2" x1="1043.08728429" y1="359.88113966" x2="1004.34227168" y2="360.729990033"/>
<line stroke="#834" stroke-width="2" x1="871.123209572" y1="367.114390801" x2="865.137558779" y2="371.679778024"/>
<line stroke="#834" stroke-width="2" x1="818.003013377" y1="416.717995118" x2="785.31055775" y2="440.062544949"/>
<line stroke="#834" stroke-width="2" x1="801.702769767" y1="386.901408451" x2="1034.75559682" y2="386.901408451"/>
<line stroke="#834" stroke-width="2" x1="992.828442878" y1="323.993042382" x2="964.397249387" y2="345.67813762"/>
<line stroke="#834" stroke-width="2" x1="818.003013377" y1="416.717995118" x2="754.864864865" y2="418.101265823"/>
<line stroke="#834" stroke-width="2" x1="1055.38461538" y1="320.0" x2="1004.34227168" y2="360.729990033"/>
<line stroke="#834" stroke-width="2" x1="1026.59059283" y1="413.381110598" x2="1019.91770835" y2="418.47066604"/>
<line stroke="#834" stroke-width="2" x1="838.529411765" y1="478.450704225" x2="941.470588235" y2="478.450704225"/>
<line stroke="#834" stroke-width="2" x1="1025.13513514" y1="418.101265823" x2="941.470588235" y2="478.450704225"/>
</svg>
