<?xml version="1.0" encoding="iso-8859-1"?><svg version="1.1" xmlns="http://www.w3.org/2000/svg" xmlns:xlink="http://www.w3.org/1999/xlink" height="640" width="1210" viewBox="0 0 640 1210">
<polygon fill="none" stroke="#ff8a65" stroke-width="2" points="154.615384615,131.111111111 412.465753425,196.865671642 562.1875,252.608695652 562.1875,549.452054795 492.077922078,562.1875 200.136986301,562.1875 77.8125,430.294117647 77.8125,186.161616162"/>
<line stroke="#834" stroke-width="2" x1="982.465753425" y1="196.865671642" x2="1120.70219577" y2="265.894994084"/>
<line stroke="#834" stroke-width="2" x1="724.615384615" y1="131.111111111" x2="770.197106341" y2="225.587792932"/>
<line stroke="#834" stroke-width="2" x1="777.382687581" y1="554.375" x2="777.971655363" y2="562.1875"/>
<line stroke="#834" stroke-width="2" x1="982.465753425" y1="196.865671642" x2="1132.1875" y2="252.608695652"/>
<line stroke="#834" stroke-width="2" x1="647.8125" y1="186.161616162" x2="647.8125" y2="430.294117647"/>
<line stroke="#834" stroke-width="2" x1="655.625" y1="191.761432794" x2="655.625" y2="438.71775449"/>
<line stroke="#834" stroke-width="2" x1="1124.375" y1="249.700017487" x2="1124.375" y2="548.03290967"/>
<line stroke="#834" stroke-width="2" x1="1132.1875" y1="252.608695652" x2="1132.1875" y2="549.452054795"/>
<line stroke="#834" stroke-width="2" x1="787.123069133" y1="440.796445572" x2="777.971655363" y2="562.1875"/>
<line stroke="#834" stroke-width="2" x1="784.008821478" y1="146.257063228" x2="770.197106341" y2="225.587792932"/>
<line stroke="#834" stroke-width="2" x1="724.615384615" y1="131.111111111" x2="982.465753425" y2="196.865671642"/>
<line stroke="#834" stroke-width="2" x1="784.008821478" y1="146.257063228" x2="755.309219117" y2="230.87192375"/>
<line stroke="#834" stroke-width="2" x1="770.197106341" y1="225.587792932" x2="1053.15023513" y2="379.937253501"/>
<line stroke="#834" stroke-width="2" x1="647.8125" y1="186.161616162" x2="655.625" y2="191.761432794"/>
<line stroke="#834" stroke-width="2" x1="724.615384615" y1="131.111111111" x2="647.8125" y2="186.161616162"/>
<line stroke="#834" stroke-width="2" x1="1116.82753858" y1="246.890016048" x2="1113.48900042" y2="262.293035157"/>
<line stroke="#834" stroke-width="2" x1="1124.22452976" y1="249.643995793" x2="1120.70219577" y2="265.894994084"/>
<line stroke="#834" stroke-width="2" x1="647.8125" y1="194.411270448" x2="755.309219117" y2="230.87192375"/>
<line stroke="#834" stroke-width="2" x1="655.625" y1="191.761432794" x2="647.8125" y2="194.411270448"/>
<line stroke="#834" stroke-width="2" x1="647.8125" y1="430.294117647" x2="770.136986301" y2="562.1875"/>
<line stroke="#834" stroke-width="2" x1="1132.10074339" y1="527.469205077" x2="1124.375" y2="548.03290967"/>
<line stroke="#834" stroke-width="2" x1="1132.10074339" y1="527.469205077" x2="1132.1875" y2="527.501799364"/>
<line stroke="#834" stroke-width="2" x1="1116.82753858" y1="246.890016048" x2="1046.29179203" y2="376.196008451"/>
<line stroke="#834" stroke-width="2" x1="1124.22452976" y1="249.643995793" x2="1053.15023513" y2="379.937253501"/>
<line stroke="#834" stroke-width="2" x1="777.382687581" y1="554.375" x2="770.136986301" y2="562.1875"/>
<line stroke="#834" stroke-width="2" x1="1019.06952554" y1="554.375" x2="1039.86415125" y2="562.1875"/>
<line stroke="#834" stroke-width="2" x1="1124.375" y1="249.700017487" x2="1113.48900042" y2="262.293035157"/>
<line stroke="#834" stroke-width="2" x1="1132.1875" y1="252.608695652" x2="1120.70219577" y2="265.894994084"/>
<line stroke="#834" stroke-width="2" x1="647.8125" y1="430.294117647" x2="787.123069133" y2="440.796445572"/>
<line stroke="#834" stroke-width="2" x1="655.625" y1="438.71775449" x2="786.5357679" y2="448.58683924"/>
<line stroke="#834" stroke-width="2" x1="1124.375" y1="548.03290967" x2="1132.1875" y2="549.452054795"/>
<line stroke="#834" stroke-width="2" x1="1019.06952554" y1="554.375" x2="1062.07792208" y2="562.1875"/>
<line stroke="#834" stroke-width="2" x1="777.382687581" y1="554.375" x2="1019.06952554" y2="554.375"/>
<line stroke="#834" stroke-width="2" x1="770.136986301" y1="562.1875" x2="1062.07792208" y2="562.1875"/>
<line stroke="#834" stroke-width="2" x1="1132.1875" y1="549.452054795" x2="1062.07792208" y2="562.1875"/>
<line stroke="#834" stroke-width="2" x1="1132.1875" y1="527.501799364" x2="1039.86415125" y2="562.1875"/>
</svg>
