<?xml version="1.0" encoding="iso-8859-1"?><svg version="1.1" xmlns="http://www.w3.org/2000/svg" xmlns:xlink="http://www.w3.org/1999/xlink" height="640" width="1210" viewBox="0 0 640 1210">
<polygon fill="none" stroke="#ff8a65" stroke-width="2" points="318.297685719,345.100153921 432.629522677,502.096144046 334.06424533,412.704933376 338.222934734,430.536805829 284.575485367,569.695740365 284.285714286,570.0 283.981454651,569.710228919 223.61359046,433.332155689 226.898004644,415.318744124 174.236453202,467.980295567 159.989808052,467.980295567 132.807881773,426.551724138 165.634006405,459.37784877 239.349983378,347.025707637 279.236453202,362.980295567"/>
<line stroke="#834" stroke-width="2" x1="888.297685719" y1="345.100153921" x2="908.222934734" y2="430.536805829"/>
<line stroke="#834" stroke-width="2" x1="888.297685719" y1="345.100153921" x2="1002.62952268" y2="502.096144046"/>
<line stroke="#834" stroke-width="2" x1="852.575701865" y1="361.451766249" x2="853.33085406" y2="379.950536191"/>
<line stroke="#834" stroke-width="2" x1="849.3834688" y1="362.912999694" x2="854.575485367" y2="569.695740365"/>
<line stroke="#834" stroke-width="2" x1="849.236453202" y1="362.980295567" x2="851.330049261" y2="448.81773399"/>
<line stroke="#834" stroke-width="2" x1="849.08633164" y1="362.920246942" x2="853.981454651" y2="569.710228919"/>
<line stroke="#834" stroke-width="2" x1="845.826657032" y1="361.616377098" x2="845.974245288" y2="380.129965673"/>
<line stroke="#834" stroke-width="2" x1="793.61359046" y1="433.332155689" x2="853.981454651" y2="569.710228919"/>
<line stroke="#834" stroke-width="2" x1="809.349983378" y1="347.025707637" x2="793.61359046" y2="433.332155689"/>
<line stroke="#834" stroke-width="2" x1="852.575701865" y1="361.451766249" x2="1002.62952268" y2="502.096144046"/>
<line stroke="#834" stroke-width="2" x1="849.3834688" y1="362.912999694" x2="1002.62952268" y2="502.096144046"/>
<line stroke="#834" stroke-width="2" x1="849.236453202" y1="362.980295567" x2="1002.62952268" y2="502.096144046"/>
<line stroke="#834" stroke-width="2" x1="853.33085406" y1="379.950536191" x2="908.222934734" y2="430.536805829"/>
<line stroke="#834" stroke-width="2" x1="702.807881773" y1="426.551724138" x2="729.989808052" y2="467.980295567"/>
<line stroke="#834" stroke-width="2" x1="799.747368544" y1="399.691371403" x2="851.330049261" y2="448.81773399"/>
<line stroke="#834" stroke-width="2" x1="908.222934734" y1="430.536805829" x2="854.575485367" y2="569.695740365"/>
<line stroke="#834" stroke-width="2" x1="702.807881773" y1="426.551724138" x2="742.898305519" y2="467.980295567"/>
<line stroke="#834" stroke-width="2" x1="702.807881773" y1="426.551724138" x2="744.177014792" y2="467.980295567"/>
<line stroke="#834" stroke-width="2" x1="702.807881773" y1="426.551724138" x2="744.236453202" y2="467.980295567"/>
<line stroke="#834" stroke-width="2" x1="853.981454651" y1="569.710228919" x2="854.285714286" y2="570.0"/>
<line stroke="#834" stroke-width="2" x1="809.349983378" y1="347.025707637" x2="729.989808052" y2="467.980295567"/>
<line stroke="#834" stroke-width="2" x1="809.349983378" y1="347.025707637" x2="849.236453202" y2="362.980295567"/>
<line stroke="#834" stroke-width="2" x1="806.249791295" y1="364.028750735" x2="845.974245288" y2="380.129965673"/>
<line stroke="#834" stroke-width="2" x1="853.33085406" y1="379.950536191" x2="900.456411848" y2="397.235053273"/>
<line stroke="#834" stroke-width="2" x1="845.826657032" y1="361.616377098" x2="742.898305519" y2="467.980295567"/>
<line stroke="#834" stroke-width="2" x1="849.08633164" y1="362.920246942" x2="744.177014792" y2="467.980295567"/>
<line stroke="#834" stroke-width="2" x1="849.236453202" y1="362.980295567" x2="744.236453202" y2="467.980295567"/>
<line stroke="#834" stroke-width="2" x1="845.974245288" y1="380.129965673" x2="793.61359046" y2="433.332155689"/>
<line stroke="#834" stroke-width="2" x1="900.456411848" y1="397.235053273" x2="851.330049261" y2="448.81773399"/>
<line stroke="#834" stroke-width="2" x1="892.223115109" y1="361.931840398" x2="806.249791295" y2="364.028750735"/>
<line stroke="#834" stroke-width="2" x1="888.297685719" y1="345.100153921" x2="849.236453202" y2="362.980295567"/>
<line stroke="#834" stroke-width="2" x1="892.223115109" y1="361.931840398" x2="853.33085406" y2="379.950536191"/>
<line stroke="#834" stroke-width="2" x1="845.974245288" y1="380.129965673" x2="799.747368544" y2="399.691371403"/>
<line stroke="#834" stroke-width="2" x1="854.575485367" y1="569.695740365" x2="854.285714286" y2="570.0"/>
<line stroke="#834" stroke-width="2" x1="729.989808052" y1="467.980295567" x2="744.236453202" y2="467.980295567"/>
</svg>
