<?xml version="1.0" encoding="iso-8859-1"?><svg version="1.1" xmlns="http://www.w3.org/2000/svg" xmlns:xlink="http://www.w3.org/1999/xlink" height="640" width="1210" viewBox="0 0 640 1210">
<polygon fill="none" stroke="#ff8a65" stroke-width="2" points="422.305979737,198.58125935 455.663609463,207.433861085 436.701720931,566.902854318 416.750061655,570.0 415.39137639,561.247416728 379.306944128,551.671163551 227.21294033,348.652828125 365.836772674,242.019110937 362.707981711,221.863594329 399.454467048,216.159346034"/>
<line stroke="#834" stroke-width="2" x1="932.707981711" y1="221.863594329" x2="986.750061655" y2="570.0"/>
<line stroke="#834" stroke-width="2" x1="992.305979737" y1="198.58125935" x2="992.305979737" y2="422.305979737"/>
<line stroke="#834" stroke-width="2" x1="956.24991546" y1="279.025707752" x2="949.306944128" y2="551.671163551"/>
<line stroke="#834" stroke-width="2" x1="1025.66360946" y1="207.433861085" x2="1006.70172093" y2="566.902854318"/>
<line stroke="#834" stroke-width="2" x1="797.21294033" y1="348.652828125" x2="949.306944128" y2="551.671163551"/>
<line stroke="#834" stroke-width="2" x1="992.305979737" y1="198.58125935" x2="1025.66360946" y2="207.433861085"/>
<line stroke="#834" stroke-width="2" x1="894.805991466" y1="277.461025878" x2="852.391221137" y2="422.305979737"/>
<line stroke="#834" stroke-width="2" x1="1025.66360946" y1="207.433861085" x2="932.707981711" y2="221.863594329"/>
<line stroke="#834" stroke-width="2" x1="894.805991466" y1="277.461025878" x2="956.24991546" y2="279.025707752"/>
<line stroke="#834" stroke-width="2" x1="992.305979737" y1="198.58125935" x2="797.21294033" y2="348.652828125"/>
<line stroke="#834" stroke-width="2" x1="894.805991466" y1="277.461025878" x2="797.21294033" y2="348.652828125"/>
<line stroke="#834" stroke-width="2" x1="852.391221137" y1="422.305979737" x2="992.305979737" y2="422.305979737"/>
<line stroke="#834" stroke-width="2" x1="949.306944128" y1="551.671163551" x2="1006.70172093" y2="566.902854318"/>
<line stroke="#834" stroke-width="2" x1="1006.70172093" y1="566.902854318" x2="986.750061655" y2="570.0"/>
</svg>
