<?xml version="1.0" encoding="iso-8859-1"?><svg version="1.1" xmlns="http://www.w3.org/2000/svg" xmlns:xlink="http://www.w3.org/1999/xlink" height="640" width="1210" viewBox="0 0 640 1210">
<polygon fill="none" stroke="#ff8a65" stroke-width="2" points="200.15826726,70.0 348.174765675,109.390526089 332.406598186,548.646620446 145.947278755,542.826531654 145.818259601,529.038241979 146.939238579,529.027752806 147.557623004,520.425640368 84.7387605931,503.708125326 172.453813781,174.104123546 177.138887871,108.931825511 189.560004123,109.824748604"/>
<line stroke="#834" stroke-width="2" x1="770.15826726" y1="70.0" x2="918.174765675" y2="109.390526089"/>
<line stroke="#834" stroke-width="2" x1="856.228996457" y1="121.19670178" x2="896.576922496" y2="548.410036313"/>
<line stroke="#834" stroke-width="2" x1="747.138887871" y1="108.931825511" x2="917.75095424" y2="121.19670178"/>
<line stroke="#834" stroke-width="2" x1="715.818259601" y1="529.038241979" x2="715.947278755" y2="542.826531654"/>
<line stroke="#834" stroke-width="2" x1="856.228996457" y1="121.19670178" x2="917.75095424" y2="121.19670178"/>
<line stroke="#834" stroke-width="2" x1="747.138887871" y1="108.931825511" x2="715.947278755" y2="542.826531654"/>
<line stroke="#834" stroke-width="2" x1="918.174765675" y1="109.390526089" x2="902.406598186" y2="548.646620446"/>
<line stroke="#834" stroke-width="2" x1="770.15826726" y1="70.0" x2="654.738760593" y2="503.708125326"/>
<line stroke="#834" stroke-width="2" x1="918.174765675" y1="109.390526089" x2="856.228996457" y2="121.19670178"/>
<line stroke="#834" stroke-width="2" x1="900.35874706" y1="527.056299672" x2="896.576922496" y2="548.410036313"/>
<line stroke="#834" stroke-width="2" x1="900.35874706" y1="527.056299672" x2="903.153924785" y2="527.828236608"/>
<line stroke="#834" stroke-width="2" x1="654.738760593" y1="503.708125326" x2="813.131540992" y2="545.860013902"/>
<line stroke="#834" stroke-width="2" x1="900.35874706" y1="527.056299672" x2="903.17342089" y2="527.285130823"/>
<line stroke="#834" stroke-width="2" x1="903.17342089" y1="527.285130823" x2="715.818259601" y2="529.038241979"/>
<line stroke="#834" stroke-width="2" x1="896.576922496" y1="548.410036313" x2="902.406598186" y2="548.646620446"/>
<line stroke="#834" stroke-width="2" x1="715.947278755" y1="542.826531654" x2="902.406598186" y2="548.646620446"/>
<line stroke="#834" stroke-width="2" x1="903.153924785" y1="527.828236608" x2="813.131540992" y2="545.860013902"/>
</svg>
