<?xml version="1.0" encoding="iso-8859-1"?><svg version="1.1" xmlns="http://www.w3.org/2000/svg" xmlns:xlink="http://www.w3.org/1999/xlink" height="640" width="1210" viewBox="0 0 640 1210">
<polygon fill="none" stroke="#ff8a65" stroke-width="2" points="492.697872397,70.0 511.683539181,143.550623801 549.851387538,135.917054129 570.0,184.273724038 549.851387538,192.66897923 549.851387538,291.413171256 113.298117531,346.84850713 70.0,179.111256178"/>
<line stroke="#834" stroke-width="2" x1="1119.85138754" y1="135.917054129" x2="1140.0" y2="184.273724038"/>
<line stroke="#834" stroke-width="2" x1="1062.6978724" y1="70.0" x2="1119.85138754" y2="291.413171256"/>
<line stroke="#834" stroke-width="2" x1="683.298117531" y1="223.227708131" x2="683.298117531" y2="346.84850713"/>
<line stroke="#834" stroke-width="2" x1="1119.85138754" y1="135.917054129" x2="1119.85138754" y2="291.413171256"/>
<line stroke="#834" stroke-width="2" x1="733.990221287" y1="328.258283263" x2="732.218408592" y2="340.636406677"/>
<line stroke="#834" stroke-width="2" x1="640.0" y1="179.111256178" x2="683.298117531" y2="346.84850713"/>
<line stroke="#834" stroke-width="2" x1="683.298117531" y1="223.227708131" x2="732.218408592" y2="340.636406677"/>
<line stroke="#834" stroke-width="2" x1="1062.6978724" y1="70.0" x2="640.0" y2="179.111256178"/>
<line stroke="#834" stroke-width="2" x1="1119.85138754" y1="135.917054129" x2="683.298117531" y2="223.227708131"/>
<line stroke="#834" stroke-width="2" x1="733.990221287" y1="328.258283263" x2="778.981026026" y2="334.698296527"/>
<line stroke="#834" stroke-width="2" x1="1140.0" y1="184.273724038" x2="778.981026026" y2="334.698296527"/>
<line stroke="#834" stroke-width="2" x1="1119.85138754" y1="291.413171256" x2="683.298117531" y2="346.84850713"/>
</svg>
