<?xml version="1.0" encoding="iso-8859-1"?><svg version="1.1" xmlns="http://www.w3.org/2000/svg" xmlns:xlink="http://www.w3.org/1999/xlink" height="640" width="1210" viewBox="0 0 640 1210">
<polygon fill="none" stroke="#ff8a65" stroke-width="2" points="218.023549201,70.0 228.144817522,96.913372582 326.818454884,96.913372582 341.216974494,122.1107819 368.963462634,110.958194635 486.755829939,278.859972856 557.227714914,285.892696681 547.83207265,380.042365762 534.962152915,398.12279434 163.991611744,193.345790582 146.458444835,96.913372582"/>
<line stroke="#834" stroke-width="2" x1="938.963462634" y1="110.958194635" x2="1118.06753106" y2="366.253951602"/>
<line stroke="#834" stroke-width="2" x1="896.818454884" y1="96.913372582" x2="1052.33925705" y2="369.074776377"/>
<line stroke="#834" stroke-width="2" x1="1083.29572179" y1="316.690055881" x2="1093.00264858" y2="391.521107166"/>
<line stroke="#834" stroke-width="2" x1="788.023549201" y1="70.0" x2="860.717067805" y2="263.298674469"/>
<line stroke="#834" stroke-width="2" x1="831.051779265" y1="231.676711574" x2="851.866419202" y2="258.413086259"/>
<line stroke="#834" stroke-width="2" x1="716.458444835" y1="96.913372582" x2="733.991611744" y2="193.345790582"/>
<line stroke="#834" stroke-width="2" x1="838.314559973" y1="190.313757801" x2="1083.29572179" y2="316.690055881"/>
<line stroke="#834" stroke-width="2" x1="716.458444835" y1="96.913372582" x2="896.818454884" y2="96.913372582"/>
<line stroke="#834" stroke-width="2" x1="831.051779265" y1="231.676711574" x2="969.600021492" y2="316.54277491"/>
<line stroke="#834" stroke-width="2" x1="788.023549201" y1="70.0" x2="716.458444835" y2="96.913372582"/>
<line stroke="#834" stroke-width="2" x1="733.991611744" y1="193.345790582" x2="1104.96215291" y2="398.12279434"/>
<line stroke="#834" stroke-width="2" x1="1127.22771491" y1="285.892696681" x2="1117.83207265" y2="380.042365762"/>
<line stroke="#834" stroke-width="2" x1="838.314559973" y1="190.313757801" x2="813.974693845" y2="237.496724649"/>
<line stroke="#834" stroke-width="2" x1="896.818454884" y1="96.913372582" x2="813.974693845" y2="237.496724649"/>
<line stroke="#834" stroke-width="2" x1="938.963462634" y1="110.958194635" x2="733.991611744" y2="193.345790582"/>
<line stroke="#834" stroke-width="2" x1="851.866419202" y1="258.413086259" x2="1127.22771491" y2="285.892696681"/>
<line stroke="#834" stroke-width="2" x1="938.963462634" y1="110.958194635" x2="831.051779265" y2="231.676711574"/>
<line stroke="#834" stroke-width="2" x1="1022.54881192" y1="230.101133178" x2="860.717067805" y2="263.298674469"/>
<line stroke="#834" stroke-width="2" x1="1022.54881192" y1="230.101133178" x2="969.600021492" y2="316.54277491"/>
<line stroke="#834" stroke-width="2" x1="1118.06753106" y1="366.253951602" x2="1104.96215291" y2="398.12279434"/>
<line stroke="#834" stroke-width="2" x1="1118.06753106" y1="366.253951602" x2="1052.33925705" y2="369.074776377"/>
<line stroke="#834" stroke-width="2" x1="1117.83207265" y1="380.042365762" x2="1104.96215291" y2="398.12279434"/>
<line stroke="#834" stroke-width="2" x1="1117.83207265" y1="380.042365762" x2="1093.00264858" y2="391.521107166"/>
</svg>
