<?xml version="1.0" encoding="iso-8859-1"?><svg version="1.1" xmlns="http://www.w3.org/2000/svg" xmlns:xlink="http://www.w3.org/1999/xlink" height="640" width="1210" viewBox="0 0 640 1210">
<polygon fill="none" stroke="#ff8a65" stroke-width="2" points="146.335877863,70.0 190.865139949,103.396946565 230.305343511,73.8167938931 268.473282443,92.9007633588 268.473282443,169.236641221 230.305343511,188.320610687 185.776081425,154.923664122 146.335877863,184.503816794 108.167938931,165.419847328 108.167938931,89.0839694656"/>
<polygon fill="none" stroke="#ff8a65" stroke-width="2" points="146.335877863,117.709923664 146.335877863,136.79389313 159.058524173,127.251908397"/>
<polygon fill="none" stroke="#ff8a65" stroke-width="2" points="230.305343511,121.526717557 217.582697201,131.06870229 230.305343511,140.610687023"/>
<line stroke="#834" stroke-width="2" x1="800.305343511" y1="73.8167938931" x2="838.473282443" y2="92.9007633588"/>
<line stroke="#834" stroke-width="2" x1="716.335877863" y1="70.0" x2="762.13740458" y2="104.351145038"/>
<line stroke="#834" stroke-width="2" x1="762.13740458" y1="111.984732824" x2="838.473282443" y2="169.236641221"/>
<line stroke="#834" stroke-width="2" x1="678.167938931" y1="89.0839694656" x2="739.236641221" y2="134.885496183"/>
<line stroke="#834" stroke-width="2" x1="739.236641221" y1="142.519083969" x2="800.305343511" y2="188.320610687"/>
<line stroke="#834" stroke-width="2" x1="678.167938931" y1="89.0839694656" x2="678.167938931" y2="165.419847328"/>
<line stroke="#834" stroke-width="2" x1="716.335877863" y1="70.0" x2="716.335877863" y2="184.503816794"/>
<line stroke="#834" stroke-width="2" x1="800.305343511" y1="73.8167938931" x2="800.305343511" y2="188.320610687"/>
<line stroke="#834" stroke-width="2" x1="838.473282443" y1="92.9007633588" x2="838.473282443" y2="169.236641221"/>
<line stroke="#834" stroke-width="2" x1="716.335877863" y1="70.0" x2="678.167938931" y2="89.0839694656"/>
<line stroke="#834" stroke-width="2" x1="678.167938931" y1="165.419847328" x2="716.335877863" y2="184.503816794"/>
<line stroke="#834" stroke-width="2" x1="762.13740458" y1="104.351145038" x2="739.236641221" y2="134.885496183"/>
<line stroke="#834" stroke-width="2" x1="762.13740458" y1="111.984732824" x2="739.236641221" y2="142.519083969"/>
<line stroke="#834" stroke-width="2" x1="800.305343511" y1="73.8167938931" x2="678.167938931" y2="165.419847328"/>
<line stroke="#834" stroke-width="2" x1="838.473282443" y1="92.9007633588" x2="716.335877863" y2="184.503816794"/>
<line stroke="#834" stroke-width="2" x1="838.473282443" y1="169.236641221" x2="800.305343511" y2="188.320610687"/>
</svg>
