<?xml version="1.0" encoding="iso-8859-1"?><svg version="1.1" xmlns="http://www.w3.org/2000/svg" xmlns:xlink="http://www.w3.org/1999/xlink" height="640" width="1210" viewBox="0 0 640 1210">
<polygon fill="none" stroke="#ff8a65" stroke-width="2" points="70.0,293.214285714 293.214285714,293.214285714 516.428571429,404.821428571 516.428571429,516.428571429 460.625,516.428571429 445.0,570.0 337.857142857,538.75 333.798701299,516.428571429 70.0,516.428571429"/>
<line stroke="#834" stroke-width="2" x1="863.214285714" y1="293.214285714" x2="907.857142857" y2="538.75"/>
<line stroke="#834" stroke-width="2" x1="863.214285714" y1="293.214285714" x2="1030.625" y2="516.428571429"/>
<line stroke="#834" stroke-width="2" x1="640.0" y1="293.214285714" x2="640.0" y2="516.428571429"/>
<line stroke="#834" stroke-width="2" x1="1086.42857143" y1="404.821428571" x2="1086.42857143" y2="516.428571429"/>
<line stroke="#834" stroke-width="2" x1="863.214285714" y1="293.214285714" x2="1086.42857143" y2="404.821428571"/>
<line stroke="#834" stroke-width="2" x1="1030.625" y1="516.428571429" x2="1015.0" y2="570.0"/>
<line stroke="#834" stroke-width="2" x1="640.0" y1="293.214285714" x2="863.214285714" y2="293.214285714"/>
<line stroke="#834" stroke-width="2" x1="907.857142857" y1="538.75" x2="1015.0" y2="570.0"/>
<line stroke="#834" stroke-width="2" x1="1086.42857143" y1="404.821428571" x2="907.857142857" y2="538.75"/>
<line stroke="#834" stroke-width="2" x1="640.0" y1="516.428571429" x2="1086.42857143" y2="516.428571429"/>
</svg>
