<?xml version="1.0" encoding="iso-8859-1"?><svg version="1.1" xmlns="http://www.w3.org/2000/svg" xmlns:xlink="http://www.w3.org/1999/xlink" height="640" width="1210" viewBox="0 0 640 1210">
<polygon fill="none" stroke="#ff8a65" stroke-width="2" points="183.656029775,96.9876222027 269.21991012,203.942472635 328.997905604,522.758448548 222.628827111,564.100276626 154.360599496,570.0 144.176567374,550.26789407 144.549426795,548.412178955 160.150711952,551.546866009 169.183766968,522.758448548 70.0,522.758448548 70.0,207.199529863 148.274001829,131.297467484 151.217401563,118.215690887"/>
<line stroke="#834" stroke-width="2" x1="753.656029775" y1="96.9876222027" x2="839.21991012" y2="203.942472635"/>
<line stroke="#834" stroke-width="2" x1="839.21991012" y1="203.942472635" x2="898.997905604" y2="522.758448548"/>
<line stroke="#834" stroke-width="2" x1="640.0" y1="207.199529863" x2="640.0" y2="522.758448548"/>
<line stroke="#834" stroke-width="2" x1="779.656187401" y1="129.487819236" x2="777.134598708" y2="211.420054918"/>
<line stroke="#834" stroke-width="2" x1="721.217401563" y1="118.215690887" x2="652.889525944" y2="421.895138083"/>
<line stroke="#834" stroke-width="2" x1="721.217401563" y1="118.215690887" x2="779.656187401" y2="129.487819236"/>
<line stroke="#834" stroke-width="2" x1="714.549426795" y1="548.412178955" x2="714.176567374" y2="550.26789407"/>
<line stroke="#834" stroke-width="2" x1="839.21991012" y1="203.942472635" x2="724.360599496" y2="570.0"/>
<line stroke="#834" stroke-width="2" x1="753.656029775" y1="96.9876222027" x2="640.0" y2="207.199529863"/>
<line stroke="#834" stroke-width="2" x1="714.176567374" y1="550.26789407" x2="724.360599496" y2="570.0"/>
<line stroke="#834" stroke-width="2" x1="753.656029775" y1="96.9876222027" x2="721.217401563" y2="118.215690887"/>
<line stroke="#834" stroke-width="2" x1="640.0" y1="207.199529863" x2="777.134598708" y2="211.420054918"/>
<line stroke="#834" stroke-width="2" x1="652.889525944" y1="421.895138083" x2="890.09305894" y2="475.265933007"/>
<line stroke="#834" stroke-width="2" x1="714.176567374" y1="550.26789407" x2="752.884091443" y2="567.535006869"/>
<line stroke="#834" stroke-width="2" x1="890.09305894" y1="475.265933007" x2="752.884091443" y2="567.535006869"/>
<line stroke="#834" stroke-width="2" x1="714.549426795" y1="548.412178955" x2="792.628827111" y2="564.100276626"/>
<line stroke="#834" stroke-width="2" x1="640.0" y1="522.758448548" x2="898.997905604" y2="522.758448548"/>
<line stroke="#834" stroke-width="2" x1="898.997905604" y1="522.758448548" x2="792.628827111" y2="564.100276626"/>
<line stroke="#834" stroke-width="2" x1="792.628827111" y1="564.100276626" x2="724.360599496" y2="570.0"/>
</svg>
