<?xml version="1.0" encoding="iso-8859-1"?><svg version="1.1" xmlns="http://www.w3.org/2000/svg" xmlns:xlink="http://www.w3.org/1999/xlink" height="640" width="1210" viewBox="0 0 640 1210">
<polygon fill="none" stroke="#ff8a65" stroke-width="2" points="165.800875449,70.0 200.344653316,98.2285732864 265.489889074,100.942107937 263.454738086,149.801034756 351.808856764,222.002480813 259.205092038,335.323258518 254.775886063,358.15874302 151.820004575,346.098748468 145.901769152,332.917683685 97.8571502432,123.923591433"/>
<line stroke="#834" stroke-width="2" x1="708.681826822" y1="91.5230544662" x2="731.102056945" y2="97.4628807929"/>
<line stroke="#834" stroke-width="2" x1="735.800875449" y1="70.0" x2="921.808856764" y2="222.002480813"/>
<line stroke="#834" stroke-width="2" x1="703.729094549" y1="95.4537943653" x2="835.489889074" y2="100.942107937"/>
<line stroke="#834" stroke-width="2" x1="667.857150243" y1="123.923591433" x2="744.364874951" y2="161.357833517"/>
<line stroke="#834" stroke-width="2" x1="735.800875449" y1="70.0" x2="773.584345282" y2="147.024577709"/>
<line stroke="#834" stroke-width="2" x1="735.800875449" y1="70.0" x2="667.857150243" y2="123.923591433"/>
<line stroke="#834" stroke-width="2" x1="773.823493888" y1="278.42907629" x2="811.787605629" y2="356.637328323"/>
<line stroke="#834" stroke-width="2" x1="773.584345282" y1="147.024577709" x2="744.364874951" y2="161.357833517"/>
<line stroke="#834" stroke-width="2" x1="731.102056945" y1="97.4628807929" x2="744.364874951" y2="161.357833517"/>
<line stroke="#834" stroke-width="2" x1="731.102056945" y1="97.4628807929" x2="695.74114065" y2="137.566867993"/>
<line stroke="#834" stroke-width="2" x1="715.901769152" y1="332.917683685" x2="721.820004575" y2="346.098748468"/>
<line stroke="#834" stroke-width="2" x1="667.857150243" y1="123.923591433" x2="715.901769152" y2="332.917683685"/>
<line stroke="#834" stroke-width="2" x1="708.681826822" y1="91.5230544662" x2="715.901769152" y2="332.917683685"/>
<line stroke="#834" stroke-width="2" x1="703.729094549" y1="95.4537943653" x2="695.74114065" y2="137.566867993"/>
<line stroke="#834" stroke-width="2" x1="835.489889074" y1="100.942107937" x2="824.775886063" y2="358.15874302"/>
<line stroke="#834" stroke-width="2" x1="773.823493888" y1="278.42907629" x2="837.832295391" y2="290.84432266"/>
<line stroke="#834" stroke-width="2" x1="837.832295391" y1="290.84432266" x2="824.775886063" y2="358.15874302"/>
<line stroke="#834" stroke-width="2" x1="773.823493888" y1="278.42907629" x2="721.820004575" y2="346.098748468"/>
<line stroke="#834" stroke-width="2" x1="721.820004575" y1="346.098748468" x2="824.775886063" y2="358.15874302"/>
<line stroke="#834" stroke-width="2" x1="921.808856764" y1="222.002480813" x2="811.787605629" y2="356.637328323"/>
</svg>
