<?xml version="1.0" encoding="iso-8859-1"?><svg version="1.1" xmlns="http://www.w3.org/2000/svg" xmlns:xlink="http://www.w3.org/1999/xlink" height="640" width="1210" viewBox="0 0 640 1210">
<polygon fill="none" stroke="#ff8a65" stroke-width="2" points="260.909090909,133.636363636 357.878787879,206.363636364 433.636363636,206.363636364 506.363636364,260.909090909 433.636363636,357.878787879 433.636363636,433.636363636 379.090909091,506.363636364 282.121212121,433.636363636 206.363636364,433.636363636 133.636363636,379.090909091 206.363636364,282.121212121 206.363636364,206.363636364"/>
<line stroke="#834" stroke-width="2" x1="1003.63636364" y1="206.363636364" x2="1076.36363636" y2="260.909090909"/>
<line stroke="#834" stroke-width="2" x1="830.909090909" y1="133.636363636" x2="1049.09090909" y2="297.272727273"/>
<line stroke="#834" stroke-width="2" x1="776.363636364" y1="206.363636364" x2="776.363636364" y2="433.636363636"/>
<line stroke="#834" stroke-width="2" x1="1003.63636364" y1="206.363636364" x2="1003.63636364" y2="433.636363636"/>
<line stroke="#834" stroke-width="2" x1="776.363636364" y1="206.363636364" x2="994.545454545" y2="370.0"/>
<line stroke="#834" stroke-width="2" x1="785.454545455" y1="270.0" x2="1003.63636364" y2="433.636363636"/>
<line stroke="#834" stroke-width="2" x1="830.909090909" y1="133.636363636" x2="776.363636364" y2="206.363636364"/>
<line stroke="#834" stroke-width="2" x1="730.909090909" y1="342.727272727" x2="949.090909091" y2="506.363636364"/>
<line stroke="#834" stroke-width="2" x1="776.363636364" y1="206.363636364" x2="1003.63636364" y2="206.363636364"/>
<line stroke="#834" stroke-width="2" x1="867.272727273" y1="160.909090909" x2="703.636363636" y2="379.090909091"/>
<line stroke="#834" stroke-width="2" x1="703.636363636" y1="379.090909091" x2="776.363636364" y2="433.636363636"/>
<line stroke="#834" stroke-width="2" x1="940.0" y1="215.454545455" x2="776.363636364" y2="433.636363636"/>
<line stroke="#834" stroke-width="2" x1="1003.63636364" y1="206.363636364" x2="840.0" y2="424.545454545"/>
<line stroke="#834" stroke-width="2" x1="1076.36363636" y1="260.909090909" x2="912.727272727" y2="479.090909091"/>
<line stroke="#834" stroke-width="2" x1="1003.63636364" y1="433.636363636" x2="949.090909091" y2="506.363636364"/>
<line stroke="#834" stroke-width="2" x1="776.363636364" y1="433.636363636" x2="1003.63636364" y2="433.636363636"/>
</svg>
