<?xml version="1.0" encoding="iso-8859-1"?><svg version="1.1" xmlns="http://www.w3.org/2000/svg" xmlns:xlink="http://www.w3.org/1999/xlink" height="640" width="1210" viewBox="0 0 640 1210">
<polygon fill="none" stroke="#ff8a65" stroke-width="2" points="120.0,170.0 220.0,170.0 220.0,220.0 270.0,270.0 270.0,470.0 70.0,470.0 70.0,270.0 120.0,220.0"/>
<line stroke="#834" stroke-width="2" x1="640.0" y1="270.0" x2="640.0" y2="470.0"/>
<line stroke="#834" stroke-width="2" x1="690.0" y1="170.0" x2="690.0" y2="220.0"/>
<line stroke="#834" stroke-width="2" x1="740.0" y1="170.0" x2="740.0" y2="470.0"/>
<line stroke="#834" stroke-width="2" x1="790.0" y1="170.0" x2="790.0" y2="220.0"/>
<line stroke="#834" stroke-width="2" x1="840.0" y1="270.0" x2="840.0" y2="470.0"/>
<line stroke="#834" stroke-width="2" x1="740.0" y1="170.0" x2="840.0" y2="270.0"/>
<line stroke="#834" stroke-width="2" x1="740.0" y1="170.0" x2="640.0" y2="270.0"/>
<line stroke="#834" stroke-width="2" x1="690.0" y1="220.0" x2="740.0" y2="270.0"/>
<line stroke="#834" stroke-width="2" x1="690.0" y1="170.0" x2="790.0" y2="170.0"/>
<line stroke="#834" stroke-width="2" x1="790.0" y1="220.0" x2="740.0" y2="270.0"/>
<line stroke="#834" stroke-width="2" x1="690.0" y1="220.0" x2="790.0" y2="220.0"/>
<line stroke="#834" stroke-width="2" x1="640.0" y1="270.0" x2="840.0" y2="270.0"/>
<line stroke="#834" stroke-width="2" x1="640.0" y1="470.0" x2="840.0" y2="470.0"/>
</svg>
