<?xml version="1.0" encoding="iso-8859-1"?><svg version="1.1" xmlns="http://www.w3.org/2000/svg" xmlns:xlink="http://www.w3.org/1999/xlink" height="640" width="1210" viewBox="0 0 640 1210">
<polygon fill="none" stroke="#ff8a65" stroke-width="2" points="261.148546598,70.0 263.518396176,75.1179174272 293.091024718,75.1179174272 300.175586441,117.080321482 341.24301856,136.764058009 316.229206197,188.951966531 458.35439291,495.884936763 427.781864652,519.472115749 416.476462959,504.818616367 367.405254054,515.286814261 370.357703399,532.774398847 362.778125253,535.408828612 358.455048763,570.0 288.43303982,561.248908653 237.157560015,75.1179174272"/>
<line stroke="#834" stroke-width="2" x1="831.148546598" y1="70.0" x2="1028.35439291" y2="495.884936763"/>
<line stroke="#834" stroke-width="2" x1="808.463756693" y1="87.5016667004" x2="911.24301856" y2="136.764058009"/>
<line stroke="#834" stroke-width="2" x1="814.408584771" y1="143.86320982" x2="876.581186941" y2="205.548171565"/>
<line stroke="#834" stroke-width="2" x1="863.091024718" y1="75.1179174272" x2="940.357703399" y2="532.774398847"/>
<line stroke="#834" stroke-width="2" x1="807.157560015" y1="75.1179174272" x2="858.43303982" y2="561.248908653"/>
<line stroke="#834" stroke-width="2" x1="831.260875813" y1="303.635892196" x2="997.781864652" y2="519.472115749"/>
<line stroke="#834" stroke-width="2" x1="809.135591491" y1="93.8711773787" x2="844.233191492" y2="98.2575454406"/>
<line stroke="#834" stroke-width="2" x1="807.157560015" y1="75.1179174272" x2="863.091024718" y2="75.1179174272"/>
<line stroke="#834" stroke-width="2" x1="831.148546598" y1="70.0" x2="807.157560015" y2="75.1179174272"/>
<line stroke="#834" stroke-width="2" x1="826.264139874" y1="256.262991857" x2="956.981182758" y2="341.747644889"/>
<line stroke="#834" stroke-width="2" x1="956.981182758" y1="341.747644889" x2="928.455048763" y2="570.0"/>
<line stroke="#834" stroke-width="2" x1="863.091024718" y1="75.1179174272" x2="809.135591491" y2="93.8711773787"/>
<line stroke="#834" stroke-width="2" x1="831.148546598" y1="70.0" x2="808.463756693" y2="87.5016667004"/>
<line stroke="#834" stroke-width="2" x1="844.233191492" y1="98.2575454406" x2="814.408584771" y2="143.86320982"/>
<line stroke="#834" stroke-width="2" x1="911.24301856" y1="136.764058009" x2="831.260875813" y2="303.635892196"/>
<line stroke="#834" stroke-width="2" x1="876.581186941" y1="205.548171565" x2="826.264139874" y2="256.262991857"/>
<line stroke="#834" stroke-width="2" x1="1028.35439291" y1="495.884936763" x2="997.781864652" y2="519.472115749"/>
<line stroke="#834" stroke-width="2" x1="858.43303982" y1="561.248908653" x2="928.455048763" y2="570.0"/>
<line stroke="#834" stroke-width="2" x1="855.429643248" y1="532.774398847" x2="940.357703399" y2="532.774398847"/>
<line stroke="#834" stroke-width="2" x1="1028.35439291" y1="495.884936763" x2="855.429643248" y2="532.774398847"/>
<line stroke="#834" stroke-width="2" x1="940.357703399" y1="532.774398847" x2="858.43303982" y2="561.248908653"/>
</svg>
