<?xml version="1.0" encoding="iso-8859-1"?><svg version="1.1" xmlns="http://www.w3.org/2000/svg" xmlns:xlink="http://www.w3.org/1999/xlink" height="640" width="1210" viewBox="0 0 640 1210">
<polygon fill="none" stroke="#ff8a65" stroke-width="2" points="145.581395349,77.8125 471.515151515,285.789473684 562.1875,424.430379747 204.831460674,562.1875"/>
<line stroke="#834" stroke-width="2" x1="1104.78385596" y1="382.529336009" x2="1124.88700799" y2="427.244645198"/>
<line stroke="#834" stroke-width="2" x1="1041.51515152" y1="285.789473684" x2="1132.1875" y2="424.430379747"/>
<line stroke="#834" stroke-width="2" x1="1123.82708317" y1="423.973698128" x2="1124.88700799" y2="427.244645198"/>
<line stroke="#834" stroke-width="2" x1="1040.26737803" y1="311.283392721" x2="1104.78385596" y2="382.529336009"/>
<line stroke="#834" stroke-width="2" x1="1041.51515152" y1="285.789473684" x2="1059.61331247" y2="401.205832792"/>
<line stroke="#834" stroke-width="2" x1="808.125175203" y1="136.864300874" x2="901.620265288" y2="513.311704766"/>
<line stroke="#834" stroke-width="2" x1="715.581395349" y1="77.8125" x2="719.386515945" y2="84.7023093723"/>
<line stroke="#834" stroke-width="2" x1="715.581395349" y1="77.8125" x2="1041.51515152" y2="285.789473684"/>
<line stroke="#834" stroke-width="2" x1="718.660561019" y1="102.984976407" x2="887.301968964" y2="466.018929272"/>
<line stroke="#834" stroke-width="2" x1="889.94930712" y1="491.558615162" x2="901.620265288" y2="513.311704766"/>
<line stroke="#834" stroke-width="2" x1="715.581395349" y1="77.8125" x2="774.831460674" y2="562.1875"/>
<line stroke="#834" stroke-width="2" x1="723.673195648" y1="82.9758441032" x2="727.311658714" y2="152.885686961"/>
<line stroke="#834" stroke-width="2" x1="722.663435192" y1="82.3315201573" x2="718.660561019" y2="102.984976407"/>
<line stroke="#834" stroke-width="2" x1="723.673195648" y1="82.9758441032" x2="719.386515945" y2="84.7023093723"/>
<line stroke="#834" stroke-width="2" x1="722.663435192" y1="82.3315201573" x2="719.386515945" y2="84.7023093723"/>
<line stroke="#834" stroke-width="2" x1="727.311658714" y1="152.885686961" x2="724.780664496" y2="153.017412747"/>
<line stroke="#834" stroke-width="2" x1="808.125175203" y1="136.864300874" x2="724.780664496" y2="153.017412747"/>
<line stroke="#834" stroke-width="2" x1="777.682896707" y1="554.85144326" x2="774.831460674" y2="562.1875"/>
<line stroke="#834" stroke-width="2" x1="1059.61331247" y1="401.205832792" x2="1121.82603352" y2="428.424619741"/>
<line stroke="#834" stroke-width="2" x1="1123.82708317" y1="423.973698128" x2="1121.82603352" y2="428.424619741"/>
<line stroke="#834" stroke-width="2" x1="773.67078532" y1="552.698867005" x2="777.682896707" y2="554.85144326"/>
<line stroke="#834" stroke-width="2" x1="1123.82708317" y1="423.973698128" x2="1132.1875" y2="424.430379747"/>
<line stroke="#834" stroke-width="2" x1="1040.26737803" y1="311.283392721" x2="773.67078532" y2="552.698867005"/>
<line stroke="#834" stroke-width="2" x1="1095.9865447" y1="369.077967164" x2="1059.61331247" y2="401.205832792"/>
<line stroke="#834" stroke-width="2" x1="1095.9865447" y1="369.077967164" x2="887.301968964" y2="466.018929272"/>
<line stroke="#834" stroke-width="2" x1="773.813749618" y1="553.867613934" x2="777.682896707" y2="554.85144326"/>
<line stroke="#834" stroke-width="2" x1="889.94930712" y1="491.558615162" x2="773.813749618" y2="553.867613934"/>
<line stroke="#834" stroke-width="2" x1="1132.1875" y1="424.430379747" x2="774.831460674" y2="562.1875"/>
</svg>
