<?xml version="1.0" encoding="iso-8859-1"?><svg version="1.1" xmlns="http://www.w3.org/2000/svg" xmlns:xlink="http://www.w3.org/1999/xlink" height="640" width="1210" viewBox="0 0 640 1210">
<polygon fill="none" stroke="#ff8a65" stroke-width="2" points="70.0,153.333333333 195.0,153.333333333 215.833333333,174.166666667 236.666666667,153.333333333 236.666666667,278.333333333 215.833333333,299.166666667 236.666666667,320.0 111.666666667,320.0 90.8333333333,299.166666667 70.0,320.0 70.0,195.0 90.8333333333,174.166666667"/>
<line stroke="#834" stroke-width="2" x1="640.0" y1="195.0" x2="640.0" y2="320.0"/>
<line stroke="#834" stroke-width="2" x1="681.666666667" y1="236.666666667" x2="681.666666667" y2="320.0"/>
<line stroke="#834" stroke-width="2" x1="723.333333333" y1="153.333333333" x2="723.333333333" y2="320.0"/>
<line stroke="#834" stroke-width="2" x1="681.666666667" y1="153.333333333" x2="640.0" y2="236.666666667"/>
<line stroke="#834" stroke-width="2" x1="765.0" y1="153.333333333" x2="765.0" y2="236.666666667"/>
<line stroke="#834" stroke-width="2" x1="806.666666667" y1="153.333333333" x2="806.666666667" y2="278.333333333"/>
<line stroke="#834" stroke-width="2" x1="681.666666667" y1="195.0" x2="640.0" y2="278.333333333"/>
<line stroke="#834" stroke-width="2" x1="723.333333333" y1="153.333333333" x2="681.666666667" y2="236.666666667"/>
<line stroke="#834" stroke-width="2" x1="765.0" y1="153.333333333" x2="806.666666667" y2="195.0"/>
<line stroke="#834" stroke-width="2" x1="681.666666667" y1="153.333333333" x2="640.0" y2="195.0"/>
<line stroke="#834" stroke-width="2" x1="723.333333333" y1="195.0" x2="681.666666667" y2="278.333333333"/>
<line stroke="#834" stroke-width="2" x1="723.333333333" y1="153.333333333" x2="806.666666667" y2="236.666666667"/>
<line stroke="#834" stroke-width="2" x1="723.333333333" y1="153.333333333" x2="640.0" y2="236.666666667"/>
<line stroke="#834" stroke-width="2" x1="765.0" y1="195.0" x2="723.333333333" y2="278.333333333"/>
<line stroke="#834" stroke-width="2" x1="765.0" y1="236.666666667" x2="723.333333333" y2="320.0"/>
<line stroke="#834" stroke-width="2" x1="806.666666667" y1="195.0" x2="765.0" y2="278.333333333"/>
<line stroke="#834" stroke-width="2" x1="681.666666667" y1="153.333333333" x2="765.0" y2="236.666666667"/>
<line stroke="#834" stroke-width="2" x1="723.333333333" y1="195.0" x2="640.0" y2="278.333333333"/>
<line stroke="#834" stroke-width="2" x1="723.333333333" y1="153.333333333" x2="806.666666667" y2="195.0"/>
<line stroke="#834" stroke-width="2" x1="806.666666667" y1="236.666666667" x2="765.0" y2="320.0"/>
<line stroke="#834" stroke-width="2" x1="640.0" y1="153.333333333" x2="806.666666667" y2="320.0"/>
<line stroke="#834" stroke-width="2" x1="681.666666667" y1="153.333333333" x2="765.0" y2="195.0"/>
<line stroke="#834" stroke-width="2" x1="640.0" y1="153.333333333" x2="765.0" y2="153.333333333"/>
<line stroke="#834" stroke-width="2" x1="806.666666667" y1="153.333333333" x2="640.0" y2="320.0"/>
<line stroke="#834" stroke-width="2" x1="723.333333333" y1="195.0" x2="806.666666667" y2="236.666666667"/>
<line stroke="#834" stroke-width="2" x1="681.666666667" y1="236.666666667" x2="765.0" y2="320.0"/>
<line stroke="#834" stroke-width="2" x1="806.666666667" y1="195.0" x2="723.333333333" y2="278.333333333"/>
<line stroke="#834" stroke-width="2" x1="681.666666667" y1="195.0" x2="765.0" y2="236.666666667"/>
<line stroke="#834" stroke-width="2" x1="640.0" y1="236.666666667" x2="723.333333333" y2="320.0"/>
<line stroke="#834" stroke-width="2" x1="640.0" y1="195.0" x2="723.333333333" y2="195.0"/>
<line stroke="#834" stroke-width="2" x1="806.666666667" y1="236.666666667" x2="723.333333333" y2="320.0"/>
<line stroke="#834" stroke-width="2" x1="640.0" y1="278.333333333" x2="681.666666667" y2="320.0"/>
<line stroke="#834" stroke-width="2" x1="806.666666667" y1="278.333333333" x2="765.0" y2="320.0"/>
<line stroke="#834" stroke-width="2" x1="681.666666667" y1="236.666666667" x2="765.0" y2="278.333333333"/>
<line stroke="#834" stroke-width="2" x1="640.0" y1="236.666666667" x2="723.333333333" y2="278.333333333"/>
<line stroke="#834" stroke-width="2" x1="640.0" y1="236.666666667" x2="806.666666667" y2="236.666666667"/>
<line stroke="#834" stroke-width="2" x1="681.666666667" y1="278.333333333" x2="765.0" y2="320.0"/>
<line stroke="#834" stroke-width="2" x1="640.0" y1="278.333333333" x2="723.333333333" y2="320.0"/>
<line stroke="#834" stroke-width="2" x1="723.333333333" y1="278.333333333" x2="806.666666667" y2="278.333333333"/>
<line stroke="#834" stroke-width="2" x1="681.666666667" y1="320.0" x2="806.666666667" y2="320.0"/>
</svg>
